<mxfile host="Electron" modified="2023-08-17T20:00:43.481Z" agent="Mozilla/5.0 (Windows NT 10.0; Win64; x64) AppleWebKit/537.36 (KHTML, like Gecko) draw.io/21.6.8 Chrome/114.0.5735.289 Electron/25.5.0 Safari/537.36" etag="5tou47Xo8HKS7T9wFCbY" version="21.6.8" type="device">
  <diagram name="Página-1" id="Glht7QMjmwHEcknVeBxI">
    <mxGraphModel dx="2280" dy="877" grid="1" gridSize="10" guides="1" tooltips="1" connect="1" arrows="1" fold="1" page="0" pageScale="1" pageWidth="827" pageHeight="1169" math="0" shadow="0">
      <root>
        <mxCell id="0" />
        <mxCell id="1" parent="0" />
        <mxCell id="Ld6sLfsfB1zGds4BfOiX-1" value="Regras de Negócio" style="text;html=1;align=center;verticalAlign=middle;resizable=0;points=[];autosize=1;strokeColor=#b85450;fillColor=#f8cecc;" parent="1" vertex="1">
          <mxGeometry x="160" y="90" width="130" height="30" as="geometry" />
        </mxCell>
        <mxCell id="ua7cu-9W5NlXZyTE7CpF-1" value="SPRINT 1 – Banco de dados&#xa;A Health Clinic contratou você para desenvolver sua solução em software. De acordo com a&#xa;cultura de desenvolvimento de softwares criada no seu aprendizado, o primeiro passo para a&#xa;construção do sistema é desenvolver a modelagem do banco de dados que será utilizada pelo&#xa;sistema em seus modelos conceitual, lógico e físico.&#xa;Para ajudar na construção da modelagem, Steve disponibilizou as planilhas onde guardava os&#xa;dados administrativos da clínica, com informações referentes a: médicos cadastrados, pacientes&#xa;e consultas, etc. Você utilizará estes documentos como base para a construção do banco e&#xa;dados.&#xa;Perfis de usuário:&#xa;1. Administrador: Para o colaborador da área administrativa da clínica;&#xa;2. Médico: Colaboradores que atuam na área da saúde;&#xa;3. Paciente: Clientes da clínica;&#xa;Funcionalidades:&#xa;1. O administrador poderá cadastrar qualquer tipo de usuário (administrador, paciente ou&#xa;médico);&#xa;2. O administrador poderá agendar uma consulta, onde será informado o paciente, data do&#xa;agendamento e qual médico irá atender a consulta (o médico possuirá sua determinada&#xa;especialidade);&#xa;3. O administrador poderá cancelar o agendamento;&#xa;4. O administrador deverá informar os dados da clínica (como endereço, horário de&#xa;funcionamento, CNPJ, nome fantasia e razão social);&#xa;5. O médico poderá ver os agendamentos (consultas) associados a ele;&#xa;6. O médico poderá incluir a descrição da consulta que estará vinculada ao paciente&#xa;(prontuário);&#xa;7. O paciente poderá visualizar suas próprias consultas;" style="text;whiteSpace=wrap;" parent="1" vertex="1">
          <mxGeometry x="-20" y="130" width="560" height="400" as="geometry" />
        </mxCell>
        <mxCell id="ua7cu-9W5NlXZyTE7CpF-2" value="Modelo Conceitual" style="text;html=1;align=center;verticalAlign=middle;resizable=0;points=[];autosize=1;strokeColor=#6c8ebf;fillColor=#dae8fc;" parent="1" vertex="1">
          <mxGeometry x="-100" y="760" width="120" height="30" as="geometry" />
        </mxCell>
        <mxCell id="ua7cu-9W5NlXZyTE7CpF-3" value="Modelo Lógico" style="text;html=1;align=center;verticalAlign=middle;resizable=0;points=[];autosize=1;strokeColor=#9673a6;fillColor=#e1d5e7;" parent="1" vertex="1">
          <mxGeometry x="1090" y="700" width="100" height="30" as="geometry" />
        </mxCell>
        <mxCell id="ua7cu-9W5NlXZyTE7CpF-4" value="&lt;font style=&quot;font-size: 18px;&quot;&gt;Modelo Físico&lt;/font&gt;" style="text;html=1;align=center;verticalAlign=middle;resizable=0;points=[];autosize=1;strokeColor=#d6b656;fillColor=#fff2cc;" parent="1" vertex="1">
          <mxGeometry x="560" y="1495" width="140" height="40" as="geometry" />
        </mxCell>
        <mxCell id="ua7cu-9W5NlXZyTE7CpF-5" value="Usuario" style="rounded=0;whiteSpace=wrap;html=1;" parent="1" vertex="1">
          <mxGeometry x="-250" y="900" width="120" height="60" as="geometry" />
        </mxCell>
        <mxCell id="ua7cu-9W5NlXZyTE7CpF-23" style="edgeStyle=orthogonalEdgeStyle;rounded=0;orthogonalLoop=1;jettySize=auto;html=1;exitX=1;exitY=0.5;exitDx=0;exitDy=0;entryX=0;entryY=0.5;entryDx=0;entryDy=0;endArrow=none;endFill=0;" parent="1" source="ua7cu-9W5NlXZyTE7CpF-6" target="ua7cu-9W5NlXZyTE7CpF-22" edge="1">
          <mxGeometry relative="1" as="geometry" />
        </mxCell>
        <mxCell id="ua7cu-9W5NlXZyTE7CpF-6" value="TiposDeUsuario" style="rounded=0;whiteSpace=wrap;html=1;" parent="1" vertex="1">
          <mxGeometry x="-550" y="900" width="120" height="60" as="geometry" />
        </mxCell>
        <mxCell id="ua7cu-9W5NlXZyTE7CpF-35" style="edgeStyle=orthogonalEdgeStyle;rounded=0;orthogonalLoop=1;jettySize=auto;html=1;exitX=1;exitY=0.5;exitDx=0;exitDy=0;entryX=0;entryY=0.5;entryDx=0;entryDy=0;endArrow=none;endFill=0;" parent="1" source="ua7cu-9W5NlXZyTE7CpF-9" target="ua7cu-9W5NlXZyTE7CpF-18" edge="1">
          <mxGeometry relative="1" as="geometry" />
        </mxCell>
        <mxCell id="ua7cu-9W5NlXZyTE7CpF-9" value="Paciente" style="rounded=0;whiteSpace=wrap;html=1;" parent="1" vertex="1">
          <mxGeometry x="-420" y="1070" width="120" height="60" as="geometry" />
        </mxCell>
        <mxCell id="ua7cu-9W5NlXZyTE7CpF-28" style="edgeStyle=orthogonalEdgeStyle;rounded=0;orthogonalLoop=1;jettySize=auto;html=1;exitX=0;exitY=0.5;exitDx=0;exitDy=0;entryX=1;entryY=0.5;entryDx=0;entryDy=0;endArrow=none;endFill=0;" parent="1" source="ua7cu-9W5NlXZyTE7CpF-10" target="ua7cu-9W5NlXZyTE7CpF-19" edge="1">
          <mxGeometry relative="1" as="geometry" />
        </mxCell>
        <mxCell id="ua7cu-9W5NlXZyTE7CpF-10" value="Medico" style="rounded=0;whiteSpace=wrap;html=1;" parent="1" vertex="1">
          <mxGeometry x="210" y="1070" width="120" height="60" as="geometry" />
        </mxCell>
        <mxCell id="ua7cu-9W5NlXZyTE7CpF-31" style="edgeStyle=orthogonalEdgeStyle;rounded=0;orthogonalLoop=1;jettySize=auto;html=1;exitX=0.5;exitY=1;exitDx=0;exitDy=0;entryX=0.5;entryY=0;entryDx=0;entryDy=0;endArrow=none;endFill=0;" parent="1" source="ua7cu-9W5NlXZyTE7CpF-12" target="ua7cu-9W5NlXZyTE7CpF-21" edge="1">
          <mxGeometry relative="1" as="geometry" />
        </mxCell>
        <mxCell id="ua7cu-9W5NlXZyTE7CpF-12" value="Consulta" style="rounded=0;whiteSpace=wrap;html=1;" parent="1" vertex="1">
          <mxGeometry x="-100" y="1070" width="120" height="60" as="geometry" />
        </mxCell>
        <mxCell id="ua7cu-9W5NlXZyTE7CpF-15" value="Comentario" style="rounded=0;whiteSpace=wrap;html=1;" parent="1" vertex="1">
          <mxGeometry x="-300" y="1270" width="120" height="60" as="geometry" />
        </mxCell>
        <mxCell id="ua7cu-9W5NlXZyTE7CpF-26" style="edgeStyle=orthogonalEdgeStyle;rounded=0;orthogonalLoop=1;jettySize=auto;html=1;exitX=0.5;exitY=1;exitDx=0;exitDy=0;entryX=0.5;entryY=0;entryDx=0;entryDy=0;endArrow=none;endFill=0;" parent="1" source="ua7cu-9W5NlXZyTE7CpF-16" target="ua7cu-9W5NlXZyTE7CpF-20" edge="1">
          <mxGeometry relative="1" as="geometry" />
        </mxCell>
        <mxCell id="ua7cu-9W5NlXZyTE7CpF-16" value="Especialidade" style="rounded=0;whiteSpace=wrap;html=1;" parent="1" vertex="1">
          <mxGeometry x="210" y="840" width="120" height="60" as="geometry" />
        </mxCell>
        <mxCell id="ua7cu-9W5NlXZyTE7CpF-37" style="edgeStyle=orthogonalEdgeStyle;rounded=0;orthogonalLoop=1;jettySize=auto;html=1;exitX=0.5;exitY=1;exitDx=0;exitDy=0;entryX=0.5;entryY=0;entryDx=0;entryDy=0;endArrow=none;endFill=0;" parent="1" source="ua7cu-9W5NlXZyTE7CpF-17" target="ua7cu-9W5NlXZyTE7CpF-12" edge="1">
          <mxGeometry relative="1" as="geometry" />
        </mxCell>
        <mxCell id="ua7cu-9W5NlXZyTE7CpF-17" value="Gerencia" style="rhombus;whiteSpace=wrap;html=1;" parent="1" vertex="1">
          <mxGeometry x="-80" y="940" width="80" height="80" as="geometry" />
        </mxCell>
        <mxCell id="ua7cu-9W5NlXZyTE7CpF-34" style="edgeStyle=orthogonalEdgeStyle;rounded=0;orthogonalLoop=1;jettySize=auto;html=1;exitX=1;exitY=0.5;exitDx=0;exitDy=0;entryX=0;entryY=0.5;entryDx=0;entryDy=0;endArrow=none;endFill=0;" parent="1" source="ua7cu-9W5NlXZyTE7CpF-18" target="ua7cu-9W5NlXZyTE7CpF-12" edge="1">
          <mxGeometry relative="1" as="geometry" />
        </mxCell>
        <mxCell id="ua7cu-9W5NlXZyTE7CpF-18" value="Possui" style="rhombus;whiteSpace=wrap;html=1;" parent="1" vertex="1">
          <mxGeometry x="-230" y="1060" width="80" height="80" as="geometry" />
        </mxCell>
        <mxCell id="ua7cu-9W5NlXZyTE7CpF-29" style="edgeStyle=orthogonalEdgeStyle;rounded=0;orthogonalLoop=1;jettySize=auto;html=1;exitX=0;exitY=0.5;exitDx=0;exitDy=0;entryX=1;entryY=0.5;entryDx=0;entryDy=0;endArrow=none;endFill=0;" parent="1" source="ua7cu-9W5NlXZyTE7CpF-19" target="ua7cu-9W5NlXZyTE7CpF-12" edge="1">
          <mxGeometry relative="1" as="geometry" />
        </mxCell>
        <mxCell id="ua7cu-9W5NlXZyTE7CpF-19" value="Possui" style="rhombus;whiteSpace=wrap;html=1;" parent="1" vertex="1">
          <mxGeometry x="70" y="1060" width="80" height="80" as="geometry" />
        </mxCell>
        <mxCell id="ua7cu-9W5NlXZyTE7CpF-27" style="edgeStyle=orthogonalEdgeStyle;rounded=0;orthogonalLoop=1;jettySize=auto;html=1;exitX=0.5;exitY=1;exitDx=0;exitDy=0;entryX=0.5;entryY=0;entryDx=0;entryDy=0;endArrow=none;endFill=0;" parent="1" source="ua7cu-9W5NlXZyTE7CpF-20" target="ua7cu-9W5NlXZyTE7CpF-10" edge="1">
          <mxGeometry relative="1" as="geometry" />
        </mxCell>
        <mxCell id="ua7cu-9W5NlXZyTE7CpF-20" value="Possui" style="rhombus;whiteSpace=wrap;html=1;" parent="1" vertex="1">
          <mxGeometry x="230" y="950" width="80" height="80" as="geometry" />
        </mxCell>
        <mxCell id="ua7cu-9W5NlXZyTE7CpF-32" style="edgeStyle=orthogonalEdgeStyle;rounded=0;orthogonalLoop=1;jettySize=auto;html=1;exitX=0.5;exitY=1;exitDx=0;exitDy=0;entryX=1;entryY=0.5;entryDx=0;entryDy=0;endArrow=none;endFill=0;" parent="1" source="ua7cu-9W5NlXZyTE7CpF-21" target="ua7cu-9W5NlXZyTE7CpF-15" edge="1">
          <mxGeometry relative="1" as="geometry" />
        </mxCell>
        <mxCell id="ua7cu-9W5NlXZyTE7CpF-21" value="Possui" style="rhombus;whiteSpace=wrap;html=1;" parent="1" vertex="1">
          <mxGeometry x="-80" y="1160" width="80" height="80" as="geometry" />
        </mxCell>
        <mxCell id="ua7cu-9W5NlXZyTE7CpF-24" style="edgeStyle=orthogonalEdgeStyle;rounded=0;orthogonalLoop=1;jettySize=auto;html=1;exitX=1;exitY=0.5;exitDx=0;exitDy=0;entryX=0;entryY=0.5;entryDx=0;entryDy=0;endArrow=none;endFill=0;" parent="1" source="ua7cu-9W5NlXZyTE7CpF-22" target="ua7cu-9W5NlXZyTE7CpF-5" edge="1">
          <mxGeometry relative="1" as="geometry" />
        </mxCell>
        <mxCell id="ua7cu-9W5NlXZyTE7CpF-22" value="Possui" style="rhombus;whiteSpace=wrap;html=1;" parent="1" vertex="1">
          <mxGeometry x="-380" y="890" width="80" height="80" as="geometry" />
        </mxCell>
        <mxCell id="ua7cu-9W5NlXZyTE7CpF-38" value="N" style="text;html=1;align=center;verticalAlign=middle;resizable=0;points=[];autosize=1;strokeColor=none;fillColor=none;" parent="1" vertex="1">
          <mxGeometry x="-280" y="900" width="30" height="30" as="geometry" />
        </mxCell>
        <mxCell id="ua7cu-9W5NlXZyTE7CpF-39" value="1" style="text;html=1;align=center;verticalAlign=middle;resizable=0;points=[];autosize=1;strokeColor=none;fillColor=none;" parent="1" vertex="1">
          <mxGeometry x="-430" y="900" width="30" height="30" as="geometry" />
        </mxCell>
        <mxCell id="ua7cu-9W5NlXZyTE7CpF-40" value="N" style="text;html=1;align=center;verticalAlign=middle;resizable=0;points=[];autosize=1;strokeColor=none;fillColor=none;" parent="1" vertex="1">
          <mxGeometry x="-45" y="1040" width="30" height="30" as="geometry" />
        </mxCell>
        <mxCell id="ua7cu-9W5NlXZyTE7CpF-43" value="1" style="text;html=1;align=center;verticalAlign=middle;resizable=0;points=[];autosize=1;strokeColor=none;fillColor=none;" parent="1" vertex="1">
          <mxGeometry x="-300" y="1070" width="30" height="30" as="geometry" />
        </mxCell>
        <mxCell id="ua7cu-9W5NlXZyTE7CpF-44" value="N" style="text;html=1;align=center;verticalAlign=middle;resizable=0;points=[];autosize=1;strokeColor=none;fillColor=none;" parent="1" vertex="1">
          <mxGeometry x="-130" y="1070" width="30" height="30" as="geometry" />
        </mxCell>
        <mxCell id="ua7cu-9W5NlXZyTE7CpF-45" value="1" style="text;html=1;align=center;verticalAlign=middle;resizable=0;points=[];autosize=1;strokeColor=none;fillColor=none;" parent="1" vertex="1">
          <mxGeometry x="180" y="1100" width="30" height="30" as="geometry" />
        </mxCell>
        <mxCell id="ua7cu-9W5NlXZyTE7CpF-46" value="N" style="text;html=1;align=center;verticalAlign=middle;resizable=0;points=[];autosize=1;strokeColor=none;fillColor=none;" parent="1" vertex="1">
          <mxGeometry x="15" y="1100" width="30" height="30" as="geometry" />
        </mxCell>
        <mxCell id="ua7cu-9W5NlXZyTE7CpF-47" value="1" style="text;html=1;align=center;verticalAlign=middle;resizable=0;points=[];autosize=1;strokeColor=none;fillColor=none;" parent="1" vertex="1">
          <mxGeometry x="265" y="900" width="30" height="30" as="geometry" />
        </mxCell>
        <mxCell id="ua7cu-9W5NlXZyTE7CpF-48" value="N" style="text;html=1;align=center;verticalAlign=middle;resizable=0;points=[];autosize=1;strokeColor=none;fillColor=none;" parent="1" vertex="1">
          <mxGeometry x="265" y="1040" width="30" height="30" as="geometry" />
        </mxCell>
        <mxCell id="ua7cu-9W5NlXZyTE7CpF-51" value="N" style="text;html=1;align=center;verticalAlign=middle;resizable=0;points=[];autosize=1;strokeColor=none;fillColor=none;" parent="1" vertex="1">
          <mxGeometry x="-70" y="1130" width="30" height="30" as="geometry" />
        </mxCell>
        <mxCell id="ua7cu-9W5NlXZyTE7CpF-52" value="1" style="text;html=1;align=center;verticalAlign=middle;resizable=0;points=[];autosize=1;strokeColor=none;fillColor=none;" parent="1" vertex="1">
          <mxGeometry x="-180" y="1270" width="30" height="30" as="geometry" />
        </mxCell>
        <mxCell id="ua7cu-9W5NlXZyTE7CpF-53" value="TipoDeUsuario" style="shape=table;startSize=30;container=1;collapsible=1;childLayout=tableLayout;fixedRows=1;rowLines=0;fontStyle=1;align=center;resizeLast=1;html=1;" parent="1" vertex="1">
          <mxGeometry x="510" y="900" width="180" height="90" as="geometry" />
        </mxCell>
        <mxCell id="ua7cu-9W5NlXZyTE7CpF-54" value="" style="shape=tableRow;horizontal=0;startSize=0;swimlaneHead=0;swimlaneBody=0;fillColor=none;collapsible=0;dropTarget=0;points=[[0,0.5],[1,0.5]];portConstraint=eastwest;top=0;left=0;right=0;bottom=1;" parent="ua7cu-9W5NlXZyTE7CpF-53" vertex="1">
          <mxGeometry y="30" width="180" height="30" as="geometry" />
        </mxCell>
        <mxCell id="ua7cu-9W5NlXZyTE7CpF-55" value="PK" style="shape=partialRectangle;connectable=0;fillColor=none;top=0;left=0;bottom=0;right=0;fontStyle=1;overflow=hidden;whiteSpace=wrap;html=1;" parent="ua7cu-9W5NlXZyTE7CpF-54" vertex="1">
          <mxGeometry width="30" height="30" as="geometry">
            <mxRectangle width="30" height="30" as="alternateBounds" />
          </mxGeometry>
        </mxCell>
        <mxCell id="ua7cu-9W5NlXZyTE7CpF-56" value="IdTipoDeUsuario" style="shape=partialRectangle;connectable=0;fillColor=none;top=0;left=0;bottom=0;right=0;align=left;spacingLeft=6;fontStyle=5;overflow=hidden;whiteSpace=wrap;html=1;" parent="ua7cu-9W5NlXZyTE7CpF-54" vertex="1">
          <mxGeometry x="30" width="150" height="30" as="geometry">
            <mxRectangle width="150" height="30" as="alternateBounds" />
          </mxGeometry>
        </mxCell>
        <mxCell id="ua7cu-9W5NlXZyTE7CpF-57" value="" style="shape=tableRow;horizontal=0;startSize=0;swimlaneHead=0;swimlaneBody=0;fillColor=none;collapsible=0;dropTarget=0;points=[[0,0.5],[1,0.5]];portConstraint=eastwest;top=0;left=0;right=0;bottom=0;" parent="ua7cu-9W5NlXZyTE7CpF-53" vertex="1">
          <mxGeometry y="60" width="180" height="30" as="geometry" />
        </mxCell>
        <mxCell id="ua7cu-9W5NlXZyTE7CpF-58" value="" style="shape=partialRectangle;connectable=0;fillColor=none;top=0;left=0;bottom=0;right=0;editable=1;overflow=hidden;whiteSpace=wrap;html=1;" parent="ua7cu-9W5NlXZyTE7CpF-57" vertex="1">
          <mxGeometry width="30" height="30" as="geometry">
            <mxRectangle width="30" height="30" as="alternateBounds" />
          </mxGeometry>
        </mxCell>
        <mxCell id="ua7cu-9W5NlXZyTE7CpF-59" value="TituloTipoDeUsuario" style="shape=partialRectangle;connectable=0;fillColor=none;top=0;left=0;bottom=0;right=0;align=left;spacingLeft=6;overflow=hidden;whiteSpace=wrap;html=1;" parent="ua7cu-9W5NlXZyTE7CpF-57" vertex="1">
          <mxGeometry x="30" width="150" height="30" as="geometry">
            <mxRectangle width="150" height="30" as="alternateBounds" />
          </mxGeometry>
        </mxCell>
        <mxCell id="ua7cu-9W5NlXZyTE7CpF-66" value="Usuario" style="shape=table;startSize=30;container=1;collapsible=1;childLayout=tableLayout;fixedRows=1;rowLines=0;fontStyle=1;align=center;resizeLast=1;html=1;whiteSpace=wrap;" parent="1" vertex="1">
          <mxGeometry x="750" y="840" width="180" height="240" as="geometry" />
        </mxCell>
        <mxCell id="ua7cu-9W5NlXZyTE7CpF-67" value="" style="shape=tableRow;horizontal=0;startSize=0;swimlaneHead=0;swimlaneBody=0;fillColor=none;collapsible=0;dropTarget=0;points=[[0,0.5],[1,0.5]];portConstraint=eastwest;top=0;left=0;right=0;bottom=0;html=1;" parent="ua7cu-9W5NlXZyTE7CpF-66" vertex="1">
          <mxGeometry y="30" width="180" height="30" as="geometry" />
        </mxCell>
        <mxCell id="ua7cu-9W5NlXZyTE7CpF-68" value="PK" style="shape=partialRectangle;connectable=0;fillColor=none;top=0;left=0;bottom=0;right=0;fontStyle=1;overflow=hidden;html=1;whiteSpace=wrap;" parent="ua7cu-9W5NlXZyTE7CpF-67" vertex="1">
          <mxGeometry width="60" height="30" as="geometry">
            <mxRectangle width="60" height="30" as="alternateBounds" />
          </mxGeometry>
        </mxCell>
        <mxCell id="ua7cu-9W5NlXZyTE7CpF-69" value="IdUsuario" style="shape=partialRectangle;connectable=0;fillColor=none;top=0;left=0;bottom=0;right=0;align=left;spacingLeft=6;fontStyle=5;overflow=hidden;html=1;whiteSpace=wrap;" parent="ua7cu-9W5NlXZyTE7CpF-67" vertex="1">
          <mxGeometry x="60" width="120" height="30" as="geometry">
            <mxRectangle width="120" height="30" as="alternateBounds" />
          </mxGeometry>
        </mxCell>
        <mxCell id="ua7cu-9W5NlXZyTE7CpF-70" value="" style="shape=tableRow;horizontal=0;startSize=0;swimlaneHead=0;swimlaneBody=0;fillColor=none;collapsible=0;dropTarget=0;points=[[0,0.5],[1,0.5]];portConstraint=eastwest;top=0;left=0;right=0;bottom=1;html=1;" parent="ua7cu-9W5NlXZyTE7CpF-66" vertex="1">
          <mxGeometry y="60" width="180" height="30" as="geometry" />
        </mxCell>
        <mxCell id="ua7cu-9W5NlXZyTE7CpF-71" value="FK" style="shape=partialRectangle;connectable=0;fillColor=none;top=0;left=0;bottom=0;right=0;fontStyle=1;overflow=hidden;html=1;whiteSpace=wrap;" parent="ua7cu-9W5NlXZyTE7CpF-70" vertex="1">
          <mxGeometry width="60" height="30" as="geometry">
            <mxRectangle width="60" height="30" as="alternateBounds" />
          </mxGeometry>
        </mxCell>
        <mxCell id="ua7cu-9W5NlXZyTE7CpF-72" value="IdTipoDeUsuario" style="shape=partialRectangle;connectable=0;fillColor=none;top=0;left=0;bottom=0;right=0;align=left;spacingLeft=6;fontStyle=5;overflow=hidden;html=1;whiteSpace=wrap;" parent="ua7cu-9W5NlXZyTE7CpF-70" vertex="1">
          <mxGeometry x="60" width="120" height="30" as="geometry">
            <mxRectangle width="120" height="30" as="alternateBounds" />
          </mxGeometry>
        </mxCell>
        <mxCell id="ua7cu-9W5NlXZyTE7CpF-73" value="" style="shape=tableRow;horizontal=0;startSize=0;swimlaneHead=0;swimlaneBody=0;fillColor=none;collapsible=0;dropTarget=0;points=[[0,0.5],[1,0.5]];portConstraint=eastwest;top=0;left=0;right=0;bottom=0;html=1;" parent="ua7cu-9W5NlXZyTE7CpF-66" vertex="1">
          <mxGeometry y="90" width="180" height="30" as="geometry" />
        </mxCell>
        <mxCell id="ua7cu-9W5NlXZyTE7CpF-74" value="" style="shape=partialRectangle;connectable=0;fillColor=none;top=0;left=0;bottom=0;right=0;editable=1;overflow=hidden;html=1;whiteSpace=wrap;" parent="ua7cu-9W5NlXZyTE7CpF-73" vertex="1">
          <mxGeometry width="60" height="30" as="geometry">
            <mxRectangle width="60" height="30" as="alternateBounds" />
          </mxGeometry>
        </mxCell>
        <mxCell id="ua7cu-9W5NlXZyTE7CpF-75" value="NomeUsuario" style="shape=partialRectangle;connectable=0;fillColor=none;top=0;left=0;bottom=0;right=0;align=left;spacingLeft=6;overflow=hidden;html=1;whiteSpace=wrap;" parent="ua7cu-9W5NlXZyTE7CpF-73" vertex="1">
          <mxGeometry x="60" width="120" height="30" as="geometry">
            <mxRectangle width="120" height="30" as="alternateBounds" />
          </mxGeometry>
        </mxCell>
        <mxCell id="ua7cu-9W5NlXZyTE7CpF-76" value="" style="shape=tableRow;horizontal=0;startSize=0;swimlaneHead=0;swimlaneBody=0;fillColor=none;collapsible=0;dropTarget=0;points=[[0,0.5],[1,0.5]];portConstraint=eastwest;top=0;left=0;right=0;bottom=0;html=1;" parent="ua7cu-9W5NlXZyTE7CpF-66" vertex="1">
          <mxGeometry y="120" width="180" height="30" as="geometry" />
        </mxCell>
        <mxCell id="ua7cu-9W5NlXZyTE7CpF-77" value="" style="shape=partialRectangle;connectable=0;fillColor=none;top=0;left=0;bottom=0;right=0;editable=1;overflow=hidden;html=1;whiteSpace=wrap;" parent="ua7cu-9W5NlXZyTE7CpF-76" vertex="1">
          <mxGeometry width="60" height="30" as="geometry">
            <mxRectangle width="60" height="30" as="alternateBounds" />
          </mxGeometry>
        </mxCell>
        <mxCell id="ua7cu-9W5NlXZyTE7CpF-78" value="EmailUsuario" style="shape=partialRectangle;connectable=0;fillColor=none;top=0;left=0;bottom=0;right=0;align=left;spacingLeft=6;overflow=hidden;html=1;whiteSpace=wrap;" parent="ua7cu-9W5NlXZyTE7CpF-76" vertex="1">
          <mxGeometry x="60" width="120" height="30" as="geometry">
            <mxRectangle width="120" height="30" as="alternateBounds" />
          </mxGeometry>
        </mxCell>
        <mxCell id="ua7cu-9W5NlXZyTE7CpF-79" style="shape=tableRow;horizontal=0;startSize=0;swimlaneHead=0;swimlaneBody=0;fillColor=none;collapsible=0;dropTarget=0;points=[[0,0.5],[1,0.5]];portConstraint=eastwest;top=0;left=0;right=0;bottom=0;html=1;" parent="ua7cu-9W5NlXZyTE7CpF-66" vertex="1">
          <mxGeometry y="150" width="180" height="30" as="geometry" />
        </mxCell>
        <mxCell id="ua7cu-9W5NlXZyTE7CpF-80" style="shape=partialRectangle;connectable=0;fillColor=none;top=0;left=0;bottom=0;right=0;editable=1;overflow=hidden;html=1;whiteSpace=wrap;" parent="ua7cu-9W5NlXZyTE7CpF-79" vertex="1">
          <mxGeometry width="60" height="30" as="geometry">
            <mxRectangle width="60" height="30" as="alternateBounds" />
          </mxGeometry>
        </mxCell>
        <mxCell id="ua7cu-9W5NlXZyTE7CpF-81" value="SenhaUsuario" style="shape=partialRectangle;connectable=0;fillColor=none;top=0;left=0;bottom=0;right=0;align=left;spacingLeft=6;overflow=hidden;html=1;whiteSpace=wrap;" parent="ua7cu-9W5NlXZyTE7CpF-79" vertex="1">
          <mxGeometry x="60" width="120" height="30" as="geometry">
            <mxRectangle width="120" height="30" as="alternateBounds" />
          </mxGeometry>
        </mxCell>
        <mxCell id="ua7cu-9W5NlXZyTE7CpF-82" style="shape=tableRow;horizontal=0;startSize=0;swimlaneHead=0;swimlaneBody=0;fillColor=none;collapsible=0;dropTarget=0;points=[[0,0.5],[1,0.5]];portConstraint=eastwest;top=0;left=0;right=0;bottom=0;html=1;" parent="ua7cu-9W5NlXZyTE7CpF-66" vertex="1">
          <mxGeometry y="180" width="180" height="30" as="geometry" />
        </mxCell>
        <mxCell id="ua7cu-9W5NlXZyTE7CpF-83" style="shape=partialRectangle;connectable=0;fillColor=none;top=0;left=0;bottom=0;right=0;editable=1;overflow=hidden;html=1;whiteSpace=wrap;" parent="ua7cu-9W5NlXZyTE7CpF-82" vertex="1">
          <mxGeometry width="60" height="30" as="geometry">
            <mxRectangle width="60" height="30" as="alternateBounds" />
          </mxGeometry>
        </mxCell>
        <mxCell id="ua7cu-9W5NlXZyTE7CpF-84" value="TelefoneUsuario" style="shape=partialRectangle;connectable=0;fillColor=none;top=0;left=0;bottom=0;right=0;align=left;spacingLeft=6;overflow=hidden;html=1;whiteSpace=wrap;" parent="ua7cu-9W5NlXZyTE7CpF-82" vertex="1">
          <mxGeometry x="60" width="120" height="30" as="geometry">
            <mxRectangle width="120" height="30" as="alternateBounds" />
          </mxGeometry>
        </mxCell>
        <mxCell id="VBEFxqQk6eswnQMx3JTb-37" style="shape=tableRow;horizontal=0;startSize=0;swimlaneHead=0;swimlaneBody=0;fillColor=none;collapsible=0;dropTarget=0;points=[[0,0.5],[1,0.5]];portConstraint=eastwest;top=0;left=0;right=0;bottom=0;html=1;" parent="ua7cu-9W5NlXZyTE7CpF-66" vertex="1">
          <mxGeometry y="210" width="180" height="30" as="geometry" />
        </mxCell>
        <mxCell id="VBEFxqQk6eswnQMx3JTb-38" style="shape=partialRectangle;connectable=0;fillColor=none;top=0;left=0;bottom=0;right=0;editable=1;overflow=hidden;html=1;whiteSpace=wrap;" parent="VBEFxqQk6eswnQMx3JTb-37" vertex="1">
          <mxGeometry width="60" height="30" as="geometry">
            <mxRectangle width="60" height="30" as="alternateBounds" />
          </mxGeometry>
        </mxCell>
        <mxCell id="VBEFxqQk6eswnQMx3JTb-39" value="DataNascUsuario" style="shape=partialRectangle;connectable=0;fillColor=none;top=0;left=0;bottom=0;right=0;align=left;spacingLeft=6;overflow=hidden;html=1;whiteSpace=wrap;" parent="VBEFxqQk6eswnQMx3JTb-37" vertex="1">
          <mxGeometry x="60" width="120" height="30" as="geometry">
            <mxRectangle width="120" height="30" as="alternateBounds" />
          </mxGeometry>
        </mxCell>
        <mxCell id="ua7cu-9W5NlXZyTE7CpF-85" value="Especialidade" style="shape=table;startSize=30;container=1;collapsible=1;childLayout=tableLayout;fixedRows=1;rowLines=0;fontStyle=1;align=center;resizeLast=1;html=1;" parent="1" vertex="1">
          <mxGeometry x="790" y="1120" width="180" height="90" as="geometry" />
        </mxCell>
        <mxCell id="ua7cu-9W5NlXZyTE7CpF-86" value="" style="shape=tableRow;horizontal=0;startSize=0;swimlaneHead=0;swimlaneBody=0;fillColor=none;collapsible=0;dropTarget=0;points=[[0,0.5],[1,0.5]];portConstraint=eastwest;top=0;left=0;right=0;bottom=1;" parent="ua7cu-9W5NlXZyTE7CpF-85" vertex="1">
          <mxGeometry y="30" width="180" height="30" as="geometry" />
        </mxCell>
        <mxCell id="ua7cu-9W5NlXZyTE7CpF-87" value="PK" style="shape=partialRectangle;connectable=0;fillColor=none;top=0;left=0;bottom=0;right=0;fontStyle=1;overflow=hidden;whiteSpace=wrap;html=1;" parent="ua7cu-9W5NlXZyTE7CpF-86" vertex="1">
          <mxGeometry width="30" height="30" as="geometry">
            <mxRectangle width="30" height="30" as="alternateBounds" />
          </mxGeometry>
        </mxCell>
        <mxCell id="ua7cu-9W5NlXZyTE7CpF-88" value="IdEspecialidade" style="shape=partialRectangle;connectable=0;fillColor=none;top=0;left=0;bottom=0;right=0;align=left;spacingLeft=6;fontStyle=5;overflow=hidden;whiteSpace=wrap;html=1;" parent="ua7cu-9W5NlXZyTE7CpF-86" vertex="1">
          <mxGeometry x="30" width="150" height="30" as="geometry">
            <mxRectangle width="150" height="30" as="alternateBounds" />
          </mxGeometry>
        </mxCell>
        <mxCell id="ua7cu-9W5NlXZyTE7CpF-89" value="" style="shape=tableRow;horizontal=0;startSize=0;swimlaneHead=0;swimlaneBody=0;fillColor=none;collapsible=0;dropTarget=0;points=[[0,0.5],[1,0.5]];portConstraint=eastwest;top=0;left=0;right=0;bottom=0;" parent="ua7cu-9W5NlXZyTE7CpF-85" vertex="1">
          <mxGeometry y="60" width="180" height="30" as="geometry" />
        </mxCell>
        <mxCell id="ua7cu-9W5NlXZyTE7CpF-90" value="" style="shape=partialRectangle;connectable=0;fillColor=none;top=0;left=0;bottom=0;right=0;editable=1;overflow=hidden;whiteSpace=wrap;html=1;" parent="ua7cu-9W5NlXZyTE7CpF-89" vertex="1">
          <mxGeometry width="30" height="30" as="geometry">
            <mxRectangle width="30" height="30" as="alternateBounds" />
          </mxGeometry>
        </mxCell>
        <mxCell id="ua7cu-9W5NlXZyTE7CpF-91" value="TituloEspecialidade" style="shape=partialRectangle;connectable=0;fillColor=none;top=0;left=0;bottom=0;right=0;align=left;spacingLeft=6;overflow=hidden;whiteSpace=wrap;html=1;" parent="ua7cu-9W5NlXZyTE7CpF-89" vertex="1">
          <mxGeometry x="30" width="150" height="30" as="geometry">
            <mxRectangle width="150" height="30" as="alternateBounds" />
          </mxGeometry>
        </mxCell>
        <mxCell id="ua7cu-9W5NlXZyTE7CpF-112" style="edgeStyle=orthogonalEdgeStyle;rounded=0;orthogonalLoop=1;jettySize=auto;html=1;exitX=0.5;exitY=1;exitDx=0;exitDy=0;entryX=0.5;entryY=0;entryDx=0;entryDy=0;endArrow=none;endFill=0;" parent="1" source="ua7cu-9W5NlXZyTE7CpF-111" target="ua7cu-9W5NlXZyTE7CpF-17" edge="1">
          <mxGeometry relative="1" as="geometry" />
        </mxCell>
        <mxCell id="ua7cu-9W5NlXZyTE7CpF-111" value="Clínica" style="rounded=0;whiteSpace=wrap;html=1;" parent="1" vertex="1">
          <mxGeometry x="-100" y="830" width="120" height="60" as="geometry" />
        </mxCell>
        <mxCell id="ua7cu-9W5NlXZyTE7CpF-116" value="Paciente" style="shape=table;startSize=30;container=1;collapsible=1;childLayout=tableLayout;fixedRows=1;rowLines=0;fontStyle=1;align=center;resizeLast=1;html=1;whiteSpace=wrap;" parent="1" vertex="1">
          <mxGeometry x="1030" y="780" width="180" height="210" as="geometry" />
        </mxCell>
        <mxCell id="ua7cu-9W5NlXZyTE7CpF-117" value="" style="shape=tableRow;horizontal=0;startSize=0;swimlaneHead=0;swimlaneBody=0;fillColor=none;collapsible=0;dropTarget=0;points=[[0,0.5],[1,0.5]];portConstraint=eastwest;top=0;left=0;right=0;bottom=0;html=1;" parent="ua7cu-9W5NlXZyTE7CpF-116" vertex="1">
          <mxGeometry y="30" width="180" height="30" as="geometry" />
        </mxCell>
        <mxCell id="ua7cu-9W5NlXZyTE7CpF-118" value="PK" style="shape=partialRectangle;connectable=0;fillColor=none;top=0;left=0;bottom=0;right=0;fontStyle=1;overflow=hidden;html=1;whiteSpace=wrap;" parent="ua7cu-9W5NlXZyTE7CpF-117" vertex="1">
          <mxGeometry width="60" height="30" as="geometry">
            <mxRectangle width="60" height="30" as="alternateBounds" />
          </mxGeometry>
        </mxCell>
        <mxCell id="ua7cu-9W5NlXZyTE7CpF-119" value="IdPaciente" style="shape=partialRectangle;connectable=0;fillColor=none;top=0;left=0;bottom=0;right=0;align=left;spacingLeft=6;fontStyle=5;overflow=hidden;html=1;whiteSpace=wrap;" parent="ua7cu-9W5NlXZyTE7CpF-117" vertex="1">
          <mxGeometry x="60" width="120" height="30" as="geometry">
            <mxRectangle width="120" height="30" as="alternateBounds" />
          </mxGeometry>
        </mxCell>
        <mxCell id="ua7cu-9W5NlXZyTE7CpF-120" value="" style="shape=tableRow;horizontal=0;startSize=0;swimlaneHead=0;swimlaneBody=0;fillColor=none;collapsible=0;dropTarget=0;points=[[0,0.5],[1,0.5]];portConstraint=eastwest;top=0;left=0;right=0;bottom=1;html=1;" parent="ua7cu-9W5NlXZyTE7CpF-116" vertex="1">
          <mxGeometry y="60" width="180" height="30" as="geometry" />
        </mxCell>
        <mxCell id="ua7cu-9W5NlXZyTE7CpF-121" value="FK" style="shape=partialRectangle;connectable=0;fillColor=none;top=0;left=0;bottom=0;right=0;fontStyle=1;overflow=hidden;html=1;whiteSpace=wrap;" parent="ua7cu-9W5NlXZyTE7CpF-120" vertex="1">
          <mxGeometry width="60" height="30" as="geometry">
            <mxRectangle width="60" height="30" as="alternateBounds" />
          </mxGeometry>
        </mxCell>
        <mxCell id="ua7cu-9W5NlXZyTE7CpF-122" value="IdUsuario" style="shape=partialRectangle;connectable=0;fillColor=none;top=0;left=0;bottom=0;right=0;align=left;spacingLeft=6;fontStyle=5;overflow=hidden;html=1;whiteSpace=wrap;" parent="ua7cu-9W5NlXZyTE7CpF-120" vertex="1">
          <mxGeometry x="60" width="120" height="30" as="geometry">
            <mxRectangle width="120" height="30" as="alternateBounds" />
          </mxGeometry>
        </mxCell>
        <mxCell id="ua7cu-9W5NlXZyTE7CpF-123" value="" style="shape=tableRow;horizontal=0;startSize=0;swimlaneHead=0;swimlaneBody=0;fillColor=none;collapsible=0;dropTarget=0;points=[[0,0.5],[1,0.5]];portConstraint=eastwest;top=0;left=0;right=0;bottom=0;html=1;" parent="ua7cu-9W5NlXZyTE7CpF-116" vertex="1">
          <mxGeometry y="90" width="180" height="30" as="geometry" />
        </mxCell>
        <mxCell id="ua7cu-9W5NlXZyTE7CpF-124" value="" style="shape=partialRectangle;connectable=0;fillColor=none;top=0;left=0;bottom=0;right=0;editable=1;overflow=hidden;html=1;whiteSpace=wrap;" parent="ua7cu-9W5NlXZyTE7CpF-123" vertex="1">
          <mxGeometry width="60" height="30" as="geometry">
            <mxRectangle width="60" height="30" as="alternateBounds" />
          </mxGeometry>
        </mxCell>
        <mxCell id="ua7cu-9W5NlXZyTE7CpF-125" value="CPFPaciente" style="shape=partialRectangle;connectable=0;fillColor=none;top=0;left=0;bottom=0;right=0;align=left;spacingLeft=6;overflow=hidden;html=1;whiteSpace=wrap;" parent="ua7cu-9W5NlXZyTE7CpF-123" vertex="1">
          <mxGeometry x="60" width="120" height="30" as="geometry">
            <mxRectangle width="120" height="30" as="alternateBounds" />
          </mxGeometry>
        </mxCell>
        <mxCell id="ua7cu-9W5NlXZyTE7CpF-126" value="" style="shape=tableRow;horizontal=0;startSize=0;swimlaneHead=0;swimlaneBody=0;fillColor=none;collapsible=0;dropTarget=0;points=[[0,0.5],[1,0.5]];portConstraint=eastwest;top=0;left=0;right=0;bottom=0;html=1;" parent="ua7cu-9W5NlXZyTE7CpF-116" vertex="1">
          <mxGeometry y="120" width="180" height="30" as="geometry" />
        </mxCell>
        <mxCell id="ua7cu-9W5NlXZyTE7CpF-127" value="" style="shape=partialRectangle;connectable=0;fillColor=none;top=0;left=0;bottom=0;right=0;editable=1;overflow=hidden;html=1;whiteSpace=wrap;" parent="ua7cu-9W5NlXZyTE7CpF-126" vertex="1">
          <mxGeometry width="60" height="30" as="geometry">
            <mxRectangle width="60" height="30" as="alternateBounds" />
          </mxGeometry>
        </mxCell>
        <mxCell id="ua7cu-9W5NlXZyTE7CpF-128" value="CEPPaciente" style="shape=partialRectangle;connectable=0;fillColor=none;top=0;left=0;bottom=0;right=0;align=left;spacingLeft=6;overflow=hidden;html=1;whiteSpace=wrap;" parent="ua7cu-9W5NlXZyTE7CpF-126" vertex="1">
          <mxGeometry x="60" width="120" height="30" as="geometry">
            <mxRectangle width="120" height="30" as="alternateBounds" />
          </mxGeometry>
        </mxCell>
        <mxCell id="ua7cu-9W5NlXZyTE7CpF-129" style="shape=tableRow;horizontal=0;startSize=0;swimlaneHead=0;swimlaneBody=0;fillColor=none;collapsible=0;dropTarget=0;points=[[0,0.5],[1,0.5]];portConstraint=eastwest;top=0;left=0;right=0;bottom=0;html=1;" parent="ua7cu-9W5NlXZyTE7CpF-116" vertex="1">
          <mxGeometry y="150" width="180" height="30" as="geometry" />
        </mxCell>
        <mxCell id="ua7cu-9W5NlXZyTE7CpF-130" style="shape=partialRectangle;connectable=0;fillColor=none;top=0;left=0;bottom=0;right=0;editable=1;overflow=hidden;html=1;whiteSpace=wrap;" parent="ua7cu-9W5NlXZyTE7CpF-129" vertex="1">
          <mxGeometry width="60" height="30" as="geometry">
            <mxRectangle width="60" height="30" as="alternateBounds" />
          </mxGeometry>
        </mxCell>
        <mxCell id="ua7cu-9W5NlXZyTE7CpF-131" value="EnderecoPaciente" style="shape=partialRectangle;connectable=0;fillColor=none;top=0;left=0;bottom=0;right=0;align=left;spacingLeft=6;overflow=hidden;html=1;whiteSpace=wrap;" parent="ua7cu-9W5NlXZyTE7CpF-129" vertex="1">
          <mxGeometry x="60" width="120" height="30" as="geometry">
            <mxRectangle width="120" height="30" as="alternateBounds" />
          </mxGeometry>
        </mxCell>
        <mxCell id="nXurytttRkvUcaXIfCZg-4" style="shape=tableRow;horizontal=0;startSize=0;swimlaneHead=0;swimlaneBody=0;fillColor=none;collapsible=0;dropTarget=0;points=[[0,0.5],[1,0.5]];portConstraint=eastwest;top=0;left=0;right=0;bottom=0;html=1;" parent="ua7cu-9W5NlXZyTE7CpF-116" vertex="1">
          <mxGeometry y="180" width="180" height="30" as="geometry" />
        </mxCell>
        <mxCell id="nXurytttRkvUcaXIfCZg-5" style="shape=partialRectangle;connectable=0;fillColor=none;top=0;left=0;bottom=0;right=0;editable=1;overflow=hidden;html=1;whiteSpace=wrap;" parent="nXurytttRkvUcaXIfCZg-4" vertex="1">
          <mxGeometry width="60" height="30" as="geometry">
            <mxRectangle width="60" height="30" as="alternateBounds" />
          </mxGeometry>
        </mxCell>
        <mxCell id="nXurytttRkvUcaXIfCZg-6" value="RG" style="shape=partialRectangle;connectable=0;fillColor=none;top=0;left=0;bottom=0;right=0;align=left;spacingLeft=6;overflow=hidden;html=1;whiteSpace=wrap;" parent="nXurytttRkvUcaXIfCZg-4" vertex="1">
          <mxGeometry x="60" width="120" height="30" as="geometry">
            <mxRectangle width="120" height="30" as="alternateBounds" />
          </mxGeometry>
        </mxCell>
        <mxCell id="ua7cu-9W5NlXZyTE7CpF-138" value="Médico" style="shape=table;startSize=30;container=1;collapsible=1;childLayout=tableLayout;fixedRows=1;rowLines=0;fontStyle=1;align=center;resizeLast=1;html=1;whiteSpace=wrap;" parent="1" vertex="1">
          <mxGeometry x="1050" y="1020" width="180" height="180" as="geometry" />
        </mxCell>
        <mxCell id="ua7cu-9W5NlXZyTE7CpF-215" style="shape=tableRow;horizontal=0;startSize=0;swimlaneHead=0;swimlaneBody=0;fillColor=none;collapsible=0;dropTarget=0;points=[[0,0.5],[1,0.5]];portConstraint=eastwest;top=0;left=0;right=0;bottom=0;html=1;" parent="ua7cu-9W5NlXZyTE7CpF-138" vertex="1">
          <mxGeometry y="30" width="180" height="30" as="geometry" />
        </mxCell>
        <mxCell id="ua7cu-9W5NlXZyTE7CpF-216" value="PK" style="shape=partialRectangle;connectable=0;fillColor=none;top=0;left=0;bottom=0;right=0;fontStyle=1;overflow=hidden;html=1;whiteSpace=wrap;" parent="ua7cu-9W5NlXZyTE7CpF-215" vertex="1">
          <mxGeometry width="60" height="30" as="geometry">
            <mxRectangle width="60" height="30" as="alternateBounds" />
          </mxGeometry>
        </mxCell>
        <mxCell id="ua7cu-9W5NlXZyTE7CpF-217" value="IdMédico" style="shape=partialRectangle;connectable=0;fillColor=none;top=0;left=0;bottom=0;right=0;align=left;spacingLeft=6;fontStyle=5;overflow=hidden;html=1;whiteSpace=wrap;" parent="ua7cu-9W5NlXZyTE7CpF-215" vertex="1">
          <mxGeometry x="60" width="120" height="30" as="geometry">
            <mxRectangle width="120" height="30" as="alternateBounds" />
          </mxGeometry>
        </mxCell>
        <mxCell id="ua7cu-9W5NlXZyTE7CpF-139" value="" style="shape=tableRow;horizontal=0;startSize=0;swimlaneHead=0;swimlaneBody=0;fillColor=none;collapsible=0;dropTarget=0;points=[[0,0.5],[1,0.5]];portConstraint=eastwest;top=0;left=0;right=0;bottom=0;html=1;" parent="ua7cu-9W5NlXZyTE7CpF-138" vertex="1">
          <mxGeometry y="60" width="180" height="30" as="geometry" />
        </mxCell>
        <mxCell id="ua7cu-9W5NlXZyTE7CpF-140" value="FK1" style="shape=partialRectangle;connectable=0;fillColor=none;top=0;left=0;bottom=0;right=0;fontStyle=1;overflow=hidden;html=1;whiteSpace=wrap;" parent="ua7cu-9W5NlXZyTE7CpF-139" vertex="1">
          <mxGeometry width="60" height="30" as="geometry">
            <mxRectangle width="60" height="30" as="alternateBounds" />
          </mxGeometry>
        </mxCell>
        <mxCell id="ua7cu-9W5NlXZyTE7CpF-141" value="IdUsuario" style="shape=partialRectangle;connectable=0;fillColor=none;top=0;left=0;bottom=0;right=0;align=left;spacingLeft=6;fontStyle=5;overflow=hidden;html=1;whiteSpace=wrap;" parent="ua7cu-9W5NlXZyTE7CpF-139" vertex="1">
          <mxGeometry x="60" width="120" height="30" as="geometry">
            <mxRectangle width="120" height="30" as="alternateBounds" />
          </mxGeometry>
        </mxCell>
        <mxCell id="ua7cu-9W5NlXZyTE7CpF-142" value="" style="shape=tableRow;horizontal=0;startSize=0;swimlaneHead=0;swimlaneBody=0;fillColor=none;collapsible=0;dropTarget=0;points=[[0,0.5],[1,0.5]];portConstraint=eastwest;top=0;left=0;right=0;bottom=1;html=1;" parent="ua7cu-9W5NlXZyTE7CpF-138" vertex="1">
          <mxGeometry y="90" width="180" height="30" as="geometry" />
        </mxCell>
        <mxCell id="ua7cu-9W5NlXZyTE7CpF-143" value="FK2" style="shape=partialRectangle;connectable=0;fillColor=none;top=0;left=0;bottom=0;right=0;fontStyle=1;overflow=hidden;html=1;whiteSpace=wrap;" parent="ua7cu-9W5NlXZyTE7CpF-142" vertex="1">
          <mxGeometry width="60" height="30" as="geometry">
            <mxRectangle width="60" height="30" as="alternateBounds" />
          </mxGeometry>
        </mxCell>
        <mxCell id="ua7cu-9W5NlXZyTE7CpF-144" value="IdEspecialidade" style="shape=partialRectangle;connectable=0;fillColor=none;top=0;left=0;bottom=0;right=0;align=left;spacingLeft=6;fontStyle=5;overflow=hidden;html=1;whiteSpace=wrap;" parent="ua7cu-9W5NlXZyTE7CpF-142" vertex="1">
          <mxGeometry x="60" width="120" height="30" as="geometry">
            <mxRectangle width="120" height="30" as="alternateBounds" />
          </mxGeometry>
        </mxCell>
        <mxCell id="ua7cu-9W5NlXZyTE7CpF-145" value="" style="shape=tableRow;horizontal=0;startSize=0;swimlaneHead=0;swimlaneBody=0;fillColor=none;collapsible=0;dropTarget=0;points=[[0,0.5],[1,0.5]];portConstraint=eastwest;top=0;left=0;right=0;bottom=0;html=1;" parent="ua7cu-9W5NlXZyTE7CpF-138" vertex="1">
          <mxGeometry y="120" width="180" height="30" as="geometry" />
        </mxCell>
        <mxCell id="ua7cu-9W5NlXZyTE7CpF-146" value="" style="shape=partialRectangle;connectable=0;fillColor=none;top=0;left=0;bottom=0;right=0;editable=1;overflow=hidden;html=1;whiteSpace=wrap;" parent="ua7cu-9W5NlXZyTE7CpF-145" vertex="1">
          <mxGeometry width="60" height="30" as="geometry">
            <mxRectangle width="60" height="30" as="alternateBounds" />
          </mxGeometry>
        </mxCell>
        <mxCell id="ua7cu-9W5NlXZyTE7CpF-147" value="CRM" style="shape=partialRectangle;connectable=0;fillColor=none;top=0;left=0;bottom=0;right=0;align=left;spacingLeft=6;overflow=hidden;html=1;whiteSpace=wrap;" parent="ua7cu-9W5NlXZyTE7CpF-145" vertex="1">
          <mxGeometry x="60" width="120" height="30" as="geometry">
            <mxRectangle width="120" height="30" as="alternateBounds" />
          </mxGeometry>
        </mxCell>
        <mxCell id="nXurytttRkvUcaXIfCZg-7" style="shape=tableRow;horizontal=0;startSize=0;swimlaneHead=0;swimlaneBody=0;fillColor=none;collapsible=0;dropTarget=0;points=[[0,0.5],[1,0.5]];portConstraint=eastwest;top=0;left=0;right=0;bottom=0;html=1;" parent="ua7cu-9W5NlXZyTE7CpF-138" vertex="1">
          <mxGeometry y="150" width="180" height="30" as="geometry" />
        </mxCell>
        <mxCell id="nXurytttRkvUcaXIfCZg-8" style="shape=partialRectangle;connectable=0;fillColor=none;top=0;left=0;bottom=0;right=0;editable=1;overflow=hidden;html=1;whiteSpace=wrap;" parent="nXurytttRkvUcaXIfCZg-7" vertex="1">
          <mxGeometry width="60" height="30" as="geometry">
            <mxRectangle width="60" height="30" as="alternateBounds" />
          </mxGeometry>
        </mxCell>
        <mxCell id="nXurytttRkvUcaXIfCZg-9" value="Estado" style="shape=partialRectangle;connectable=0;fillColor=none;top=0;left=0;bottom=0;right=0;align=left;spacingLeft=6;overflow=hidden;html=1;whiteSpace=wrap;" parent="nXurytttRkvUcaXIfCZg-7" vertex="1">
          <mxGeometry x="60" width="120" height="30" as="geometry">
            <mxRectangle width="120" height="30" as="alternateBounds" />
          </mxGeometry>
        </mxCell>
        <mxCell id="ua7cu-9W5NlXZyTE7CpF-152" style="edgeStyle=orthogonalEdgeStyle;rounded=0;orthogonalLoop=1;jettySize=auto;html=1;exitX=0;exitY=0.5;exitDx=0;exitDy=0;entryX=0.5;entryY=1;entryDx=0;entryDy=0;endArrow=none;endFill=0;" parent="1" source="ua7cu-9W5NlXZyTE7CpF-151" target="ua7cu-9W5NlXZyTE7CpF-21" edge="1">
          <mxGeometry relative="1" as="geometry" />
        </mxCell>
        <mxCell id="ua7cu-9W5NlXZyTE7CpF-151" value="Situacao" style="rounded=0;whiteSpace=wrap;html=1;" parent="1" vertex="1">
          <mxGeometry x="70" y="1270" width="120" height="60" as="geometry" />
        </mxCell>
        <mxCell id="ua7cu-9W5NlXZyTE7CpF-153" value="N" style="text;html=1;align=center;verticalAlign=middle;resizable=0;points=[];autosize=1;strokeColor=none;fillColor=none;" parent="1" vertex="1">
          <mxGeometry x="-40" y="1130" width="30" height="30" as="geometry" />
        </mxCell>
        <mxCell id="ua7cu-9W5NlXZyTE7CpF-154" value="1" style="text;html=1;align=center;verticalAlign=middle;resizable=0;points=[];autosize=1;strokeColor=none;fillColor=none;" parent="1" vertex="1">
          <mxGeometry x="40" y="1270" width="30" height="30" as="geometry" />
        </mxCell>
        <mxCell id="ua7cu-9W5NlXZyTE7CpF-155" value="Situacao" style="shape=table;startSize=20;container=1;collapsible=1;childLayout=tableLayout;fixedRows=1;rowLines=0;fontStyle=1;align=center;resizeLast=1;html=1;" parent="1" vertex="1">
          <mxGeometry x="1740" y="910" width="180" height="80" as="geometry" />
        </mxCell>
        <mxCell id="ua7cu-9W5NlXZyTE7CpF-156" value="" style="shape=tableRow;horizontal=0;startSize=0;swimlaneHead=0;swimlaneBody=0;fillColor=none;collapsible=0;dropTarget=0;points=[[0,0.5],[1,0.5]];portConstraint=eastwest;top=0;left=0;right=0;bottom=1;" parent="ua7cu-9W5NlXZyTE7CpF-155" vertex="1">
          <mxGeometry y="20" width="180" height="30" as="geometry" />
        </mxCell>
        <mxCell id="ua7cu-9W5NlXZyTE7CpF-157" value="PK" style="shape=partialRectangle;connectable=0;fillColor=none;top=0;left=0;bottom=0;right=0;fontStyle=1;overflow=hidden;whiteSpace=wrap;html=1;" parent="ua7cu-9W5NlXZyTE7CpF-156" vertex="1">
          <mxGeometry width="30" height="30" as="geometry">
            <mxRectangle width="30" height="30" as="alternateBounds" />
          </mxGeometry>
        </mxCell>
        <mxCell id="ua7cu-9W5NlXZyTE7CpF-158" value="IdSituacao" style="shape=partialRectangle;connectable=0;fillColor=none;top=0;left=0;bottom=0;right=0;align=left;spacingLeft=6;fontStyle=5;overflow=hidden;whiteSpace=wrap;html=1;" parent="ua7cu-9W5NlXZyTE7CpF-156" vertex="1">
          <mxGeometry x="30" width="150" height="30" as="geometry">
            <mxRectangle width="150" height="30" as="alternateBounds" />
          </mxGeometry>
        </mxCell>
        <mxCell id="ua7cu-9W5NlXZyTE7CpF-159" value="" style="shape=tableRow;horizontal=0;startSize=0;swimlaneHead=0;swimlaneBody=0;fillColor=none;collapsible=0;dropTarget=0;points=[[0,0.5],[1,0.5]];portConstraint=eastwest;top=0;left=0;right=0;bottom=0;" parent="ua7cu-9W5NlXZyTE7CpF-155" vertex="1">
          <mxGeometry y="50" width="180" height="30" as="geometry" />
        </mxCell>
        <mxCell id="ua7cu-9W5NlXZyTE7CpF-160" value="" style="shape=partialRectangle;connectable=0;fillColor=none;top=0;left=0;bottom=0;right=0;editable=1;overflow=hidden;whiteSpace=wrap;html=1;" parent="ua7cu-9W5NlXZyTE7CpF-159" vertex="1">
          <mxGeometry width="30" height="30" as="geometry">
            <mxRectangle width="30" height="30" as="alternateBounds" />
          </mxGeometry>
        </mxCell>
        <mxCell id="ua7cu-9W5NlXZyTE7CpF-161" value="TituloSituacao" style="shape=partialRectangle;connectable=0;fillColor=none;top=0;left=0;bottom=0;right=0;align=left;spacingLeft=6;overflow=hidden;whiteSpace=wrap;html=1;" parent="ua7cu-9W5NlXZyTE7CpF-159" vertex="1">
          <mxGeometry x="30" width="150" height="30" as="geometry">
            <mxRectangle width="150" height="30" as="alternateBounds" />
          </mxGeometry>
        </mxCell>
        <mxCell id="ua7cu-9W5NlXZyTE7CpF-168" value="Consulta" style="shape=table;startSize=30;container=1;collapsible=1;childLayout=tableLayout;fixedRows=1;rowLines=0;fontStyle=1;align=center;resizeLast=1;html=1;whiteSpace=wrap;" parent="1" vertex="1">
          <mxGeometry x="1500" y="870" width="180" height="300" as="geometry" />
        </mxCell>
        <mxCell id="ua7cu-9W5NlXZyTE7CpF-191" style="shape=tableRow;horizontal=0;startSize=0;swimlaneHead=0;swimlaneBody=0;fillColor=none;collapsible=0;dropTarget=0;points=[[0,0.5],[1,0.5]];portConstraint=eastwest;top=0;left=0;right=0;bottom=0;html=1;" parent="ua7cu-9W5NlXZyTE7CpF-168" vertex="1">
          <mxGeometry y="30" width="180" height="30" as="geometry" />
        </mxCell>
        <mxCell id="ua7cu-9W5NlXZyTE7CpF-192" value="PK" style="shape=partialRectangle;connectable=0;fillColor=none;top=0;left=0;bottom=0;right=0;fontStyle=1;overflow=hidden;html=1;whiteSpace=wrap;" parent="ua7cu-9W5NlXZyTE7CpF-191" vertex="1">
          <mxGeometry width="60" height="30" as="geometry">
            <mxRectangle width="60" height="30" as="alternateBounds" />
          </mxGeometry>
        </mxCell>
        <mxCell id="ua7cu-9W5NlXZyTE7CpF-193" value="IdConsulta" style="shape=partialRectangle;connectable=0;fillColor=none;top=0;left=0;bottom=0;right=0;align=left;spacingLeft=6;fontStyle=5;overflow=hidden;html=1;whiteSpace=wrap;" parent="ua7cu-9W5NlXZyTE7CpF-191" vertex="1">
          <mxGeometry x="60" width="120" height="30" as="geometry">
            <mxRectangle width="120" height="30" as="alternateBounds" />
          </mxGeometry>
        </mxCell>
        <mxCell id="ua7cu-9W5NlXZyTE7CpF-187" style="shape=tableRow;horizontal=0;startSize=0;swimlaneHead=0;swimlaneBody=0;fillColor=none;collapsible=0;dropTarget=0;points=[[0,0.5],[1,0.5]];portConstraint=eastwest;top=0;left=0;right=0;bottom=0;html=1;" parent="ua7cu-9W5NlXZyTE7CpF-168" vertex="1">
          <mxGeometry y="60" width="180" height="30" as="geometry" />
        </mxCell>
        <mxCell id="ua7cu-9W5NlXZyTE7CpF-188" value="FK1" style="shape=partialRectangle;connectable=0;fillColor=none;top=0;left=0;bottom=0;right=0;fontStyle=1;overflow=hidden;html=1;whiteSpace=wrap;" parent="ua7cu-9W5NlXZyTE7CpF-187" vertex="1">
          <mxGeometry width="60" height="30" as="geometry">
            <mxRectangle width="60" height="30" as="alternateBounds" />
          </mxGeometry>
        </mxCell>
        <mxCell id="ua7cu-9W5NlXZyTE7CpF-189" value="IdSituacao" style="shape=partialRectangle;connectable=0;fillColor=none;top=0;left=0;bottom=0;right=0;align=left;spacingLeft=6;fontStyle=5;overflow=hidden;html=1;whiteSpace=wrap;" parent="ua7cu-9W5NlXZyTE7CpF-187" vertex="1">
          <mxGeometry x="60" width="120" height="30" as="geometry">
            <mxRectangle width="120" height="30" as="alternateBounds" />
          </mxGeometry>
        </mxCell>
        <mxCell id="ua7cu-9W5NlXZyTE7CpF-184" style="shape=tableRow;horizontal=0;startSize=0;swimlaneHead=0;swimlaneBody=0;fillColor=none;collapsible=0;dropTarget=0;points=[[0,0.5],[1,0.5]];portConstraint=eastwest;top=0;left=0;right=0;bottom=0;html=1;" parent="ua7cu-9W5NlXZyTE7CpF-168" vertex="1">
          <mxGeometry y="90" width="180" height="30" as="geometry" />
        </mxCell>
        <mxCell id="ua7cu-9W5NlXZyTE7CpF-185" value="FK2" style="shape=partialRectangle;connectable=0;fillColor=none;top=0;left=0;bottom=0;right=0;fontStyle=1;overflow=hidden;html=1;whiteSpace=wrap;" parent="ua7cu-9W5NlXZyTE7CpF-184" vertex="1">
          <mxGeometry width="60" height="30" as="geometry">
            <mxRectangle width="60" height="30" as="alternateBounds" />
          </mxGeometry>
        </mxCell>
        <mxCell id="ua7cu-9W5NlXZyTE7CpF-186" value="IdClinica" style="shape=partialRectangle;connectable=0;fillColor=none;top=0;left=0;bottom=0;right=0;align=left;spacingLeft=6;fontStyle=5;overflow=hidden;html=1;whiteSpace=wrap;" parent="ua7cu-9W5NlXZyTE7CpF-184" vertex="1">
          <mxGeometry x="60" width="120" height="30" as="geometry">
            <mxRectangle width="120" height="30" as="alternateBounds" />
          </mxGeometry>
        </mxCell>
        <mxCell id="ua7cu-9W5NlXZyTE7CpF-181" style="shape=tableRow;horizontal=0;startSize=0;swimlaneHead=0;swimlaneBody=0;fillColor=none;collapsible=0;dropTarget=0;points=[[0,0.5],[1,0.5]];portConstraint=eastwest;top=0;left=0;right=0;bottom=0;html=1;" parent="ua7cu-9W5NlXZyTE7CpF-168" vertex="1">
          <mxGeometry y="120" width="180" height="30" as="geometry" />
        </mxCell>
        <mxCell id="ua7cu-9W5NlXZyTE7CpF-182" value="FK3" style="shape=partialRectangle;connectable=0;fillColor=none;top=0;left=0;bottom=0;right=0;fontStyle=1;overflow=hidden;html=1;whiteSpace=wrap;" parent="ua7cu-9W5NlXZyTE7CpF-181" vertex="1">
          <mxGeometry width="60" height="30" as="geometry">
            <mxRectangle width="60" height="30" as="alternateBounds" />
          </mxGeometry>
        </mxCell>
        <mxCell id="ua7cu-9W5NlXZyTE7CpF-183" value="IdPaciente" style="shape=partialRectangle;connectable=0;fillColor=none;top=0;left=0;bottom=0;right=0;align=left;spacingLeft=6;fontStyle=5;overflow=hidden;html=1;whiteSpace=wrap;" parent="ua7cu-9W5NlXZyTE7CpF-181" vertex="1">
          <mxGeometry x="60" width="120" height="30" as="geometry">
            <mxRectangle width="120" height="30" as="alternateBounds" />
          </mxGeometry>
        </mxCell>
        <mxCell id="ua7cu-9W5NlXZyTE7CpF-169" value="" style="shape=tableRow;horizontal=0;startSize=0;swimlaneHead=0;swimlaneBody=0;fillColor=none;collapsible=0;dropTarget=0;points=[[0,0.5],[1,0.5]];portConstraint=eastwest;top=0;left=0;right=0;bottom=0;html=1;" parent="ua7cu-9W5NlXZyTE7CpF-168" vertex="1">
          <mxGeometry y="150" width="180" height="30" as="geometry" />
        </mxCell>
        <mxCell id="ua7cu-9W5NlXZyTE7CpF-170" value="FK4" style="shape=partialRectangle;connectable=0;fillColor=none;top=0;left=0;bottom=0;right=0;fontStyle=1;overflow=hidden;html=1;whiteSpace=wrap;" parent="ua7cu-9W5NlXZyTE7CpF-169" vertex="1">
          <mxGeometry width="60" height="30" as="geometry">
            <mxRectangle width="60" height="30" as="alternateBounds" />
          </mxGeometry>
        </mxCell>
        <mxCell id="ua7cu-9W5NlXZyTE7CpF-171" value="IdMedico" style="shape=partialRectangle;connectable=0;fillColor=none;top=0;left=0;bottom=0;right=0;align=left;spacingLeft=6;fontStyle=5;overflow=hidden;html=1;whiteSpace=wrap;" parent="ua7cu-9W5NlXZyTE7CpF-169" vertex="1">
          <mxGeometry x="60" width="120" height="30" as="geometry">
            <mxRectangle width="120" height="30" as="alternateBounds" />
          </mxGeometry>
        </mxCell>
        <mxCell id="ua7cu-9W5NlXZyTE7CpF-172" value="" style="shape=tableRow;horizontal=0;startSize=0;swimlaneHead=0;swimlaneBody=0;fillColor=none;collapsible=0;dropTarget=0;points=[[0,0.5],[1,0.5]];portConstraint=eastwest;top=0;left=0;right=0;bottom=1;html=1;" parent="ua7cu-9W5NlXZyTE7CpF-168" vertex="1">
          <mxGeometry y="180" width="180" height="30" as="geometry" />
        </mxCell>
        <mxCell id="ua7cu-9W5NlXZyTE7CpF-173" value="FK5" style="shape=partialRectangle;connectable=0;fillColor=none;top=0;left=0;bottom=0;right=0;fontStyle=1;overflow=hidden;html=1;whiteSpace=wrap;" parent="ua7cu-9W5NlXZyTE7CpF-172" vertex="1">
          <mxGeometry width="60" height="30" as="geometry">
            <mxRectangle width="60" height="30" as="alternateBounds" />
          </mxGeometry>
        </mxCell>
        <mxCell id="ua7cu-9W5NlXZyTE7CpF-174" value="IdComentario" style="shape=partialRectangle;connectable=0;fillColor=none;top=0;left=0;bottom=0;right=0;align=left;spacingLeft=6;fontStyle=5;overflow=hidden;html=1;whiteSpace=wrap;" parent="ua7cu-9W5NlXZyTE7CpF-172" vertex="1">
          <mxGeometry x="60" width="120" height="30" as="geometry">
            <mxRectangle width="120" height="30" as="alternateBounds" />
          </mxGeometry>
        </mxCell>
        <mxCell id="ua7cu-9W5NlXZyTE7CpF-175" value="" style="shape=tableRow;horizontal=0;startSize=0;swimlaneHead=0;swimlaneBody=0;fillColor=none;collapsible=0;dropTarget=0;points=[[0,0.5],[1,0.5]];portConstraint=eastwest;top=0;left=0;right=0;bottom=0;html=1;" parent="ua7cu-9W5NlXZyTE7CpF-168" vertex="1">
          <mxGeometry y="210" width="180" height="30" as="geometry" />
        </mxCell>
        <mxCell id="ua7cu-9W5NlXZyTE7CpF-176" value="" style="shape=partialRectangle;connectable=0;fillColor=none;top=0;left=0;bottom=0;right=0;editable=1;overflow=hidden;html=1;whiteSpace=wrap;" parent="ua7cu-9W5NlXZyTE7CpF-175" vertex="1">
          <mxGeometry width="60" height="30" as="geometry">
            <mxRectangle width="60" height="30" as="alternateBounds" />
          </mxGeometry>
        </mxCell>
        <mxCell id="ua7cu-9W5NlXZyTE7CpF-177" value="Printuario&amp;nbsp;" style="shape=partialRectangle;connectable=0;fillColor=none;top=0;left=0;bottom=0;right=0;align=left;spacingLeft=6;overflow=hidden;html=1;whiteSpace=wrap;" parent="ua7cu-9W5NlXZyTE7CpF-175" vertex="1">
          <mxGeometry x="60" width="120" height="30" as="geometry">
            <mxRectangle width="120" height="30" as="alternateBounds" />
          </mxGeometry>
        </mxCell>
        <mxCell id="ua7cu-9W5NlXZyTE7CpF-178" value="" style="shape=tableRow;horizontal=0;startSize=0;swimlaneHead=0;swimlaneBody=0;fillColor=none;collapsible=0;dropTarget=0;points=[[0,0.5],[1,0.5]];portConstraint=eastwest;top=0;left=0;right=0;bottom=0;html=1;" parent="ua7cu-9W5NlXZyTE7CpF-168" vertex="1">
          <mxGeometry y="240" width="180" height="30" as="geometry" />
        </mxCell>
        <mxCell id="ua7cu-9W5NlXZyTE7CpF-179" value="" style="shape=partialRectangle;connectable=0;fillColor=none;top=0;left=0;bottom=0;right=0;editable=1;overflow=hidden;html=1;whiteSpace=wrap;" parent="ua7cu-9W5NlXZyTE7CpF-178" vertex="1">
          <mxGeometry width="60" height="30" as="geometry">
            <mxRectangle width="60" height="30" as="alternateBounds" />
          </mxGeometry>
        </mxCell>
        <mxCell id="ua7cu-9W5NlXZyTE7CpF-180" value="DataConsulta" style="shape=partialRectangle;connectable=0;fillColor=none;top=0;left=0;bottom=0;right=0;align=left;spacingLeft=6;overflow=hidden;html=1;whiteSpace=wrap;" parent="ua7cu-9W5NlXZyTE7CpF-178" vertex="1">
          <mxGeometry x="60" width="120" height="30" as="geometry">
            <mxRectangle width="120" height="30" as="alternateBounds" />
          </mxGeometry>
        </mxCell>
        <mxCell id="VBEFxqQk6eswnQMx3JTb-33" style="shape=tableRow;horizontal=0;startSize=0;swimlaneHead=0;swimlaneBody=0;fillColor=none;collapsible=0;dropTarget=0;points=[[0,0.5],[1,0.5]];portConstraint=eastwest;top=0;left=0;right=0;bottom=0;html=1;" parent="ua7cu-9W5NlXZyTE7CpF-168" vertex="1">
          <mxGeometry y="270" width="180" height="30" as="geometry" />
        </mxCell>
        <mxCell id="VBEFxqQk6eswnQMx3JTb-34" style="shape=partialRectangle;connectable=0;fillColor=none;top=0;left=0;bottom=0;right=0;editable=1;overflow=hidden;html=1;whiteSpace=wrap;" parent="VBEFxqQk6eswnQMx3JTb-33" vertex="1">
          <mxGeometry width="60" height="30" as="geometry">
            <mxRectangle width="60" height="30" as="alternateBounds" />
          </mxGeometry>
        </mxCell>
        <mxCell id="VBEFxqQk6eswnQMx3JTb-35" value="HorarioConsulta" style="shape=partialRectangle;connectable=0;fillColor=none;top=0;left=0;bottom=0;right=0;align=left;spacingLeft=6;overflow=hidden;html=1;whiteSpace=wrap;" parent="VBEFxqQk6eswnQMx3JTb-33" vertex="1">
          <mxGeometry x="60" width="120" height="30" as="geometry">
            <mxRectangle width="120" height="30" as="alternateBounds" />
          </mxGeometry>
        </mxCell>
        <mxCell id="ua7cu-9W5NlXZyTE7CpF-190" value="1" style="text;html=1;align=center;verticalAlign=middle;resizable=0;points=[];autosize=1;strokeColor=none;fillColor=none;" parent="1" vertex="1">
          <mxGeometry x="-40" y="890" width="30" height="30" as="geometry" />
        </mxCell>
        <mxCell id="ua7cu-9W5NlXZyTE7CpF-194" value="Clinica" style="shape=table;startSize=30;container=1;collapsible=1;childLayout=tableLayout;fixedRows=1;rowLines=0;fontStyle=1;align=center;resizeLast=1;html=1;" parent="1" vertex="1">
          <mxGeometry x="1280" y="660" width="180" height="210" as="geometry" />
        </mxCell>
        <mxCell id="ua7cu-9W5NlXZyTE7CpF-195" value="" style="shape=tableRow;horizontal=0;startSize=0;swimlaneHead=0;swimlaneBody=0;fillColor=none;collapsible=0;dropTarget=0;points=[[0,0.5],[1,0.5]];portConstraint=eastwest;top=0;left=0;right=0;bottom=1;" parent="ua7cu-9W5NlXZyTE7CpF-194" vertex="1">
          <mxGeometry y="30" width="180" height="30" as="geometry" />
        </mxCell>
        <mxCell id="ua7cu-9W5NlXZyTE7CpF-196" value="PK" style="shape=partialRectangle;connectable=0;fillColor=none;top=0;left=0;bottom=0;right=0;fontStyle=1;overflow=hidden;whiteSpace=wrap;html=1;" parent="ua7cu-9W5NlXZyTE7CpF-195" vertex="1">
          <mxGeometry width="30" height="30" as="geometry">
            <mxRectangle width="30" height="30" as="alternateBounds" />
          </mxGeometry>
        </mxCell>
        <mxCell id="ua7cu-9W5NlXZyTE7CpF-197" value="IdClinica" style="shape=partialRectangle;connectable=0;fillColor=none;top=0;left=0;bottom=0;right=0;align=left;spacingLeft=6;fontStyle=5;overflow=hidden;whiteSpace=wrap;html=1;" parent="ua7cu-9W5NlXZyTE7CpF-195" vertex="1">
          <mxGeometry x="30" width="150" height="30" as="geometry">
            <mxRectangle width="150" height="30" as="alternateBounds" />
          </mxGeometry>
        </mxCell>
        <mxCell id="ua7cu-9W5NlXZyTE7CpF-198" value="" style="shape=tableRow;horizontal=0;startSize=0;swimlaneHead=0;swimlaneBody=0;fillColor=none;collapsible=0;dropTarget=0;points=[[0,0.5],[1,0.5]];portConstraint=eastwest;top=0;left=0;right=0;bottom=0;" parent="ua7cu-9W5NlXZyTE7CpF-194" vertex="1">
          <mxGeometry y="60" width="180" height="30" as="geometry" />
        </mxCell>
        <mxCell id="ua7cu-9W5NlXZyTE7CpF-199" value="" style="shape=partialRectangle;connectable=0;fillColor=none;top=0;left=0;bottom=0;right=0;editable=1;overflow=hidden;whiteSpace=wrap;html=1;" parent="ua7cu-9W5NlXZyTE7CpF-198" vertex="1">
          <mxGeometry width="30" height="30" as="geometry">
            <mxRectangle width="30" height="30" as="alternateBounds" />
          </mxGeometry>
        </mxCell>
        <mxCell id="ua7cu-9W5NlXZyTE7CpF-200" value="EnderecoClinica" style="shape=partialRectangle;connectable=0;fillColor=none;top=0;left=0;bottom=0;right=0;align=left;spacingLeft=6;overflow=hidden;whiteSpace=wrap;html=1;" parent="ua7cu-9W5NlXZyTE7CpF-198" vertex="1">
          <mxGeometry x="30" width="150" height="30" as="geometry">
            <mxRectangle width="150" height="30" as="alternateBounds" />
          </mxGeometry>
        </mxCell>
        <mxCell id="ua7cu-9W5NlXZyTE7CpF-201" value="" style="shape=tableRow;horizontal=0;startSize=0;swimlaneHead=0;swimlaneBody=0;fillColor=none;collapsible=0;dropTarget=0;points=[[0,0.5],[1,0.5]];portConstraint=eastwest;top=0;left=0;right=0;bottom=0;" parent="ua7cu-9W5NlXZyTE7CpF-194" vertex="1">
          <mxGeometry y="90" width="180" height="30" as="geometry" />
        </mxCell>
        <mxCell id="ua7cu-9W5NlXZyTE7CpF-202" value="" style="shape=partialRectangle;connectable=0;fillColor=none;top=0;left=0;bottom=0;right=0;editable=1;overflow=hidden;whiteSpace=wrap;html=1;" parent="ua7cu-9W5NlXZyTE7CpF-201" vertex="1">
          <mxGeometry width="30" height="30" as="geometry">
            <mxRectangle width="30" height="30" as="alternateBounds" />
          </mxGeometry>
        </mxCell>
        <mxCell id="ua7cu-9W5NlXZyTE7CpF-203" value="HorarioFuncionamento" style="shape=partialRectangle;connectable=0;fillColor=none;top=0;left=0;bottom=0;right=0;align=left;spacingLeft=6;overflow=hidden;whiteSpace=wrap;html=1;" parent="ua7cu-9W5NlXZyTE7CpF-201" vertex="1">
          <mxGeometry x="30" width="150" height="30" as="geometry">
            <mxRectangle width="150" height="30" as="alternateBounds" />
          </mxGeometry>
        </mxCell>
        <mxCell id="ua7cu-9W5NlXZyTE7CpF-204" value="" style="shape=tableRow;horizontal=0;startSize=0;swimlaneHead=0;swimlaneBody=0;fillColor=none;collapsible=0;dropTarget=0;points=[[0,0.5],[1,0.5]];portConstraint=eastwest;top=0;left=0;right=0;bottom=0;" parent="ua7cu-9W5NlXZyTE7CpF-194" vertex="1">
          <mxGeometry y="120" width="180" height="30" as="geometry" />
        </mxCell>
        <mxCell id="ua7cu-9W5NlXZyTE7CpF-205" value="" style="shape=partialRectangle;connectable=0;fillColor=none;top=0;left=0;bottom=0;right=0;editable=1;overflow=hidden;whiteSpace=wrap;html=1;" parent="ua7cu-9W5NlXZyTE7CpF-204" vertex="1">
          <mxGeometry width="30" height="30" as="geometry">
            <mxRectangle width="30" height="30" as="alternateBounds" />
          </mxGeometry>
        </mxCell>
        <mxCell id="ua7cu-9W5NlXZyTE7CpF-206" value="CNPJ" style="shape=partialRectangle;connectable=0;fillColor=none;top=0;left=0;bottom=0;right=0;align=left;spacingLeft=6;overflow=hidden;whiteSpace=wrap;html=1;" parent="ua7cu-9W5NlXZyTE7CpF-204" vertex="1">
          <mxGeometry x="30" width="150" height="30" as="geometry">
            <mxRectangle width="150" height="30" as="alternateBounds" />
          </mxGeometry>
        </mxCell>
        <mxCell id="ua7cu-9W5NlXZyTE7CpF-207" style="shape=tableRow;horizontal=0;startSize=0;swimlaneHead=0;swimlaneBody=0;fillColor=none;collapsible=0;dropTarget=0;points=[[0,0.5],[1,0.5]];portConstraint=eastwest;top=0;left=0;right=0;bottom=0;" parent="ua7cu-9W5NlXZyTE7CpF-194" vertex="1">
          <mxGeometry y="150" width="180" height="30" as="geometry" />
        </mxCell>
        <mxCell id="ua7cu-9W5NlXZyTE7CpF-208" style="shape=partialRectangle;connectable=0;fillColor=none;top=0;left=0;bottom=0;right=0;editable=1;overflow=hidden;whiteSpace=wrap;html=1;" parent="ua7cu-9W5NlXZyTE7CpF-207" vertex="1">
          <mxGeometry width="30" height="30" as="geometry">
            <mxRectangle width="30" height="30" as="alternateBounds" />
          </mxGeometry>
        </mxCell>
        <mxCell id="ua7cu-9W5NlXZyTE7CpF-209" value="NomeFantasia" style="shape=partialRectangle;connectable=0;fillColor=none;top=0;left=0;bottom=0;right=0;align=left;spacingLeft=6;overflow=hidden;whiteSpace=wrap;html=1;" parent="ua7cu-9W5NlXZyTE7CpF-207" vertex="1">
          <mxGeometry x="30" width="150" height="30" as="geometry">
            <mxRectangle width="150" height="30" as="alternateBounds" />
          </mxGeometry>
        </mxCell>
        <mxCell id="ua7cu-9W5NlXZyTE7CpF-210" style="shape=tableRow;horizontal=0;startSize=0;swimlaneHead=0;swimlaneBody=0;fillColor=none;collapsible=0;dropTarget=0;points=[[0,0.5],[1,0.5]];portConstraint=eastwest;top=0;left=0;right=0;bottom=0;" parent="ua7cu-9W5NlXZyTE7CpF-194" vertex="1">
          <mxGeometry y="180" width="180" height="30" as="geometry" />
        </mxCell>
        <mxCell id="ua7cu-9W5NlXZyTE7CpF-211" style="shape=partialRectangle;connectable=0;fillColor=none;top=0;left=0;bottom=0;right=0;editable=1;overflow=hidden;whiteSpace=wrap;html=1;" parent="ua7cu-9W5NlXZyTE7CpF-210" vertex="1">
          <mxGeometry width="30" height="30" as="geometry">
            <mxRectangle width="30" height="30" as="alternateBounds" />
          </mxGeometry>
        </mxCell>
        <mxCell id="ua7cu-9W5NlXZyTE7CpF-212" value="RazaoSocial" style="shape=partialRectangle;connectable=0;fillColor=none;top=0;left=0;bottom=0;right=0;align=left;spacingLeft=6;overflow=hidden;whiteSpace=wrap;html=1;" parent="ua7cu-9W5NlXZyTE7CpF-210" vertex="1">
          <mxGeometry x="30" width="150" height="30" as="geometry">
            <mxRectangle width="150" height="30" as="alternateBounds" />
          </mxGeometry>
        </mxCell>
        <mxCell id="ua7cu-9W5NlXZyTE7CpF-213" value="" style="edgeStyle=entityRelationEdgeStyle;fontSize=12;html=1;endArrow=ERoneToMany;rounded=0;exitX=1;exitY=0.5;exitDx=0;exitDy=0;entryX=0;entryY=0.5;entryDx=0;entryDy=0;" parent="1" source="ua7cu-9W5NlXZyTE7CpF-54" target="ua7cu-9W5NlXZyTE7CpF-70" edge="1">
          <mxGeometry width="100" height="100" relative="1" as="geometry">
            <mxPoint x="750" y="1250" as="sourcePoint" />
            <mxPoint x="850" y="1150" as="targetPoint" />
          </mxGeometry>
        </mxCell>
        <mxCell id="ua7cu-9W5NlXZyTE7CpF-214" value="" style="edgeStyle=entityRelationEdgeStyle;fontSize=12;html=1;endArrow=ERoneToMany;rounded=0;exitX=1;exitY=0.5;exitDx=0;exitDy=0;entryX=0;entryY=0.5;entryDx=0;entryDy=0;" parent="1" source="ua7cu-9W5NlXZyTE7CpF-86" target="ua7cu-9W5NlXZyTE7CpF-142" edge="1">
          <mxGeometry width="100" height="100" relative="1" as="geometry">
            <mxPoint x="710" y="1250" as="sourcePoint" />
            <mxPoint x="810" y="1150" as="targetPoint" />
          </mxGeometry>
        </mxCell>
        <mxCell id="ua7cu-9W5NlXZyTE7CpF-220" value="" style="edgeStyle=entityRelationEdgeStyle;fontSize=12;html=1;endArrow=ERmandOne;startArrow=ERmandOne;rounded=0;exitX=1;exitY=0.5;exitDx=0;exitDy=0;entryX=0;entryY=0.5;entryDx=0;entryDy=0;" parent="1" source="ua7cu-9W5NlXZyTE7CpF-67" target="ua7cu-9W5NlXZyTE7CpF-120" edge="1">
          <mxGeometry width="100" height="100" relative="1" as="geometry">
            <mxPoint x="820" y="1240" as="sourcePoint" />
            <mxPoint x="920" y="1140" as="targetPoint" />
          </mxGeometry>
        </mxCell>
        <mxCell id="ua7cu-9W5NlXZyTE7CpF-221" value="" style="edgeStyle=entityRelationEdgeStyle;fontSize=12;html=1;endArrow=ERmandOne;startArrow=ERmandOne;rounded=0;exitX=1;exitY=0.5;exitDx=0;exitDy=0;entryX=0;entryY=0.5;entryDx=0;entryDy=0;" parent="1" source="ua7cu-9W5NlXZyTE7CpF-67" target="ua7cu-9W5NlXZyTE7CpF-139" edge="1">
          <mxGeometry width="100" height="100" relative="1" as="geometry">
            <mxPoint x="820" y="1240" as="sourcePoint" />
            <mxPoint x="920" y="1140" as="targetPoint" />
          </mxGeometry>
        </mxCell>
        <mxCell id="ua7cu-9W5NlXZyTE7CpF-222" value="" style="edgeStyle=entityRelationEdgeStyle;fontSize=12;html=1;endArrow=ERoneToMany;rounded=0;exitX=1;exitY=0.5;exitDx=0;exitDy=0;entryX=0;entryY=0.5;entryDx=0;entryDy=0;" parent="1" source="ua7cu-9W5NlXZyTE7CpF-195" target="ua7cu-9W5NlXZyTE7CpF-184" edge="1">
          <mxGeometry width="100" height="100" relative="1" as="geometry">
            <mxPoint x="1230" y="860" as="sourcePoint" />
            <mxPoint x="1330" y="760" as="targetPoint" />
          </mxGeometry>
        </mxCell>
        <mxCell id="ua7cu-9W5NlXZyTE7CpF-223" value="" style="edgeStyle=entityRelationEdgeStyle;fontSize=12;html=1;endArrow=ERoneToMany;rounded=0;exitX=0;exitY=0.5;exitDx=0;exitDy=0;entryX=1;entryY=0.5;entryDx=0;entryDy=0;" parent="1" source="ua7cu-9W5NlXZyTE7CpF-156" target="ua7cu-9W5NlXZyTE7CpF-187" edge="1">
          <mxGeometry width="100" height="100" relative="1" as="geometry">
            <mxPoint x="1230" y="980" as="sourcePoint" />
            <mxPoint x="1330" y="880" as="targetPoint" />
          </mxGeometry>
        </mxCell>
        <mxCell id="ua7cu-9W5NlXZyTE7CpF-224" value="" style="edgeStyle=entityRelationEdgeStyle;fontSize=12;html=1;endArrow=ERoneToMany;rounded=0;exitX=1;exitY=0.5;exitDx=0;exitDy=0;entryX=0;entryY=0.5;entryDx=0;entryDy=0;" parent="1" source="ua7cu-9W5NlXZyTE7CpF-117" target="ua7cu-9W5NlXZyTE7CpF-181" edge="1">
          <mxGeometry width="100" height="100" relative="1" as="geometry">
            <mxPoint x="1230" y="1110" as="sourcePoint" />
            <mxPoint x="1330" y="1010" as="targetPoint" />
          </mxGeometry>
        </mxCell>
        <mxCell id="ua7cu-9W5NlXZyTE7CpF-225" value="" style="edgeStyle=entityRelationEdgeStyle;fontSize=12;html=1;endArrow=ERoneToMany;rounded=0;exitX=1;exitY=0.5;exitDx=0;exitDy=0;entryX=0;entryY=0.5;entryDx=0;entryDy=0;" parent="1" source="ua7cu-9W5NlXZyTE7CpF-215" target="ua7cu-9W5NlXZyTE7CpF-169" edge="1">
          <mxGeometry width="100" height="100" relative="1" as="geometry">
            <mxPoint x="1230" y="1110" as="sourcePoint" />
            <mxPoint x="1330" y="1010" as="targetPoint" />
          </mxGeometry>
        </mxCell>
        <mxCell id="ua7cu-9W5NlXZyTE7CpF-226" value="Comentario" style="shape=table;startSize=30;container=1;collapsible=1;childLayout=tableLayout;fixedRows=1;rowLines=0;fontStyle=1;align=center;resizeLast=1;html=1;" parent="1" vertex="1">
          <mxGeometry x="1250" y="1090" width="180" height="180" as="geometry" />
        </mxCell>
        <mxCell id="ua7cu-9W5NlXZyTE7CpF-227" value="" style="shape=tableRow;horizontal=0;startSize=0;swimlaneHead=0;swimlaneBody=0;fillColor=none;collapsible=0;dropTarget=0;points=[[0,0.5],[1,0.5]];portConstraint=eastwest;top=0;left=0;right=0;bottom=1;" parent="ua7cu-9W5NlXZyTE7CpF-226" vertex="1">
          <mxGeometry y="30" width="180" height="30" as="geometry" />
        </mxCell>
        <mxCell id="ua7cu-9W5NlXZyTE7CpF-228" value="PK" style="shape=partialRectangle;connectable=0;fillColor=none;top=0;left=0;bottom=0;right=0;fontStyle=1;overflow=hidden;whiteSpace=wrap;html=1;" parent="ua7cu-9W5NlXZyTE7CpF-227" vertex="1">
          <mxGeometry width="30" height="30" as="geometry">
            <mxRectangle width="30" height="30" as="alternateBounds" />
          </mxGeometry>
        </mxCell>
        <mxCell id="ua7cu-9W5NlXZyTE7CpF-229" value="IdComentario" style="shape=partialRectangle;connectable=0;fillColor=none;top=0;left=0;bottom=0;right=0;align=left;spacingLeft=6;fontStyle=5;overflow=hidden;whiteSpace=wrap;html=1;" parent="ua7cu-9W5NlXZyTE7CpF-227" vertex="1">
          <mxGeometry x="30" width="150" height="30" as="geometry">
            <mxRectangle width="150" height="30" as="alternateBounds" />
          </mxGeometry>
        </mxCell>
        <mxCell id="ua7cu-9W5NlXZyTE7CpF-230" value="" style="shape=tableRow;horizontal=0;startSize=0;swimlaneHead=0;swimlaneBody=0;fillColor=none;collapsible=0;dropTarget=0;points=[[0,0.5],[1,0.5]];portConstraint=eastwest;top=0;left=0;right=0;bottom=0;" parent="ua7cu-9W5NlXZyTE7CpF-226" vertex="1">
          <mxGeometry y="60" width="180" height="30" as="geometry" />
        </mxCell>
        <mxCell id="ua7cu-9W5NlXZyTE7CpF-231" value="" style="shape=partialRectangle;connectable=0;fillColor=none;top=0;left=0;bottom=0;right=0;editable=1;overflow=hidden;whiteSpace=wrap;html=1;" parent="ua7cu-9W5NlXZyTE7CpF-230" vertex="1">
          <mxGeometry width="30" height="30" as="geometry">
            <mxRectangle width="30" height="30" as="alternateBounds" />
          </mxGeometry>
        </mxCell>
        <mxCell id="ua7cu-9W5NlXZyTE7CpF-232" value="TituloComentario" style="shape=partialRectangle;connectable=0;fillColor=none;top=0;left=0;bottom=0;right=0;align=left;spacingLeft=6;overflow=hidden;whiteSpace=wrap;html=1;" parent="ua7cu-9W5NlXZyTE7CpF-230" vertex="1">
          <mxGeometry x="30" width="150" height="30" as="geometry">
            <mxRectangle width="150" height="30" as="alternateBounds" />
          </mxGeometry>
        </mxCell>
        <mxCell id="ua7cu-9W5NlXZyTE7CpF-233" value="" style="shape=tableRow;horizontal=0;startSize=0;swimlaneHead=0;swimlaneBody=0;fillColor=none;collapsible=0;dropTarget=0;points=[[0,0.5],[1,0.5]];portConstraint=eastwest;top=0;left=0;right=0;bottom=0;" parent="ua7cu-9W5NlXZyTE7CpF-226" vertex="1">
          <mxGeometry y="90" width="180" height="30" as="geometry" />
        </mxCell>
        <mxCell id="ua7cu-9W5NlXZyTE7CpF-234" value="" style="shape=partialRectangle;connectable=0;fillColor=none;top=0;left=0;bottom=0;right=0;editable=1;overflow=hidden;whiteSpace=wrap;html=1;" parent="ua7cu-9W5NlXZyTE7CpF-233" vertex="1">
          <mxGeometry width="30" height="30" as="geometry">
            <mxRectangle width="30" height="30" as="alternateBounds" />
          </mxGeometry>
        </mxCell>
        <mxCell id="ua7cu-9W5NlXZyTE7CpF-235" value="DescricaoComentario" style="shape=partialRectangle;connectable=0;fillColor=none;top=0;left=0;bottom=0;right=0;align=left;spacingLeft=6;overflow=hidden;whiteSpace=wrap;html=1;" parent="ua7cu-9W5NlXZyTE7CpF-233" vertex="1">
          <mxGeometry x="30" width="150" height="30" as="geometry">
            <mxRectangle width="150" height="30" as="alternateBounds" />
          </mxGeometry>
        </mxCell>
        <mxCell id="ua7cu-9W5NlXZyTE7CpF-236" value="" style="shape=tableRow;horizontal=0;startSize=0;swimlaneHead=0;swimlaneBody=0;fillColor=none;collapsible=0;dropTarget=0;points=[[0,0.5],[1,0.5]];portConstraint=eastwest;top=0;left=0;right=0;bottom=0;" parent="ua7cu-9W5NlXZyTE7CpF-226" vertex="1">
          <mxGeometry y="120" width="180" height="30" as="geometry" />
        </mxCell>
        <mxCell id="ua7cu-9W5NlXZyTE7CpF-237" value="" style="shape=partialRectangle;connectable=0;fillColor=none;top=0;left=0;bottom=0;right=0;editable=1;overflow=hidden;whiteSpace=wrap;html=1;" parent="ua7cu-9W5NlXZyTE7CpF-236" vertex="1">
          <mxGeometry width="30" height="30" as="geometry">
            <mxRectangle width="30" height="30" as="alternateBounds" />
          </mxGeometry>
        </mxCell>
        <mxCell id="ua7cu-9W5NlXZyTE7CpF-238" value="DataComentario" style="shape=partialRectangle;connectable=0;fillColor=none;top=0;left=0;bottom=0;right=0;align=left;spacingLeft=6;overflow=hidden;whiteSpace=wrap;html=1;" parent="ua7cu-9W5NlXZyTE7CpF-236" vertex="1">
          <mxGeometry x="30" width="150" height="30" as="geometry">
            <mxRectangle width="150" height="30" as="alternateBounds" />
          </mxGeometry>
        </mxCell>
        <mxCell id="ua7cu-9W5NlXZyTE7CpF-240" style="shape=tableRow;horizontal=0;startSize=0;swimlaneHead=0;swimlaneBody=0;fillColor=none;collapsible=0;dropTarget=0;points=[[0,0.5],[1,0.5]];portConstraint=eastwest;top=0;left=0;right=0;bottom=0;" parent="ua7cu-9W5NlXZyTE7CpF-226" vertex="1">
          <mxGeometry y="150" width="180" height="30" as="geometry" />
        </mxCell>
        <mxCell id="ua7cu-9W5NlXZyTE7CpF-241" style="shape=partialRectangle;connectable=0;fillColor=none;top=0;left=0;bottom=0;right=0;editable=1;overflow=hidden;whiteSpace=wrap;html=1;" parent="ua7cu-9W5NlXZyTE7CpF-240" vertex="1">
          <mxGeometry width="30" height="30" as="geometry">
            <mxRectangle width="30" height="30" as="alternateBounds" />
          </mxGeometry>
        </mxCell>
        <mxCell id="ua7cu-9W5NlXZyTE7CpF-242" value="ComentarioExibido" style="shape=partialRectangle;connectable=0;fillColor=none;top=0;left=0;bottom=0;right=0;align=left;spacingLeft=6;overflow=hidden;whiteSpace=wrap;html=1;" parent="ua7cu-9W5NlXZyTE7CpF-240" vertex="1">
          <mxGeometry x="30" width="150" height="30" as="geometry">
            <mxRectangle width="150" height="30" as="alternateBounds" />
          </mxGeometry>
        </mxCell>
        <mxCell id="ua7cu-9W5NlXZyTE7CpF-239" value="" style="edgeStyle=entityRelationEdgeStyle;fontSize=12;html=1;endArrow=ERoneToMany;rounded=0;exitX=1;exitY=0.5;exitDx=0;exitDy=0;entryX=0;entryY=0.5;entryDx=0;entryDy=0;" parent="1" source="ua7cu-9W5NlXZyTE7CpF-227" target="ua7cu-9W5NlXZyTE7CpF-172" edge="1">
          <mxGeometry width="100" height="100" relative="1" as="geometry">
            <mxPoint x="1230" y="1230" as="sourcePoint" />
            <mxPoint x="1330" y="1130" as="targetPoint" />
          </mxGeometry>
        </mxCell>
        <mxCell id="ztMBHTseD3NnfuisJvm6-2" value="" style="shape=image;verticalLabelPosition=bottom;labelBackgroundColor=default;verticalAlign=top;aspect=fixed;imageAspect=0;image=data:image/png,iVBORw0KGgoAAAANSUhEUgAAASAAAABxCAYAAAB1Jn5mAAAAAXNSR0IArs4c6QAAAARnQU1BAACxjwv8YQUAAAAJcEhZcwAAEnQAABJ0Ad5mH3gAAA5cSURBVHhe7Z2/ctpMF8aPv2uBFBlfAbmBGDeu3KYTpWncuXSXBpemeGfSuvJMJpAbMFfgSRFR5y4Svj37B+2uVkISEovg+c0oMUJarcTu0Z4VPM/Fnz9/NqT5+fMnff78Wb8C5wraATgU/9P/S/7+/av/AucM2gE4FBf//fff5t+/f8TLZrMdDAEAQOc4Kdj3798pSRL9CgAAusVJwQAA4JAgAAEAooEABACIBgIQACAaCECHZDmhi4uLnctkyZuKvz890Vrv2hay3MAxefn01ORoa3r6JPYP1rXsvTh0dV1BMxCADsnVs/yqw3ZZqCeOycJaJ5bnK95U/P12RwO5RdsktLCOJ5d0RjQd0gVHvxOm2+sK6oIABBSDO3rjgDgfyxEYAIcAAehIcVOFJU1EijRZqv/LUqb106fmadXVPc1GIgY9uinKXmX65NLQiTg7g07ZvAgYSptyqWTo/cmTKk9u84m42qGyWj0/UAsEoB4xH49J5E5OymR3Fu5cwynRLC3eppwBfbgU/61+UapWyM65X5kW6yf6NJ5bKWcqAt6cxjXnZPg8x+8zSmUZuhya0tAfus2n9HKb6m3e6C6Qd+1/zcA+IAD1iWQh54ckImX6JoYrq+lXNYIQnftxTjSafcs62nabL/LuXxtR5pfpqqBMfdw6pL9oRQndmHMQAe/uTXT6OnMy+jyTB3ufAV3f8tDt1atTQg+hqGPo4pqBWiAA9Ygk67mSgRyuvNNv7iiyc4/o9trtcIPrW7F2Rb/MkKYOpWXO6bVuBBp+lPuNRZrTeJ6J56rESEUFYp2yifKGIlDmGH2kof4zSBfXDNQCAaj3dNdR1r/fxb8rkZFk8yNyETlLoLvvRgYPTrs4nczKqxuM5DyO3HdI05V6opdyoaB3IAD1nhF9LLvNy7t8VZb0KlISMdQiHmCoEdYomx/xlm06WAuddskysmBUOQgtJzSWaZOZ23mWdW2VWtcM7AMCUI94l7lWhhqhXNIHziBkerOilx+hbXYEKcPyVSRIVqpXUCYHAfNUiQOKnH+xJq4zUvolevLo9rpgjkcEo28zcYwy1iRPwcFPm9b046VByGjjmoH9YDkOszw/P4ubCjgYi4SlUDaJyCF8FgltxG1+k6pXm0RsJzrFRoxGFHpfMRLQK/Q+9jbpbCM694YfOxnUNoko0UOXZ2/L5Mo0dXG20+u29VXkjiWPYZfFVRw568L7WGUHzkmV4e4ny/Hqw/jrc+cXKB90BwJQTGoGoFGSqM6hl9B+WWdUix2gGNXhwktRn/PLDHfOdCPSKXe7QADIleUFpFw54lhyH7ssE5TMwu95wa1qAGJ2XTPQHRAk6wX8BcQxvc9Seit7rAxAz8AcEAAgGghAAIBoIAD1git63myQfoGTI+eKMZlM9FsAANAtmIQGOfhbxnwzAqBrkIIBAKKBAAQAiAYCEAAgGghAAIBoVAtAWkZz1y+Wt3KXcH+ITqvXdY/PkxUVa11vVk3UZe0E7Sw6+17XbkZAcH+ITqvXtfHnuaSvIaGwtkA7i86+1/X8UjAWxeKGCvcH0CVoZ5XYKwA5w08xDPut19fBHcLB/cEfzuaG+KH3j8j9YXtcmUqNpb7QikcC8vyrn7dNG/V2j4F2FmxHdjmh9ztoZ40DEB94PM+GnuntC025tbUA3B8U8hr31f1Byq8uRHJCpNQLmykXdllvtDNFzHbWLABpN4FkkTWqwd0b6RR8f+D+kF3jc3Z/6LreaGfR21mjALT+8SJOPC9ZOfwoKt0CcH8QiA/u7N0fOq432pkgcjvbYw5IaxEfjO46CtwfQAba2SHb2R4BSN8pDgbcHxpVo4xa1+yI6LTeaGeHbGeNAlDRkCplC4QWgPuDwR/OnqL7Q+i8NR3XG+3MELGdVRKlD4inL3w3Ad+9wKam+HqoXFsoPHdsuD/krrm/Pnd+Je4PfIxSan6e+c9u93mbsuvUu269nHL1vmhnpgx3P1mOVx/GX587v7LPS9A4ADHqYGZJNjOueKCSRfsz7gnoBgv3B4VpLGbh97xG5zcAQ2j9rmtm4PdKqfx52sc0jXnHeXsBiKla7+r1QjtzyorUzpgjEySD+8MxwBOSom3oV6cI2tmxsMckNAAA7AcCEAAgGtCEBjlOPwUDxwJcMQAA0cAICOTACAgcCswBAQCigQAEAIgGAhAAIBoIQACAaCAA+axZStSWtQSHZisPUUNXQu5TUwnQp0kZdfdhRcQ21ByLaOM6HBIEIIclTZpqs4B2MAp9/DR2/ri/6mENmjg81NunY5eQHoIAZJCSCEpEHcRDqW0mdHNfIF0BTgoEIIbTrvGcRrMUioNR0SMEFvAa3NGDGAStXn4E04ltmsaLSDkcRxaZRrMol+t6ITM6eaMx64wGj8JNX5Q8KadL/rHs+uRSHqd8XnQ6L+vku4To/QNuE4xzXF4CqZVft5AzzS6XirI6dI6R4uClUI7jjFBSAgF9lzNCNAv914Hx5TQK5DWUBEb2GW3lH4wshNGg8fVs7G3Ev1KmwpKScKUlMhmL7Ph57R5nn5yUiH8MLQNiyVOYegVlPqy6bcvyj112HQRqm7w+T5U6HAKMgMDRsFT6pZnLw9WNeEU0t9XazRxRBUeW0ex+u83Vjdogc38oUx60GM3o3hQiSpPFvP/OjUQkUnq0iUuF5zZhzrHMqaLKddDbVHOp2OF40REIQOA42HaWLGhsO7xlD1PHkeUy55rQQMb18sOO4GEhJUkbuFT4bhMVnCoqXQcZECu6VOxyvOgIBCBwFKgOZeZHzFwEm1/yu3N6dG7Xh3ZkqUhLLhVMNrdT5lRxpNehBghA4AjQk88i3UlFR9s4i+rQ7mT0oR1Z6rCnSwWzrOpU0fA6dOoqUg8EIBAf4x7hzHkYzFzNlL6KTty1I0u7VHGpKKLcqaLSdejYVaQNEIBAdHKTzx6Du4dsMlo/np+PrUfFesQQHfkI3n2EXTRXU4oOHFOOuJr10xeRiukXTJXroLdxJpzXyh5aRPtsYjoiCEAgLsHJZx8zGa2+Gc3fPl4klsPomGiWmx+JwNUzpTNynE+HU1G39E139iu6F/W0vwcUhOeS+HHWfJyV83JLqXzElaVdVa4Db+PUSVWINs1cEFsHgmQgBzdUnnsAoGswAgIARAMBCAAQDQQgAEA04IoBAIgGJqFBDkxCg0OBFAwAEA0EIABANBCAAADRQAACAEQDAUjjyl8eUJISHIBMmrXIkWIrW1r0s3UjtVrhZ+2yLVnyqf5rkIEAJOAGMp4rzRUpf7C4lL+daaLjAo6bIo3p8l/Tr+npUWmGN/kNVRO3jXMBASggbUlX90rHxZYCBf0nSSgJSrAu6VXcgMq+gXL9bUNvx/Dz8RMDAUiq2Bn5S3Da3NBNMqfcfYX1iBLxnn5po1KzIQ31r8lDKZyTvgecKUIpmOtUEU75d7lZnAIIQAGU9sqIZpkaOTgRWJzeH9myHlESECPiAKDUK3RqrnQtnEDgp+/p7QtNd2gT+eWqYl15Di5317FPAtjyWGgbGF5iWJQcC3z+p4VlpyNtaWzbJX5P2dZIexpjexOwr2Ec26acDY9CluNb43jWPNvjSDy7ntJjWxY7JwBGQDZXz+pus1nQJYtG4cnF6TG4ptuRlYZx+jW6Jc84YoejhNq/jkPHlvVvYkFUd8R1ReLWn80x1XGz6DkIQEGUch2tXgjOwKeG0pg2aRinX6Pb69wTKqWbbKkNmkXkRe7zsv47U8QEAaiAwYdL8e9p3W2AQo4kpNcYP/3KjzQY9fmPsjkYb8keWhzQoeOI3CzaAgFobXzE9WvNMTkHgJYZfBDjFhE4ngrSL6bAUYIs4flGDh3y2P5XPLT5oGmEPXCzaA1MQuc9t3OTgmeGaBb6r1MhP/ErJ4a9z9iZhBaobexJ36JyrG3Mg4zCSejAZLLcx51czpWrJ6bddtp/MAJi76a3DS0ocyC4uBjT+yzFF89OGOMVn7dvzsg5Soh2MU8Wzrehmzh0sIe7U+74XaR6xjlDcexuFm0BQTKQgxu8uDnpVwB0B0ZAAIBoIAABAKKBAAQAiAZcMQAA0cAkNMiBSWhwKJCCAQCigQAEAIgGAhAAIBoIQACAaCAAaXz5yyruB+D4cORR/aUjfaeQ5GobcJs8RRlWGwQggZLIXCnXg82G+JeANB8jCPUWy+FkuywoWU1p2EGg6Mb1YklfRZs8dRCAzAedLLIfn149U6psMRydXtBnIDJ3jCAABSUyDQcUmwKdExKZy6VsgRGSm57nHSxCKZif0ruplNL/4XXO8U0ZUqNqTKxtv2Jp4ItMsL683P6BAFRgy6NEpSC3eUr4gl7c+cfvM0q3aVpKMxJpmpV6q/S83MHCx99nU+BowcHl9cYcW6eIfGzZJsVrsY2aFlCedVXL7RUQJMujBKMgSNZHlJCX7Xqh8QW9ChwtHNeLgACZWZcTMjOCY6WOFqZcLYJniZQxrnCZd5xK5fYPjIB8lhM5Ie3MCYGeMaexlabIhcXkbTExZ+SrJVHFdvKzN1RxsPCp4Kax5fJD9YnrOuX2CAQgC5lfj5t7gINjIfQUTCzeZ5rNvwxpulL7yIcPe1DdTaMeXZUbGwQgDTdG8ygeI58zQIx0xb1G3WxkgFLzLPtS3U2jHl2VGxsEIAGPfLgxilQfwees8FOaNf14scYTVRwsfCq4aTSiq3IjgwC0fqIveuSDrOuM0B16+jULJOunLyIV0y8k+rtD88esgy+/im3ESOS+oLEM7ugh4SdcX6ygsKSJvMM9OMLzteiq3MicfQBS9rrqkaiTW8ulv3cWsAOehDbfeNef9/DlllJeZ33/q4qDhU8VN43dqOBnfw+onXKPCwiSgRzcuHleAYCuQQoGAIgGAhAAIBoIQACAaMAVAwAQCaL/A1M+Zk4Yn9CzAAAAAElFTkSuQmCC;" vertex="1" parent="1">
          <mxGeometry x="-89" y="1580" width="288" height="113" as="geometry" />
        </mxCell>
        <mxCell id="ztMBHTseD3NnfuisJvm6-3" value="" style="shape=image;verticalLabelPosition=bottom;labelBackgroundColor=default;verticalAlign=top;aspect=fixed;imageAspect=0;image=data:image/png,iVBORw0KGgoAAAANSUhEUgAAA5QAAACYCAYAAACbHKauAAAAAXNSR0IArs4c6QAAAARnQU1BAACxjwv8YQUAAAAJcEhZcwAAEnQAABJ0Ad5mH3gAAEhJSURBVHhe7Z29cts608fX77VIKTy+AvkKrDSu3KajSqtJl5nnFO7SyKU0adK68kwm0hVYV+BxEarOZUQvFgBJAARJ8EMSKf1/Z3hiUSA+dhefXEBXP3782P/794/2+z0BAAAAAAAAAAChXP39+1fOJH/9+kVRFMmbAAAAAAAAAABAGVdXV/R/+m8AAAAAAAAAAKAWmFACAAAAAAAAAGgEJpQAAAAAAAAAABqBCSUAAAAAAAAAgEZgQgkAAGCA7Oj59oqubp/FXy5l352Gzaxf+QEAAAC6AhNKAAAA4MDcLfe0f3ukkf4MAAAAnAuYUAIAAAAAAAAAaAQmlAAAAM6fzUz+VlZ2zWijv0pdZGfZHcbnpirvmfH4vp89q/hkmFt6FgF8ce2eb624bjkgAAAAMDAwoQQAAHDe7J7pdrqiaL2n/Z6vmBaTFU1r7mnkSeH0fUGxjEPHQ3MaOxNRWs3p5SHWYd7o0ePnynGN50SLWMcVL4jmY0wqAQAADA5MKAEAAJw38QdtKaL7O/2ZRvT4JiZxdfY0iknp04oo+mY+M6LPDxMxgXw13nYyEX3zzSITdFyTxc9ssjl6pJ+LCW3nX+QbTQAAAGAoYEIJAADgvBlf04RWNL26IvdlYjBiwve239NSTkq1i6yIbzzfyq8tJtc01n96kRPcCT18tiedo88P4u6WPmJ9AwAAABgAmFACAAA4b+RkkN1ciVbTbM9i3clltn9yTPNtRGsxwYw5UgAAAOCCwYQSAADABaDdXJO9j3pyGTyp3MxoKt1Uk72RS0o9aLtCvrkEAAAAhgUmlAAAAAaI3r+4/aC8h2hMH2JmNnn4XLBHUkwufy6o/N3ijv686z9TXDfVHf1+aTAFlC64W3r5bW+W3MkEJ3Rd6i8LAAAA9AtMKAEAAAyS0eM3inhvZO6nO6birnEwjvzJEPXzHQm73y9yH6OavI3o0434xzxcZ/OdrO2RehI4/5690tw9f7HDhDJ6pG+RmAubB/DsnukLRxZ9854KCwAAAPQVTCgBAAAMlDtaJj/dofdF8qV+2sNwSb1bkvpVjiyM+smO7Cc97pb6p0SSeF7v7f2RvA9zLWaBq2kWx8sDxXyP3ulPzZNZ75a8/9LIk8oQ7dWpPwAAAMBguPr79++e//j16xdFEXeMAAAAAAAAAABAObwoijeUAAAAAAAAAAAagQklAAAAAAAAAIBGYEIJAAAAAAAAAKARVz9+/Nj/+/dP/q7WbDbTtwEAAAAAAAAAgHJwKE9LeCMqT8bBZQM7uEygdwDqgTozXKC7ywW6B2WwfcDlFQAAAAAAAABAIzChBAAAAAAAAADQCEwoAQAAAAAAAAA0AhNKAAAAAAAAAACNqJ5QbmZys+Vsoz8XsJld0dXtM+3kpx0935qfTcq+Ow123juirtx0+KqL4ztIfgUyXk+afN0+N0kNdhCGlsXVLfnEfLp8uUCfl0ZZmyCvI8jX0uPumW5FuqpdhT2eHxuauTZ2NRN3D4G2kapOupILtsMa45ZKrLodjtlGNRunNAXtD2PK372a6mP3fFvzWS3vXo2hLs8+8IZScLfc0/7tkUb680m4W8oTtNJrrU7cjdbGPXEt7w6d34jWRnryihdE83EHHW+/Ob0dbGn+/bxlfEx6Ua/PAk+bkFxHkO+56BH2WIGcnEzpfRFbNraOVjQtGCiC+nRqhzXGLQdBTEKfVll6b4+oXUUctv3pcty4oe/zrf67LhhDNaUL+8CEElQzeqQ37ihW09qrh6AGUUTR6gkDJwDAxbF5FTODyYJ+OpOCu+VaDFcxUAQe4g9hGRO6HuvPoD+cYtyIMdRJaTyhtF5z3z7TH32/ETm3CdPFRb8adizS93o29+rd9/3sWb8a50utevri4lfuZlxduVJ0ITc7v8pFaLaxXYV8+W1VpruvtJiItuHpgHK6IDvwc09feVHvi50HH6X5Sl2HbJuQorNknF/1hz5BI1rYXJB+nXuNgD32mB39edd/5rijJb/xcF5zlctO6ZPvWfry2tEfQ1f+MFU6r8UF22HddMrCy3JMV+KvLc3H4m+jTF3ZRqdyuUS9F4wbC8sg+5EpSa3y201DRlXlVoSPoSrjK9WXwpZfvm+rxRnYR6MJJSc8XWWvuOOHF5qzBTSBDUg0CpmLRCwMcEVTr7EUI/P0vqBY50nGQ3MaOwqg1ZxeHhKXmjfyeUhwXOM50SLWcelX920rW6dyc1hNpyQiLsxv+zKN6NON+Gf7QbG6IY2tMzldkB2UMXr8RtF2TmWL8aH5Wk1f6V7LQS0Uikbh6VrLhuUrOmKj4YU+QVvq2lywftsCe+w5I3r8JgxGtH3jAJ2EtlU8KH2912H2a9m2+nT18a04TKc2esF2WLd/qQovXfSki+1EhdHueqHlqbIN9IddkB83lpaB32qyLkS4iXR9XxIvIwWXWxA6hiqNL0Bfrn0o8eUnnUGci338/ft3z9dyuRTPeFhHexFsLwqqiBf7iflZI+r1XljAXhREEO8XE/OzifOdjD/aO9EZ6PBOglZ6BXmKFxMrbvmMJy1fXMKY5XcJKq7J3rktZeOlkdwM3OcN7GfWe1H5cvKxyh5YpiL5JFjfl8aZxAE7CMMpG8vCkFntfPnCeOzJkgv02Yh2eu8/SrbFV6qbFjYXpF+vTcAehwjbRCHaZrLLI4tS2SVy99uGpYOQMEE6vxw7LNUd46nzkhCdmeUKCc/I9Ix8BpUnXO9NbExxXnpninRflF6C9X1QGdSYNs1b0DOO/Fjehl5qy7FSX75xt5PvJE9GPjLO0z5qv6Hc/X7x+qyPr0XyTRhfi9jETPxKu0c1Qa5qJBu/9athEd/Yt7F3ck2l7vbaJ//hsz1lH31+EHe39JEss9Skc7k5RPe2O9BILgu90x9eTDhEmUrjXNFrXV1eiB0EwW4iNKcvvpWgGvm6+WSHEYUu3msCfYJCig/lcQ/bqGVzdfTbFtjjMLAOedF7J8csZ8OdrE5bdfOp+pCJsjBd2+il2mHd/qVu+IQ65SnTe9P0i0D7o2hSn5o8UzaGComvSl+7P2J07Y67lWt+o4OhzsQ+Gu6hvKHcuKEpUgj8epeUe5QQAF91hcqvZ9WzY5pv1QBIzKb1t32hQ7kFcbiGYSc3vCSdvXGN5+JuAy7KDqpQ7l/b+fdm7hMNgD7BKTiafmGPA0TvnZR647ZJuZN13lZV0KnOL9QO6+rs2Dp2QX94OJqUof4z5WOoyvg60lcwZ2IfDSeU+s1XZwjlvyWrkplQg4W5mdFUHhCX+AQrv+tOkTP2tnQttyoqTj+rVaYN8SF8FN1L2ao3oHrvgpS5falVkrpcih0EcLeUx+U/he5naJkv6BMcnWPo1wL22Ft4D1HhAEoNDpP+8zBtVQEH0fnl2WFdnXWu45rlQX/YFfa4sVEZmpa7aAwVHF9LfdVm+PZRe0JZ9Moz/jCTGdHnByENYyNuRkwcdPLwWYTyIYT6cyHSKMN3Ipz7enZHv18aVA356nlLL79tI1QrVhUTtBLC5Nacd2emqvKr34h2UabNK6l2QZtoQZxs1Jl7EuygDXfquDJ6Mst4qHxBn+AktNEv7PFsGH0SvZUYQBX4Eiq5lPdndlvVJVU6hx1WUldnTXXcVXmC0ofeK3HHjZImZWhWbu8YSlI3Pkdf3vZKu5mmM8ALtI/ah/II1KZOY2OmDiOmxmpDp0RvWnU2pOY2hMpn7U2esbPx0/+MEbfeQGpuWFVx2M9Zm04N3Pu58nniT+A0vDSWm8bzfIKdXy1nT7wTQ6ghZVJh8pt1k/i8G4LNOJO8WOEu3A6C8G+4ZlQeauZLf7bVUCRfRy5WmMvVZyjt9N5/cjoqoonNNdFvLh3Y49AorDOuvBP0/dL+LLGDVHYBh1iEhAnUeZq+k3eVz/OxQ06jFJ1Xz6P5dBKZJYF1usnHyvCMR57V5QmxjcD0k3tnrnemSPe5fCck+TfjCyqDkmla34OeqTGGCokvQF/uZ98zSVkuxT4aTSgZlVhyRfsFZzyXSa3kNJy4PAXJCp1crlKceERm5DNmXIlwk4u/c5QUKkjGzZPZmZnwd15ayU1Q8Dxj51dXvihSytaX77mqMtl5sy9ffExOd96AF2wHQRQ3hol+a+VLV3wrOkcGjIrDaKAEOR1cqD5D4TjOmbI2QV1aD01trq5+fem4dpTEo79NuAR7HAJczmJ0e2ddrp4UOX1aRuFvU20dhIQRBOhccf52yN+VovPliDSlVGeeul2uY4FXD1XlCdS7oDJ9yfnrneHvfch4jTjMyyuugDJk+dJ9ReUzfp0qPGOoWnlILldfbpj894rLsY8rnkyKP+jXr18URULsoBa8AVbJ8lTwD4lP6X0RNztdCnTC6e0AnALoHYB6oM4MF+jucoHuQRlsHw0P5QEAAAAAAAAAcOlgQgkAAAAAAAAAoBGYUA6eFj+mCgAAAAAAAAAtuPrx48f+379/0jd6Npvp2wAAAAAAAAAAQDk4lKcl2KgMGNjBZQK9A1AP1Jnhwrqj//QHD/v/Qa/nCuotKIPtAy6vAAAAAACgMZhMAnDZYEIJAAAAAAAagckkAAATSgAAAAAAUBtMJgEADCaUAAAAAACDZkOzq5n4//HAZBIAkDCMCeXumW6P3FCCGkA/HcCDgSu5sfn2eafv2eyeb+X3V7NuJL2Zibhun0mmJnV4Rd1EnZUlu2Afp+Jweh4qPvvkq582Cv2FMPD2s6QPTfOdXJ5EZF6uprQS/01FmCIZdEnryWRJmVOC5XJLviJXhyloC4oUWZIfpYPkapCWtqHc9/oys1Sdllt2cTU2zh5wcDsIC1NJS5uuJFgO4jqFvvmUV76Wy+W+n6z3kWi7iCLxV/8QItR/XSr91s+xaG8HiRzFNVnsY33XZB3p76MDSDpe7Cci7tZRryOZx8nCLoHK+2Tv3B48g6v/Xel5kMT7xUTVIV/548VE1a+C+tcLzkB/h6kzQ24/i/vQxCbT9lS3r2YZVLn4WY5H/Kvz4rbBXSDT/q8L/YWMG4rD5PoTLRdT/iFh1L3QfqkqP8b91mkl6DQNmw5JK8Ru6sLPn4bD20GQrVTSzqarKX72EPqui0yv1xPKRCgFQuwDnLeLZQD6ORbt7UA3FlEk/vXJkr8X33HDd4hGoqOBqmyYvQO6pHznZSWDq/8XO6EMtT896eyrgDChLGCg7WdpH+q3WTV4TMKqMCqIKiP/aYfpjk50FzJuKAtTMGG2+p6QMIJgOQXkx1ZTvh1popPcRCcorRC7qQ+X/egcww4CbaWUtjZdRemzh9F3XThv/XV55Ve705XQZ0xCMPom6A3Qz4G4p/toRa+ut8LmlVaR+E5/VOzo+Tbv2mC5YiWfZ88qrOHO4YZzcV0oqt2odvTnXf+Z446Wos3ZL+/0Z0V5GgHl28ys582r2EVIXCXlPijSZYXzZrs/ybxaZTFdbvqmZ0FO7nk3nD7pdjObivqzzuzPjJvDp3oZ0ePbmqLV1EqDKS1PI70qqvJfpT8fdl797luHKs9pGVD7WdWH7v4QN6fRvd1mKt7pD0enw7iMHt/E6H8pWt2eUVVmpipM/EFb8c/Np5H6rBlfi7DbF/rNcgkJI4g/RChhF6VyqsrP6JHeRN/mdG05gtIyEek+rcR0cvGTHpNihKQVYjdD4Fh2EGgrhXRh02VUPdsjffd3Qqkrzltak0CvgH4Oxt19RCtnRLR5XRU0GIGs5vTyEPMSo7jesg6qAB4sjedEi5jDiyteEM3HFZMNMRj/FolGeE7jgAFwszQc7pa6TMkVk2xzJwv6qsXF6UzfFxSbYUjk0Z0xHJHV9JXudX7WQmSrqRh0Pl3rPHIZtjT/Um8SITmGnnUHF631MzK/K5o6g/De6Fbk92k1oYV+SA70p+9p3uKHFxqLzG5pQtdjDnFHX0VCq6esPPxMSHnq6vUQtunmVWXVnvCH6udgdnpABtN+VvWhBZMHOTGhG5Lj39FnehB1YjVtuCfr2ISMG4LGFkldLaMqjFoAnbw/lU/8G4x1ds9faL7N2pzgtAw237lNiuhbRbq5tELsZggczQ6YkDAFdGbTBVQ92yN945RXAPrG+Jomq1djgLChVzEgbtzgSao7phQ5ABdNrLMy+lMMsrfzL+VvJHgSwCNPnlSmHafnLUabNErYzMaqc/35KKa3Ap1O9E1/lozosxyFmTI+LpPF13SlmgfATJZHnb/tB8Xycx2OoGe5ohtRNj7nt3pi0Pxmy7wvupUDs+ibyot45stc5H6dTQpGjz/VRNXofEefbjL562f85flu2VAtvQbmvx4b+i7yKiI1yvdNaGtFT4nga+jncHZ6QIbcflbAiwVTGXeiF1H3fi7EcJgP49GH8tR8mz04WL+iBXpxXh2pAfSWPtgYQ8IIq+WP25tveqGAr5geXsa5t9bB6Lf3Y7e9qJ0W26z4p+yNZmFaefJ2cwZ0ZQdBtjIsTqVvTCgB6Bty1dlw22J3rckDfQ4cz3iZXFPweEpOGCb04CQ4+vwgG97KBtZ6s7QWQ7EtzcfOxLJtGj5EB8uNqDlZ4IFctnqnXdx0J3xKXPcaoaCWA17NMfQsO2B1mqR3LNQr3ao3A8nbqWTV3/uyypSdLKOmtDy2e2UtvR7CNr3uT8rdPF3hrqGfg9npIRl6+1mEqAPSNqK1/bZC2xG/BZU2myzmtXjL3WtEeZUjjDE51+1DSkgYXS/sbRjay2b11Gzin/Z9a7qZi8liOrmvl9bu+Um0LOYbTg+FaTkU2c3Q6coOgmxlQJxQ35hQAtA71Mp/4rbF7lqTh8/i7hDRHWniHue43nXGTrlhciNq9dkCdj/jgfrVFb/himgt8lN7HwPIEB3wm9SnGAuxC6SUbcHksgta6ZbfDCSTIL3Ht2jV/+ZTVsd4UqAnETv5ULIoYlzSTbYdsM1DcE7tp4LfOFyJOsD7qNx96CmjT3RDhg01nRQNgLslu2AbdZLdsOWEOlvwCAlTTIuJv0S5zQftwfOkJd+OBS+CFKcVZDcDpis7qAoj5cj3javMXbkuXcV/an1jQglAD5Gr2dJtS7lruavdJ0GuvJfAA3/REPonFno1tmqTeFUaXnb0/EW9eVrnZxxypVE2sHJi28ODKvpGkA60m6uUaTa5LJ1Unly3yu0sx+43vYj75ls9noQkE0zp/ioGFul+OOdq3G/3zTYb6aefDLL9LEDtx9xKO8m9cRA25NtS0Ppt6ADgSUBaD9ndXsrX3jMWEuZQqHajiQ60u6u5wFWBL61SuzkjurKDsjDqkCvje3F1KdMu4u+DvjGhBKCPyNVmMfl6ruuuVXbSaiAFewrUm5qS1V2ZZzGxMH0ADdTzuhFvmoanfOneurhoQO4OKHf0m2cQg+aEes6R7OPS9Fa3Y+KD+1yUG6yRLznRMyawBeXhcO1POe3YNr11ULvTJrP9zvTeY4bYfnrgNw686MAHYHkHiUW2KQfDl4VcBKo4RdUKU7AAqvRU4BbvozQere86aZWd2hmSFn+uspszprYdFBASpi/0Rd+YUALQS+7onl0w5mXuWiOSC5PmARSb72IArv9uim9PgejI+GAS87CPPHe0VEdB5vdziMG3Wj3Tm8SD0ggoX/qWp+BQAj3gmn/PemB1Kp7+MAh6pmfPRGr3+0VIWQ9oeqVbnkQmA+5kz1L2kyBJR5wudHDZ5AmwxgTWVx6R65nswcvqQwUHsU3t/ma6O0q5GvuxGtfvITHE9tNBP8NvHArfgnttc0fP6lSg9DTk80L/lI0xq1L12NxzGBAmOSHXWXzhBZ1ah5l441GHY6VtV5205GJAwcJDSFohdnMWdGQHQWF6TI/0jQklAD0lOVUxfzBGxt2S3Q3VASnS9/71vpM9WOz+EcuT7nW86gz8ar98eVDAmiLrlFdx6Z9pMFfPQtIoL58eOAm2fChBEia9ZrQRA663ZJKr749fHijme1Xutz3ipHqWE0hjVVzo2HpGXOqx7MCc/uhW7afbvvwWMQpk3ifSPZfDf6Gf6lRifcjQ1ZRo7flZiFx5+ETNyPhdyyZ0YZuubgTsPmXlVdY9u0yN6/eAGGT7aaAWaYrsP1vQydLSp7zyftwbYZvstqeCnBl3tBQFnpj1Zn7j1NuQMMptf01ZGN7L/PGt7lseXzxTehf6zuIJT0u9bSyiOq1Quxk+XdlBSJj+0id9X/39+3fPf/z69YuiSDXAIBxWGvs7g8sGdnCZQO8DYPdMt2JAf7MO3+/IK9TuJBl0A+rMoeA3Lfy7oYfbiwvdXS7QPSiD7QNvKAEAAJwv+k1g5aFBCRvlnm39RAkAAAAACsGEEgAAwHnDrth6UlnsBqT30kxX8nCDM/L+BBfBHS1xijUA4ERgQgkAAOD8SX4IPH6gl3QvpHnJDZQyDCaTAAAAQDhXP3782P/79092orPZTN8GAAAAAAAAAADKwaE8LeGVbWxUBrCDywR6B6AeqDPDhXVH/+kPHvb/g17PFdRbUAbbB1xeAQAAAABAYzCZBOCywYQSAAAAAAA0ApNJAAAmlAAAAAAAoDaYTAIAGEwoAQAAAABALTCZBAAk9HpCuXu+lRs90yvoV6nBsYB+ytnMhExun8n7k3dnQCfl2z3TLdtOQTyJjd36fziwNgfViS7LOVSDIdjuYfOof5Myd83EN/3DksUZ2WGXnMympT78dhPSh8p8p2GKfkP1+LSeTJbIJSVYdo5cdB3IvrevorpRaCObmR2HJ4IQXZbm2UMuPyHlalj2XtPUDhIC9BcUpojKZwv6k8A0BtNO8CmvfC2Xy32fiBcTbq32k0Wsbqwj+Zl/cbpPcJ4ukaHo51j47GAdCXlMFnstobOjs/Jp20ltKSFe7Ce++z3C0rvO7zlUgXO33WLi/WIiyl6gx6Td67Vsem6HvrbyGJzGptf7iO2FIvGXTUgfKvNsPqvDnEq3Mn//daG/YrlkFIdRcpns064hSC46viIbSOTvfp+LW8djJBauyxp5LspPjopySULClMN5OQ0t7SBAfzKMKRvdhgaNZ0PjN/NZg6G0EzJP/ZxQehQiUIIta4CODwvx8hiOfo6Fzw5kJW/RgPedLsuX6xhErHJg33P5WXrHhHLg+Nu1PNo2+6poTCi9HN2mk4GfvNx+MaAP9erxtLbXie5K5aIpC6Pl4i40Vuk338eYaH3wZcXh74eUnpK4wnUZnuei/OQpL5ciJEwVnJej09oOwvXnxhM2ni2ojzLfmbzD4vIxnHaCddRPl9fdH3oX/0T3d+qzxTv9OcWrXJAB/XSK687gc+8sD7Oj51t1z3J78Lju2G4R+TDy+9mzjE+FyVwn3Lj/qNsWIWXxcbdcU0Rbmn9R+dk9f6H5NqL12yONVJCUwjJItxOPq4d2AWIvEfmsU+aqPJfJpIpL1q0Kb8pKuf2YzxXm+QS63MymtIrWtF/qds10Y+J00rRH9Pgm7HU1zbmPlaafPm+7P8k4LJepfLkL5aTxyaIKO68eWQsOVZ4+U2VDTGUYls10JcaxMYnBn75pENKHjh7pTYzTEnM8C6rkwlSFiT9ET0F088nuGcbXIuz2hX77bE3E+bQSQ/zFT3p0OxTB7vmJVpMFLcTovTYhuqyZ5+D8VJRLEhKmjxzCDnxsXkmkQg+f7XhGj29iBr2k0uq3+00vIhOT67G+oRlfixi39KIzEX+IQNF9eVw+htZO9NXl1YdaZWkyyz8cQoT6L9BH/RwLnx3YK2V+1EqTsXLoWXXLrS7mwujVKHEvW5DKr2zl85NfxVJpFaz6GbpV+bbjq85nBclK28K34qYoL0P1ap77fLj8/eWw9J7kXycP3dp5cPNYnucj61KGzZ5140pl4t6rk77+bMo6yU8Wj5ZBsJwUVhidjiM6C3/5snwxKm/dl4e/PwV5Oeap1KGgUi4OPtkWoeIuDpvL35HpUnchcvGGcd7+JJTJplSuUn/qOa+N6LdkWX3SbVOFLVlp1slzVX4MquyFCQkTwqnqLdPKDir0l8Wt7ydXWQOaoOt+PqiKS7UJqg2cTDidLP6i9iKEKp2W1YVDIcs1lAmlElA7JRwCzhPor36Ohc8OqjqDpDFyZZY1cPJDSZikwcgP2hgr/YKGz0pL4G2oCp71xV+ez2pK7SigDG55xB1r8B2e5wqZaCy9m/kLiTtIZgPXbdLprzkOI2xAnt38izsH06W8n2TGmzedtvmsLJv+HJK+L0xusON/pkxOjE8W7jMZvsm6OQASlJZH67FJeQS+tvIYWDLyUVrmED3764Jb/iJUuHzcEi3Xwu+PRJe6C5GLN0yBDlTd9tm9z94TVL1O4iq0EZ1mqA5yugzOc2B+JGXlSggJEwbn81S0toMS/SW6suuv3dcU4mnvFKbcfToIjN9DzrZMTthOcJrD+NmQzYzGc35lvKa3Qb2zvxCgn2ZIlw2Pq8XnB3F3Ra/sOlYaZksfsb7B3HzKuYemWG4Ryo2SXbWk3lwm12Q6cOx+v8g85L06RBOdUCefhezoN/uPCLbz7/kT3QLKYMmO0S4pXpeREPknODKpBLpV3C1pHW1pPp3TNvqWuVz1Spc7+vOexbv5LvJKEXm9jMxnpVuTpkb6rouWiDQn/5Q6ug3F60Z1R0uRTtp+19B5rfL0mRAdtqkLZVT1oaIe8ZhNjBjpZj6u7d58Vog68U2M0LfzL5krtZDfdKX/dpDuo0I7i6/5Ci23VtCCfpaMW6Q7+fiFHmKWP18xPbwIHRSdUOvTZWCeQ/KTUFauhJAwgyVQpqH6s12CR/TIka+eOnDXV21rupVC0jD+nrcTvZ9Qyr0K2o/aVgjoA9BPc3Y8ihWDkPlYDRLTa8wD2u7J9mGN1f5E0fDEC2PiUMoN5caNHbOZJfni/ZQrmnoaw8oyjD7Tg/i40iN4OTmYLMjXnx5S/tBtxt296DgF7kSwP7qM6WObTILU5FJk1r/fxZzY8+RCTzAPqe92ugWhHLvOJtTrQ+/oK+u+zh6xM+RuuVcLVYmunq4pjhdi6pRfzJD71yYP5KwBsODpy5xo8TO/Tz/Fu/9Q76EWfdSTMxso02VlnkPyY1BYLoOQMEMmRKZh+ssvEinUIpG7Z5ovuW/aXFT0kNtbmaMifoMhtBO9nlByR8qzcRYg3nz1D+inHaNPN+L/E1qkK2f2VdpmyJXyGuiVO9kYyfgrNpvnaHjYUmg+df6iNefrjpZrufRIX8xGNagMI/qsZiG0Ef+9cviHz94OupX8K4BuE3b0zD26YDU1VoR7q0ueXOo/TTxvRzecIT3BPJgttdZtx9S1zQFx1DqradKHqny2eBt6JvBkItUPH94mdeAujql2w+fhobwz7AUErmvc74yTg6S0XvNv4cckz34xlBCiy7I8B+UnpbhcGSFhhk+pHQToT9WnctQBPUY64jJ1/O52oNoLJJ+un6r4h9JO9HZCybNxrkzR2hYs6AfQTwc4J4GliEFkejJiQRi1ml7XtcxdhctcTMsocueSq58JbfKpT3NjN4500CZdJbkvNdxZJNVlSF3UZv7T21JC5N8U6FaSntar3zrbK/p91KUaaLgoN1ijrHKiJ8qVGOwhbSlX7jDdFjL6JIZb2ZtfhXanTY6t7dQ2B0KIDjuUS2Ufyu2imFTkThI+Zx20QC7wuJ4FJadk+gbx3OeIUTvF+zf1Rkvq2zNh0AtPyRuopuMhM89B+UkoPf1TExLmDLHsIER/RfVeUrD1IUF70ZgLCxI5kdV1tLQeV8QvGFQ70ctDeQo22/YRIUL91wUxIP0cC58dyM3hZYdACGQYazN4fgN3LkyywTwN49/gbaWfe4ZvJZvRs83uRXnO5SHZ/G2Erc6nD5137+EMWhY1y8CovBjPatzy5fJcJH+PTBhL7zp/yaPBcZ+tblV50yAyXp2fXulSyThtz5yDFnL5kt+b6Sgq03fsQ+KJS6VXT05WuXzpOKg4jHQ9+ciVx81Lk/IIOO+nwK97m0odCirl4uCWX6KfKe9DfXVf5edUfW+XuvPKxcEfJq+TnD0nFNTVInw2krcJp88K0mWNPBsU2mxIuWqWvYpT1VumjR1U6o/v5OJ3+oQypJzNdtDNl68eB8Y/oHZC9kl9nFAq5bLCfVd3FaQLOE+XxpD0cyy47C6qIfNfZkXPydNqGBRuGLuh8DUoOn2zM9INX3rxd06nU9iBCezyRPsF58kJW55PF51vEc5TZEWS5ySdgDJIdDg3fV/5quRfJhMOn+IZYF+UbnUekqzm03PKEpBniQ53SF3K54z7ZjwyXSuv7sAmozR9j32oeO3yqjiMNALkZJXLTUc/74jCyasjc41bHksHDcvD8ZwC28btyyxXqQ41pXJxcMvP5NKwLlt+br7L0jo0nH5X+OTiUhhG214mF3886nm/bfsobR/M9AraivxlpB2YZ5Py/JSXq27Zq+A8nwpVlrZ2YITzyFS1XVmYWvXMbaM9bYZbjz1BcgTbluDU7QSnecWTSfEH/fr1i6JIzGlBLdjPXckSXDKwg8sEej8T2G1oPKebdfh+R3ZFEo/QInbc0UApqDPDBbq7XKB7UAbbxzB+NgQAAAA4FPzzHOuIVtP8XhQvG3V8e7TGZBIAAADAhBIAAADg3/DSk8rig3Q2NLsS309X7NXU/PRWAAAA4IzAhBIAAABgkh+Gjh/oxTi+P7umRGIiyWEwmQQAAAAUVz9+/Nj/+/dPdpCz2UzfBgAAAAAAAAAAysGhPC3hVWtsVAawg8sEegegHqgzw4V1R//pDx72/4NezxXUW1AG2wdcXgEAAAAAQGMwmQTgssGEEgAAAAAANAKTSQAAJpQAAAAAAKA2mEwCABhMKAEAAAAAQC0wmQQAJPR6QrmZmce1F/0uGDgV0E8H7J7pVsjvtonw9LOp7Dcz8feMQn6XvQyp19tnKstRSJih0nnZpF56Uj+0zSQ/3n/ZetS/KZm72tehQ2CVx9EjCKBNW3sA/PZZYJOuomWbUvL9EWg9mZT6qKhrJWF2z7eGDHzta4gsw+QtdZV+X9CWh+gkIIxdrpAw1X3L4Nv5VnbQJIy4fPorokyvut2xvjeuOsl45dBl/G3hU175Wi6X+z6xjki0VtF+rT+LG9x67aP0Rj/gPF0iQ9HPsWhsB/FiPxHPThaxvhGO1IEUeLxfTFgfzeJxkfFOFiJWUMXg6r+2t0utp4qsvvjkEC8m8rte14EB6/FkdaZFW9s5ur/M2Zi8P9mXZpHDmM/pcqm+4LDIPP/Xhf7W+4jjMscQOYrDqPGHISff+CNUlhVhgsY6ITrJPafLZ4RJ2p7URvUzZpigspskcbRszziO09DODkLChMi9kFx8eb3m0WFq6aRYDnmaxN8OKa9eTii9naUeBIQo+IiwEC+OAennWDS2gz4NcjSyAT5iQzRkBlf/vXX3kgjp7Jmet2cD1uPJ6kxv2tpkYJhvZ9XAtnqS5Zah+rlu6ER3yWBdXgV5LgtToEe33wqRSWUYbz1z24YQnehnvPpOJjv+tsmKJ7DsGcW2VheO4+i0tYMgeQXIvZCCfkLmu3ihQqZf8n2OkDpjUDv+DuC89dPldfRIbyJ/yzv9GfQL6OfguO4XPjct2w1HXB6XlpB4mmC70Ci3odnGdh+y0woJo6jKs0x79kzPt0mYzIWl/NmdfIbvWbJz5Na5e5DH5bUv+r00PW5mU1pFa9onjZfpqsRhtfvQbDOix7c1Raup+FsFTSjNW/q8LR8Zh+UWlXe7qtK3rzxV2HkNc/XqqjxDocpOmSrdMCHxMLvnJ1pNFrQQo1iX+GMrxov3VNi1bl5pRRN6+DzSNxSjxzcx2l8WP9cX2J6mogSLmMSAXd90qAoTf5CQEt18smUwvhZhty/0W4u9UpaCyjAhY52udLL7Q+/in+je98Q7/eFyBZY9oczWek8XdhASJkTuRex+04tIYHI91jc042thEVt6cRXCiHI9rcQzi5/0aGfLT0idMakbf4cM5lCe3fMXmm8ntPgaXD3BEYF+uoMHL+M50SLe85Ig7eMF0XxsDVA4zPR9QTF/L6+YFjSnsTH6DYmnS1bTKdG6PK2qMMF5Xs3p5SFWYfZvsuEMfXYr7r3e6zB7MWnY2nI7NH3X79nqUXa0WRslJwDT9zSd+OGFxiLhrRgKqPHBHX0VHfjqKZs88DMheVtNX+le5mtPazGYW03FJOPpWutT6HKypfmXLN4QfdfFzavKqr3/JlTWdcszFELKH6KbUDmyDX7hcD8f6ZO+lbGjP2JkO3l/KpyY7jgA3dCnkT3Br7Xf65ToCdpb2Ug3JExaR4uolmVYmDzuWCdMJyN6/CYqjmijvqe3N/R9zrORB5Jz0YLJq5z0yvjV5+qya0ptbQB0YgdMRZhguRfjTlhp9Ek86WfznfuYiL6VlssgSA4ZtePvkr7uoUwxXvW6r637AOfroum5fo5FYztwXTIKXDSU+4V2YdBhXC8LFabcNcaKpwDbHcSPHSbEZaS5O4+bZ+XO4bh9BD3rdztyyxtS/oQgvZvuL6fWrxP3JelRfk7y7ZWxjtfMk9RdSLlKwug20kzL94wjUjuMwCpPwTMZPj2pe2neSstTYq9V5amgcVvZFrcsNcpfqpuQeCTKvpJwrn36dWa71Kk4xWdPvG6dPARd6i7EZrxhCuQt5SnuKzFUyzIsjEHBWKeWTnTeffH4SOJOwwWVnVHpJ+HytlYfjv9UNLaDYHnZ5ORehKctVPhsiym6H4ZXDhbt4m8Dy6H/byjvlmzF4lrTzXxc2+UHHBjop1uki4bHfebzg7i7pY+YP5grasr9j1dEx7zamRAST8e4LiOjT7xGZ7uMlIapk+fJNVmLjnWevflEJ1i7UwxAv+epR/U2Isl3sorrFENh5km6LmlK87aiV+OFRG7FWoQoXCUP0XddvG5cd7QU6aQr3TVkXas8QyGk/B3WRflmixb0s/DNgdJP6o4t0W+2Vk+WS7HtzuYPc7YInaiXfV+y8m5mNF3pvyUhsgyXt6RirFOlE36LfTV+oYfkLfY+pocXEU/RSbeiTNLOonVWZ4PKHmJrZ0CILALlZeGTe0dIF2TRKiwO5Ml36PirGNDvUCr3I5+fOOgD0M8xkZ0Tu9VcjWm+jWgtOqiY5d87nEmAl5Awl0X/9Dt0Pcb0sU0mQWpyKWZbotXyYE5UebKgJ5jKtW1L83GiG32NeXLajuHU58ujE90Y7ofNhqhm3cpPXhWX047eLdn12qiL7H4dL4RkQhY62rZlvrFOhU68+9rEpJP3aYspwJMze1Xu+GrfnD3hDSh7a1sbDiF2UMdWiuQu78s2ILuka7S54OjB3Vsp3WgTF2eDwvhrUhT/sRjQhFJUP7kKfjmN5tCAfirY5A9nCUaugmv0Cpts9ORKZ42N/2Y8RyGkg68I0ybPRy9vQ3qv33PSI08u9Z8m+oAF863e5lUoQk8wVfs2yfbJOZcz7gunjb4PwVDqTBk9a2t3v1/E3/ZiBMfLe+rGNfKpbBAwPFFI69+bmDxJeYfteWuLOdYJ0om2hfyb/jHJ82GMQRMvYPAbMra5ojdkZWXvytaGQogdhIQpk7s6YMmIQ1xmmHf35B7tIWLre0PcnVgLlpqq+MMojv9Y9HNCuUtOltOfNWqFOGRgAw4K9NMC/4Q7bXgKTgfLy9ZdEd3Rbx4NJwTH0x1uo6rSshvt0jBt8nyC8jZiAPo9fz2qQZyLcoM10pCTiYjWyUyxIG+tJi8pFfquiz4UYmX64Yo4pctm0nAfRdanpD9trW/AuI74az7sRx1GVd6vavfsIhuUFLhwXwhy8SfxOgiRZesw2kZCdCLDeCYeenEreZPFb6p48het600ozLIH2doZY9lBAW6YpnKn0Wd6cBYEJHLC6rShpafJdsCh4w+hn4fy+DY0q82mk6pNskdGiFD/dUkMRz/HIswO8nJTm8PtTdbqnrHBP9nInzznfhaozdp2XJXxFCCfq9jAb4fRG8HNtPRm9cweQsLoeCvyXJS/6mf9ByW48RXF7yNI77KcWb4q83lI/eowSRC7rOesR/VMmked5ySKnHwdnSXk8pbII4vIkq/EE5dKT6flkU2hvpPy+NJxUHEY6XryUSnrJuWpgMt1ePrf1lr6lPjs2rFbQV7W+TCHokvdhdiMP4xT5wQqnGmTIbJsGkalX1cnORtJ4k6e0zZTrseQsufJ21p9jlNv/TS3g4AwQXIvwelLfGlKCvqUOvjloOkg/jbINrHPp7yqCphdjRV+QDhfl8oQ9HMswu1ANzbp5W8cVMNRIlvdiKUXdxaFA72SeDy4ejWv5Hm7g1JlmkSRGkTpy25PQ8IoqvJc1jmWP+sbHOTjK4vfhdOopIleutKvjictsu48k8+XpEcZp/vZjN+SeUGnLXDzZuXDka+kUG9GGgH6tsrjpuPqWWPn1c5DglseS9ZNy1MCp3Ec+t3WFtm/vG/E4+pU4uSpKq2u4LS6IsRmCsNou8xk4I8nRJZNwnjlHaAT10aK2qP8ZdhaYNlNimytDpzWqWhlBxVhguVehttGeIxIpRMYXwGFchB0EX8buNxXPJkUf9CvX78oikTzC2rB/ulKluCSuWw74N/fmtJ7yZ6PsDDDI0jv7BIpf++w7+5GZ65Hdl8bz+lmHb7fkV2h1O8Lnr+r2LFAnzlcoLvLBboHZbB9DOpQHgAAGBpqv429BxGcAP4JiHUkf5Tf3RPlZaOOj4/WmEwCAAAAZWBCCQAAByI7Oe5r+OmQ4HDwb8npSWXxQTr8FlZ8P12x51Lz01sBAACACwEury2BGwBgYAeXCfQ+YLQLrO8sVUwkDwfqzHCB7i4X6B6UwfZx9ePHj/2/f/+kocxmM/0VAAAAAAAAAABQDt5QtgSrNoCBHVwm0DsA9UCdGS6sO/pPf/Cw/x/0eq6g3oIy2D6whxIAAAAAADQGk0kALhtMKAEAAAAAQCMwmQQAYEIJAAAAAABqg8kkAIDBhBIAAAAAANQCk0kAQMJgJpT8e25Xt8/k/dkwcBKkTq6Sq+g33cChSfUQ9GvtGbvnW7pNlbaj59v6cbSCf7ZB5DtJEnW8Oy5Tt/r3I3PXTHzTPyyZOPICzRlkeyj177dTzpdlz548pWWW13H64taTyZIypwTLpaDMm5kRRlw52RW0GSV6L2zLKtMKy3OQLgPSCgozFA5uB248/jCVtKzHhRzAjg8Cn/LK13K53PeWdcQt154mi32sb/UFztclso6EPijar/XnREdReuOyOJkdxIv9hOUesfwn+0VwBVnvI/HcJH0g3i8mQqfHVGCS9wHbTD/r/6XpVpevIL14MZHf9bH/SDmDuhDKQevMINtDlbbVn2oS203zlYyFjHwdsy+Waf/Xhf6Ky5xRHEaV2dCvr8x8z6zz2jYsncrnathJIn+3Lcmlr/Oe01N5noN0yfdCylUVpiacj9PQgR1Y9/K6Caln1RTns1X8AflXYeq0d90jy9P/CWWiJHH1cEDA+bo4vIOfEwxae8Sp7EA1VKIB0zrJBkRVqHp1mgGUxmtHw6Kf9f+SdOvpXL30vH06g7oQyiHrzODaw2RgKS93IOq37bSM6oPHbg6X9050V1pmTVmYAt3KyUU6RnT1qbBk5/lcjtYHX9ZYVMvbGZ+quPUgPyTPQboMKVdY2evC5T46re0gQDdaXqX1rIq29biQgros08smkG112wVc9t67vO6en2g1WdBCaAT0hNEjvQn7Wd7pz+BEbOj7fCvakXu6Ezr5JurI9uV3zhVHutDMnpULV+oOMaWV+G47H4u/TReNP3Y4y7XH7wbmugDl0wtzwbLjUWmxC5rlAuS6GrmuIFUuVAPDKjtfTvnzsubrcnS7mYmyRmvaJ42R+QzHJ12Q2JV0RI9va4pW05xbqeuKlLk9CtLnbZciGYeVv7wcrLLx5ZTPlW0IIe5dhypP/xlYe8i6mK7EWDcmMSBUgU12f+hd/BPd+zrad/rDcQytL64qM1MVJv4goWW6+TRSnzXjaxF2+0K/WS6bV6HPCT18tsOMHt/ErGhJibjiD20v+nMZrcaiIXkO0WVIuQLL3nu6sIMQQupZGV3U4yJ2v+lFFHJyPdY3NONroeEtvehC1rHjQ9LvCaVQ1Jc50eLnI33St0A/2T1/ofl2Qouvg2muho/sOLKG6u6eR1Bz+u4MmCWrOb08xLzEqC8xuBa3uRG0OhkR7uObEUbEN3ZH4CFY6b3Ro93mB8MDvNf7gvzohjxaJ9/HtJisaFpzkN5XeCA6fV9QLMumy0cefVyqbkWYp1XW5siJ1PSdFrF6Jn54ofF4LrrdCan++I6+ig5/9ZTFwc+IIOkz+3hBJPJlTcIEq+kr3ct87GkthLuaionB07XWDedtS/Mv9iQiSHc1cPOqsmpPsjndQ5RnEAytPdQTiLeiClQwwZCDR7ohZxyd0uu+uKrMTEiYtE772f3hITzLyNlbZuluRxxs8v6UfS8ut65ISseiI3qUqxemrenFjckDZfO68jz7cHUZUq6wsg+ADuwgSDcN61lKVT7bxi9wJ800+iSeTKhhxwemxxPKHT2rGtx4wAKOgF7VHosKOoGujsrmVQ6fKF34uruXg6LVq6/jiOhbiHImC8rGIXfEYzJ6/9NgYBmYXhVl+ZErlEb5ufN4EwO2t0fx18CRkyUhxW9mWUb0+WHCCrYmEZeq2813MVmMvqk2Rw74xBPrbII7evwpJkb8V9Zpjz6Jbnj7QTF/0M9Y7Zbo/H+Kh7bz75aMJ4uv6SRDTlQEmW60Xox4w3UXSvL2TZdXMHr8JiS0oqdk4KDT9Zfni/XGsVZ5BsIltIe8qDCVOs70l3IpfbHzdiZBDdC39JEa7YqmV090nSyu8ELJ+9SYWMXEj2xvvunvVZiHl3Fu4lk5Fr1bysWbd16YkQP6Kb3z4kTSXgXnWVOqy6pyMSFhBk6oTKt046G0nnVAcPz6LWwRW1nIUDs+PL2dUMqVGVrQz7NtFc8ErqzSgNd0w+5CZ/J2qPekg0ezQdIDHt+gdXJNQYujN58KG9lahKZXRVl+ZIfCHad22TsnrFVN7VqnBxg5LlK3alU2eRslJ5fmZMLEzK+MVyM7a49r2OcHmbY5D8mtEIsQhSvjdXQXitdt6o6WIp10Zby0PPagtVZ5hsAltIdikiFtKFr734ZcSl8s6pd66WQskgjZ8ADdxZ6M6bdVqyf9nKo/qbu8xA3DplU9FpVuzeMXejAmcHJAn7hP18izpEKX5eVShIQZNIEyrdSNS1U9a0vn8YfZ8THo54RSrhwr94IDqBMcBOVOVst3HTRm9/tFrlypPT9qwMqXakyNtxbnjBy4s3ueKHG6+ng+k0vZEcoyjWm+jWgtOo3CfUfnRqVueVU2mQSpyWXhHhJzUsCTLj24V65hW5qPs/jlJd1k23HRujsB594e8huNK1EY6ZLr+s7lOP+++G7JrtpG3WV37XhBE2thJL+4ovC8Ecyhw4SMRX2eATyg5z3bhu2F5dnFp8uQcrUp+3ColGmgbhKK6pm8r9uU5GriUlo7fnMB1ENub2WO4+q7lxNK1TnYHb3sGHj/wiAPC7gMpDvZmTVY/STZA2Du0cpW31T/kz+M4jzhzsEuO09ABj+p1Cutak8Xl21Ahyl0RqhulctPDn2ggflWT7pF6gmmaq8m2X5D56octxfRN91VuE0Nn/NuD9W+WHZ9jIPfaFxCX8yTiVTP7L4o7Vy5t6vytydoLKrrV/6t/5jk+TCGEsryXISpy5BydVX2oVAq0xq6Katn6kAjIx1x1X272Cb+d/fkHu2xki/XaenlhNInXD44QHUYzQ+BAB2xe9YnBerPGrXiP3DXqSGQHD5h7dFKSPY/FRxG0Tn67VAvEBOQn7w6eS64q8w7+s0zpKMxFN2qwYGLcoM12iM50YtoncwUC/bgcLj2p5x2rDt9CIO9H9A5ZbSgPGffLp9xe8hvLngCw4dTeQew6ItT5GJR4qVQVLcl2jW+VHYqTNBYVL9Fyg369UJX2VskK88hugwpV0iYMyZvB9W6qaxnLWkc/+gzqe3szsqQnChrmwiw42PR40N5QG/RRm4PbtQqse1aAA5B7vAJB3VYh6ufLhiRXPw09yRtvhO/HDgJnoG/WlE+g4GUHhTMjVGwOvFPf+icoemWJ5HJoElMNuV+kewnQZIOnJKVao5PngBrvC307cERpZ/Jnj87/KY2B9Gddn0z98RI/RinefrKIwYbfPBQq/L0nLNtD7Xu+I1G4dvyi+yL9emlxgha1Xe7LuQP19rR8xO7G+p9tl7ZqYWfWoexeNsRXuzhn6JJDmMKyXOALoPKFRDmLAizg0rdhNSzNrSKP9+3yXKbfVRXdtwBmFCCBihXtDVNUzeQ5OSsQ6zuAAPROKk9AWUNRXIYRdmGbDVAzf/uWjl3S3YhU4elSL2/3p9ub9jdUv90QmKD7FJCYtJwBl4MoiN8U7/nkJXt5YFiuTxe9dtYJ9CtnADmV0kbU6lb9eYpdWWU4SfSJZbDfqGfxL9wLQSoyjMlWnu8W9hdyk7H+V3LJrTSncYjT35bYuVVTpDtMuXKo4TWrjx95ozbw6J9oepKFlsusS++o6Uw8olZv+Y3ufot3y6uKdPN1Vj+dEsmF5/sxvJnYurKLt+OjOVBPnHq7h6S5zBdVpcrLMzwCbODKt2E1bPmtI6fD2gSfUd2loDbR3Vnx225+vv3757/+PXrF0URt7qgDqw8doMAlw3s4DKB3k+ImEzcignTzTp8vyOvYJ/NosNAQZ0ZLtDd5QLdgzLYPvCGEgAAwPDQbwKDD2HaqOPazd+qBAAAAEB7MKEEAAAwTCx3oCL3Ib3XZrqShyKcq/cnAAAAcCowoQQAADBceFK539M+fqCXdJ+MeckNlDIMJpMAAABA91z9+PFj/+/fP9nZzmYzfRsAAAAAAAAAACgHh/K0hFfAsVEZwA4uE+gdgHqgzgwX1h39pz942P8Pej1XUG9BGWwfcHkFAAAAAACNwWQSgMsGE0oAAAAAANAITCYBAJhQAgAAAACA2mAyCQBgMKEEAAAAAAC1wGQSAJDQ4wml/u0w9wr6BWtwDHbPt9BNQzYzQ26+6/aZvD+pdzI89bFPedw9063IkzLBHT3fivzBHofN0XRa0NdczcQ3/UO2HUnds2QEEnrfvkq9+e0rpF+1y1f0+6uHpfVkskQGKcFyqpaBVW8YXXeyOOzLFHuITkLyc8w8p4TIue80tYMa8uqkTpXJejMz4heXV1kVBOoyZzdHor8Tys0rrWhCi1j9flh64YfEegFX4vF8S5NFrPSyjohWUwziaxHR2rRt83p7pJEOdWpUgz2l90TX8oppQXMaN214ATg5epJq/E6lecWLd5pyx3/qyYfD3VLkr0ftQ3/pa/u6odl4Tlv9ySSkX+XB4nRllG19Q/PxcRcV2r+ZLJZBRnEYloH4KhsfVslADOanK/13wuiR3hIZptdaWI1gsqCveqgZqpOq/Bwzzxkhcu47LewgUF7d1KkSWfNkUigzSvsZkYfa4+VAXfrs5ljwz4bwtVwuRTn7Q7yYiBYr2gsF9xohQv3XJbHeiwq559phMhSdHYK6diD6pGHIKl7sJ6JsojPVN0y0HUwWe9+3R0XnU5lkvF9M8vZ5CC6z/h+Jg+rU34blOZ4tNcKS0TA4Rp3pbfu6jmT51eXmL6Bf9ep7YO1dqQw0ZWEK+iSpc29fpOXKV0Vfpexmss+iDtdJaX6OmmdNiJxrwPEcnU7tQJGTVxd1qlTWBXHJZzx68xGsy3C76RpOs7dvKOMPMQ+P7gnvI3vI7g+9i3+ie5923ukP3lh1iHqLcvu8k6toqbuE+dbEdaUwLnMBzHYNUXFWsfnOK2IRfXv0reff0df1mmJntd/KJ1/OGx75/exZvx1KLs+bTu2ukpShKt48f+w0POGbyKQu5WmcVr+M/Zz/jfO56XQzm9IqWmceL6aMOc40nyN6fFOrye5icmk66fMby51WxmHpMy+jIFlXyskmRMeHKk+/OWL9YxlOV2KcF5OYkOibBiH9qn7jMlhHrSoZMFVh4g/5lubmk90nja9F2O0L/c6J/YlWkwUtxEi7FJHu04pfXP2ktLsL0UlIfo6ZZyZEzn2nYzuQ+OTVtk5V5XP3m15ERifXY31DM76miSjBizejBjV0GWw3h6KfbyjVjH4y4VWgZFaeX4noA5wvoFArP+1XwoZIXTsIl5Ve3RLxZwtc/lXTDP2MsUJVtCpXXqd0OjVWuvKrg/nVOZUXM+3qVeDKeK1VxjCZNZOJTZXeVRnK0jilfvP5M2WecHY6lffcMruf7XjkPSOv7jMqTiMd/dmUZSKjLJ4CPYbIOgljyciPv3weHR+gPD74mUOj8maX0U+YXdkU6K1Mfg4+HRRRVZacLR6QLnUXIgNvmII3O145SD2oe1KOJbYZbjNO2JD8nDDPIXIO4Rj1tojWdqAJ1XFZHGV486nbgnxzotqZojbCR6kua9jNIZB9QT8nlL4GPd+x9oFTVrI+oQy9XuU4J+ragWrYiq/MzP2DtLIGQ8VtNIYFg5vqRrNqYOVQ0HC6jaCvUc83lEZ9D4nXChMgs8YysWFdFVKaRlLWvunX6eRCZC8Ykk7lM0nC3nzotMy8y8GLna9SvfrCyDjstIrLm+HK0Vdm95mMcB2Xyq1JeQoorTMdoeyx+MryfJr6FyInRoXLxy3R8i/8/gBwWl0RIgNvmAJ5Jzp3dZuEK9Op+Da4r8vpJCQ/J8xzqK1V0aXu69LODhIC5NWyTnnz6WknFeE2l1Csyzp2cxi4jD11eb0jMb11DuAZ0eM3If7V08Bcai6AzUxuWhcVg968rpHAT/GhETn3i5tPYYdICF1MV6yKt8ylQ7qGTOjhsx3D6PODdLn4iPWNtliuI8mBJ7xpnh1THCbXZDqAqLys6DVxIdNuItLVqE68JmUyO4ZMStMwysqcQr9edy7V9qb1+Ox0uqM/otBJmROXbq9Hm1ke6Z6kqaFX1x1LREqu51NKU5mUEaLjGvZTqzwnZ+Dta1W/erfU5VnTzXxc2w16sIh6wkPB7fxLNhbUejHZPX+hOS3op092DtJVUGhrkT/Vxsank5D8nDLP50qgTBOC5DXQOlXHbg7JAH+HsqPBHugEuW9E1ODJIsYJvKdG+9pzZ9eNKsbE2xHo/U9wo5rtQxrTfKsGdPEiHYoXM/pMDyLYSo/G5UDfOYWtUbwnZMczF9Fe8WlxKu/6anrqXuf6DeO8dBrTxzaZBKnJpZht+ffqm5MMnjToCWbnejUYop1fDEesf/X61Tv6yjZStG/sDOGTjteRUQefrimOF2K6oOu20NUXPv3zZ9hpvvLMjskDOWsCFmU6qcxPSJgD5PncCZF7Qj152XXK3R/Nl29vvhdzMdID761sFX9NuzkkA5xQgr7Agx9ereMGFm8mT82OnkWrwm9b1qGjHbmyXsaIPt2If7YfYhjuJ2kIk8M5eLwlO1wxEN7vl/6BupcRfVazD9qI/145nofPqoFsFW9NKmUSzkgKz/PTR/qqNyg9hH4DOGud8uRS/2livknVbDjzeoLZrV4NjimTEDqsC8PnePWvSb+qbPKyFtvlz+ck9Y4PhpPyviF+ib77/SL+thd9uG7R1vdTV6ptKntLHaKTsvwkHDPPl0KI3JvIy6xTo8e3LA191R3zvrunVWrvEfb6aBN/Pbs5LP2cUPJKoBBK7lQ9tZzsd08CR4UnEmy00bp+xQLds5nxGw0e5HoGoQWnian6lF/JM7n7yqt9K3rytko7+i2PLzN//8p1/dJhAkhdBmfqN2jteJrH66WFTIIpOsVNTBzqnoZ5EP2OPoluN3uDqNCullbje6461W/gHZQbrBFeTvSMiUSHes3TsUxCdHyMujBwDtW+ulT2q6Vjo8vWlVz00d4GvgH6OhJfiL4q3hvuykzpSa4BOinAzE8Rh8rzJeOVe5m8Dl2ntKfO1l3tkRPf9vHXsptD0+dTXrkGZ9ibTvuCEKH+64Io2Ax9ydS1A7VxPGSjvK8u6OeTTdd603eZPlR6+YMk3Hh9xO4hBBKdr4o4k2fNslp5d1D5dL4PiVeHUUECZJZ8biiTBM5DGbk0chvxT6tfJUfjOZnWOetUxZPK0jkwIZcHVx6aXDquXq28azxxqfTs8taStS8dBxWHka4nH5Vya1KeArg8h0aVpzwfitPUP6+c9DNl6fjzq2yv/Llu6FJ3IbbiD5M/zCRn4x4snZoU1HFJkE5C8nPEPDuEyDmEY9TbIlrbQam8uqtThbLWbUiWRD7vIYTqstBuDgiXr6cur/zbX2KWTdP0FS7vKfn4hrdhfUC9Yuc36mNDP8l13Ffsw2ZF05z8kitUjjt65h9WEvj1MSNeeGO3kHhBmVvEmJ3u46B9r3IFTD1sxDuWm8CtFTA+VES0ZLTK6u345YFivkdhv096d89hRdOfuEYyHcTro41MQsmlceX8/mElHepXvkGzV2JZt9Zz03fx2DnrVLnhbl9+C8kK7pYi/ERkQ4X/Qj+Je+O0bk6J1p5V3vZ69dCFTJroWHCMunB8htG+JoT1q76x0ZTeRVqXMza6o6UQ9sSsJ/Mbbz0NQb2J8hOmk5D8HC/Pl0O4TMvldYQ6xYf9iHY86Wc66S96yBW/neQ/fv36RVHEHReoAxuHmpyDSwZ2cJlA7wOEXZzEgP9mHb7fkd3e1Byh2QAQZKDODBfo7nKB7kEZbB84lAcAAMDloN8E8mqxu2/Gy0b9VID1UxEAAAAA0BD9P2IL52SW+J7EAAAAAElFTkSuQmCC;" vertex="1" parent="1">
          <mxGeometry x="-89" y="1720" width="916" height="152" as="geometry" />
        </mxCell>
        <mxCell id="ztMBHTseD3NnfuisJvm6-4" value="" style="shape=image;verticalLabelPosition=bottom;labelBackgroundColor=default;verticalAlign=top;aspect=fixed;imageAspect=0;image=data:image/png,iVBORw0KGgoAAAANSUhEUgAAAs0AAABcCAYAAACV6ohOAAAAAXNSR0IArs4c6QAAAARnQU1BAACxjwv8YQUAAAAJcEhZcwAAEnQAABJ0Ad5mH3gAACNHSURBVHhe7Z27cttM0oZb/7WQCly+AirbTFLiSKkzKhQTZ67aDZw5oUKxnDhV5CqXxWwz8QpUDkTG312s+U/PgRjMAWicaJJ6nyrYIjiHnj4MGsCAOPvnn3+2pPjvf/9L//rXv/hP0BPQaTugt/0CfR8XsNdhAXsAcPq4OP8/+5n+97//2b9AX0Cn7YDe9gv0fVzAXocF7AHA6ePiHEnzgECn7YDe9gv0fVzAXocF7AHA6ePiHEnzgECn7YDe9gv0fVzAXocF7AHA6ePi/Ozbt2/bP3/+0HarlzYDAAAAAAAAAnYPAv78+ZOm06neCQAAAAAAAFDJ8tmZvri8W54BAAAAAAAASIOkGQAAAAAAgBqQNAMAAAAAAFADkmYAAAAAAABqQNIMAAAZlrdn+gGQ5HZxTxtbrk90nwO0vbm/oIv7ISQGAIC3AZJmAACoZEpP261+crrYnmi6mtF4gOT28kG1/3xHI/u5H5b0dbayfwMAAGgDkmYAAGjMJX2aT4hWj/QLF28BAOBNgKQZAABaMDp/r/5d0e+1+cxEyzkSV6J5mURR5oLCFROp5RnlOmfBMosN3V+YfaX+XRube7o4u6KF+nM1G6vvbmnJ+xXV7QIAAPBB0gwAAC3YvL6ofyf0bmw+c8J69TKn9W4Jx5rmNKPxrUtRTZI6nhHN16bMek40GxdJbIqwztZUihJcToh/fHB92+Uj3Pfojp75syozma/Vdw90qf6WtgsAAMCApBkAAJqyuaePvEZ4+pnuePGx+vxlwR/9tcgjur6ZEC1+2KTYrit2dRSju88qmV3Ql1yiavuZzL/v6nAS/H0+UUny13KyPZnTJ86GNZf0gbPkl9f0musm7QIAANAgaQYAgEoWdOUtYdDbeEar6RNtH2yWqq/mbsl8NMsluNzYf/hu80p8bXr6YZfZKi7pQdV73mWuAevfpFJburkufz+6vlF7F/TDz27fn8sfHmzSLgAAAA2SZgAAqCT16xlqcwmzpVhPPKbZytRZ88OCHTBLQFY0G7u27cZJuynSiqHaBQCAUwZJMwAAdGV5S1cLt2aYk2qzbrgr5mHDSbHuONiCvF3MUO0CAMApg6QZAAB6IVzusKFfj95129E5caq6KK19sEs5vIcFS4zfqVZX9Bj+rp1K0lO/vCFmqHYBAOCEQdIMAABdsUno7GuR/G7uP5K/pHn3286LL0VSuvyqykxoXjzBV2Z0R5+n/MsYH71Edkm3fFnbe6CwMUO1CwAAJwySZgAA6Ao/CPikstDF1W598Pjxhta8j17o1Samo7tn+zNzdg3x1QvN18+VSSq/IbBUh39z2X8IUYRJ2P3fae6nXQAAeDuc/fPPP1v+4+fPnzSd8gQPAAAAAAAAYPjCAj/vgSvNAAAAAAAA1ICkGQAAAAAAgBqQNAMAAAAAAFDD2bdv37Z//vzRazVub2/tbgAAAAAAAADz8vKCBwGHxC0cB82A3vYL9H1cwF6HBewBwOnj4hzLMwAAAAAAAKgBSTMAAAAAAAA1IGkGAAAAAACgBiTNAAAAAAAA1FCdNC9v9eLnW37nagXL2zM6u7gn+6ZY81nVS25euT4JZeiLzf0FXdz33GorvW7o/iI3xqrv/g7928OOMfQnu7WxEfy0C0u67VFnvi14HLBNW/q1Sx2w09ui0t689WCXoew7NIiFt8GAV5qn9LTd6qcNi+2JpqsZjQcw8uWDav/5jkb2cz8s6etsZf8GTRjGHorJnNaBX63nE1rNxrUnIWngp03hCfXs7Ipe5mtPZ2uak9LZ2QU1nms39/RloSzxZNp6vnPagW2a0LtdxMBOb4uUve02xJx/VCAWTp09L8+4pE8qwaHVI/0abAIHb43R3Xdit1p86WtSgp9mUQnuRzWhTlRiViS3zIjuntXBgVY0+9jQDuvfqtaE3o3t50pgmyRD2KUTsBMABsTCKdEqaS7dhlBnT692v4TR+Xv174p+r81nJrqtkTgjM1dRXJn4qknqNkW5TngL39zuj24FuzbUQeji7IoW6k++inl2dqvOvwzV7bani14j7BKQYivkd2M/Cy7NpnRYZxv9/e29t3TC2CbV1lB6yxHqc8n9BzLlgJ+mWX6dKa1M6XMpMXOog8PTE613Vz7MUoHbZXnJgC+HHtOVlp5mY/W3wD6wTUwzuxiqZai3XR2w01umRuce4fep416dHXQbieMQI7Fhnc8xXXwBsXA6NE6aWdFXi+IWxPrmkWasYSGb1xf1b3FVSbf34t9yt7cTvYSOjTWeEc3Xts85qQOsnwTGhHW2plJkaHaMHx9c3/Y2Cvc9uqNn/qzK8NWb7fZBHXrk7Talq15LsOOrRMTd7tY6nSzoKhGUVUhso1nM6PHG3RJ+ptRxm9saQm+GNf0O7ial9HnV4JYT/DTFkn6wT07eUe6i8OjyMrpVuLi6ImWIpBz69uKTlt7IKrjVCNuENLeLVIYq29UBO4Gszi2peTo87ontkDgOSepKfI7l7OILiIUTgt8IyNvDw4PSRcDTlF9ztFXJl2E93078zxZ1zNsqDW+VAxSfaboNiu3qczbnfw7bW88nXv2nrTJgUUdj9imj2s+BDLZd/3um3O56O5+U5WbKYwn6EbVbwLpL0kqvaXkNwXe6/YT+d9jyQYcpHVbbxtZJ9CW3x2Qb7Na6icmP37RTp8+4fk52V//N+2lEaoxVpMtHcmh/LfsBbJMntldDu4hkkNkOdmoSP8ePsXd+K0wn0HnGJ5rb18kV+KGorsDnKtsp5q2kDIyt/xZi4ZRh/2YaXWne/Hqk1NrD8Tul0ogFXXmX8vWmTlVW0yfaPvC5i0Kf1WzJfDS3Dbjc2L8iuHklPkebfrB1NJekUvxg7Z6HXSN5c13+fnR9o/Yu6Id/qvb+vPbK1o4m7TagmV4FjN9peVj/3olrMyS2cVRc4dJU6q18y6oWPiN2/mQ3lknNLVbWnD5HpO+QRcBPh6asEyWHNsQLvdZepIBtBqGBDDLbwU5vi9TDbmZz5t5RoXPRca+JHcLjkKSuxOcq2wmPX4iFU6fFmub3dC7Sdiawgqji2xTGucY0W5k66gzGftsOcyvErpEMndcUacVQ7RqkehWgg3JtHo67KuRsmkAPYZvOlH49w9xG4n2fym6liPWZPgmBn8oZk1bhy6ua6rsiOVmCbWQ0s0t3GULbwU6gLdXHvS52+Ds2RCycOi2SZskVIiHLW+JngCZ67Qw7l1k/0xVzNcSukfQd126B/4oZql1Dj3rV8FPzTrYigRYnzgPZpoQ+g+2COvNez2kSrJMzxPpchwufpcBPLfZq/eo35fJdXvvGE2q9n8VXmFoB2yia2aW7DC1sBzuBJNXHvS52GNyGbY9fiIWjplHSnL4d0SEZ0YSX/Tf069Frb3SuzkVVwle6B2BvaeSOzHp5wooew993Uc6aezJWxEDtyvQ6ousblfkmD4zmQbjJzXXmlotKoL+r5NJ+SrMhfUJZosY2UjJ6M2ewHZOn0R19N2cEu0Qtrc/U+JoAP2UuP7EfLehLshGrk+DK/0twVDR27/HOCmzTzC4NZOjXdrATKBAd97rYQVJX4nOZdrodvxALR0ujBwEVZrG799COLaMm5N3C8uyC+JBwgbxirReXl+ubfWGfiQeHIhn8MuHCersgvrTQPmwns/C+st0CHkeSlnrd9VXa5+p6+k7oJ9Rhuo7XttA2ZX0VhPuj8SXad6T1ln6AwWD1EsoV+VC5fqSDHG/VTzO4sfv97eRM9RnpJKib0xNskyRnL7ldJDLIbGfaedt2ytnjFBHbW6TzhI6tjzWzb9yuQ1JX7HP+voQ/mzKYs04VF+eNk2bGKNBt0+2cjRsZThJYChckbuN2Es5ROBVv5e+YstEN5TpqKw1EFtR5Z7ZtRu0W8HdJWurV4A6C3haVScgY6SxoRwmj6/htCWyT0jsjsUf54F7A38VYeRN9aZys3vclfar980Am8z38lL9rjJv4/S0Yl5LSTL7TaalsJEZCj7BNHi6fRWQXQ7UMMtvBTi3j50gx9q7anL1kOmfKbaaPe3V2SLXrkNiwXCb2OSZsJzx+mXFgzjpVeMzMGSfM6gP9/PmTplM1TYLe4DWERtegCUPpjR++uCLvKWagGc5P+cUY5rXO2Se+QWP2M6/AdlIwzwNw+rg4b/EgIAAHjl5rFTyMpvbxwxfhT2gBAAAAAEhA0gxOj8sH/fM9/s/tnV296Kd/cZEZAAAAAG3A8owBwW27dkBv+wX6Pi5gr8MC9gDg9HFxfvbt27ftnz9/9Ifb21v7NQAAAAAAAIB5eXnBleYhwRWIdrDe6D/2Q4Ltv6HTPoG+jwvY67DAPA/A6ePiHGuawVGBhGC/QN/HBewFAADDgaQZHA1ICPYL9H1cwF4AADAsSJrBUYCEYL9A38cF7AUAAMODpBkcPEgI9gv0fVzAXgAAsB+OM2ne3NPF2S35764AMjb3F3pB+24rvQHk8EgmBPblJdIx8JsAzy7uaWM/75C0Iyij29+VuaD7qKMykTzan/02ylvRJb+lLVEmN/4WcVLWd01/YrkVPemx7L+pMhId9Tcuke0H8CFH64R5HzHUs1/34x9hGbXVjL05G7q/8NoPtgupcQcia8ue2Vc/fwOJD+3nWJuKneFyIx5T3/67i+ue9dPK/9x8ViUL/3oGbw8PD9vj4Gk7VccK8Tve/yJKvfavw8C9O373znz3/vsDe4e8luk/Gd2xzP679tfz7aRqDG6Mwfv53f6imvUrvx1BGf3Oft8XozoBOXkibF9+OV13snXmq0YeJ1qelL4b9efIyd1dj6aMJ0+ijNlXI3NP4xLZPtrXbuw+/F02PiQIZCphy7eKoYhYj6adanv05R9DzIFcv8x6O58EY7S4/jt01xmtp4RsfbOvfvaNxIf2cqy1be76sERx0BsmdsP+OmGP39Mpj6VfmZv7n4nb3PhY1/r/o0qanePprT4Z+Ns4JR8G6QOaCe7D0mVeb+mgzY/Bjpm3UvCkD2qmHRe4gjIu4Esd23rJyTEnT0xq4hPbqmGc5PTdxjdiuXvSoy2TPEB4bUtk7mVcIttnfEHbp60PdZ1XBDKV6BJDMa38ujf/GGYOjO2R1o2h6rv9EMbMUOyrn/0i8aFh/Cwkr990/90x7faZNO90konfLjT3v/V2XVHYxfnxLM/gW31XC6WDtX5FMmjI5pVe1H/TD6n3SL/Q6zHcQ1v+IOUBdHM9sjsMo7tn5c0PFI5sc/+FFpM5zVWkD8Lojp5VLElfzS2WR/n6l4VKLebf6c4b6vr3ig0YjbNEj3Ei6s8nI3ctEj2uf5OSht6flxsev1NjXD3SL+u/Epl7GZdE5s0velRdTd6N7Q7L+J3y4hU9stANfagzEpk8eo2htn7dl38c5Bxol3IEt4NTt5Z3t7HdJrz1XKqn6rza/T61bYfLcHpZAtDj2HuRz8jDyw9Cne36kvjQXvxsQ6/cSZJLelDxsg0CplqHNWPn48rZlTr+qnCajdV3hX7DZSjy5RtL+jqzsa9i/LOaY1aPvzyZGIFNLOH3oZ/r72/vjc/pcsXyLTOGMY3H5rvKMRzf8oz+z9iGQqnX/nW46LOxA9NlTm+F3e2ZtNtSZ9T6zNVc0UqecdqrsUVV26ZfTlImwMiYuNJWJ49H2ibmCtVkwu3z92arOjOXxgm3E9O8v6wv9aHHzJXQcjmJzD2OKyCSOXmFlKm+YpP1IQvL25omMvURQx59+TXTzj/SSO2bI7aHGVNaD6GObNnAIKG+Y/2n64WEYzP6aNh25DNV4yuI2w3paewt5Yux9UptWXsFMoaEek4hKdMIG3+ScdbqUDT2eI4wY/Liy9qiLn414fwRzSeMzCahbrN+rvaFskVzRGYMXFf/j6R5OJySDxXnWCIH3yM5ve0CoXQQDIOfMfvcuOIJw2KDw7SZ0YOkDOMmsGQZoTya3CSd2p8ae4E0TljmmKb95eS2dNVjZiJzE6HpViJzz+NicjInDwJMps1KHyrg71sjlknos1K7ZvXY0B6d/COmjzmQ65ex8if05for5EmPtaRvO7ZwDLXxnanXuG2t8+bH26zP7Ohp7C3li0nbrW4cEh+SlGmFFw9mS5wgivxHMnYTq7sx2HbDMZl2q09UGd12yW4Vc0GVXBI/d59DP6kcQ7ks61f/j6R5OJySDxIXbKGnHQA5vWUnHj2WIkh1uTBYUkGXSr49v5KUibGB7/Unkcdhxlg/4ewIxu4jjZNGfprpr0ruvvQYteMdMCrduEJHO1qMKyaQ2coXy5Y6OPjEY/dpZK8QoUwSn21i1z792tCDf7jvs3aQEdvD6SG9lbuzZQMZUvo2hG3nYyin89C2BZm2bWIRy15NfgyOnsbeUr6YpvIoJD7Uk5/VY2NCb7nYyfmPZOym/d3xNxejmSS2RCZZ1f2VfLpeLqmfJ+3YYAysLwa/0/wG0et37LrXcN3T4ROvaTas6Pda/be5p48zovn3O0qV0iTXVo7o7vmJprSgL7yeSVImySV9UlFerKMUyOOh13dObig5xCx27Hsj7i8rd1965D0PW3qarmhm152dfXlH6/VcecSEwiW6MRIdNRhXkkBmvU44T7SueEc89t6QyNRXDHn079fd/GMvc+BkTupYzEdatbFezL5PLbor1muOabaakjqWC59ZeE/BMu+I2rb1mvI18a7FlSsb/KTkgByqfBIfauJnZl1tIT9v8vXBjF3LrHXBcVCsO27vP8Ow+fWooluFr14fXYxXqUpRdVzIUe/nKTZ6Ybg3Z7htPNPypUDS/Mbg4BnPVjqIn/2ncY6A0fl7+1ceE4zlINCBuJrR2C38zzw0pDIK0s8N8ZFaUiaDkdMc8EXy7FjSD/7u/bkowT4cKuTuSY8OToxMEqK2Z5XU6fbbTZj1NLdHSuaX8Mkf+6BQrJOCVDt9UiVTbzG0Yxi/busff2cOVAkNJ/Csw6bZ3PJW618nXnps8UPPeWoePBO3zSdETrdFgjp44nyg8kl8qKmfmQfa3RjMlq2nTlr5N9DT41O64KfqnO07+U8L7NyQxz4AWDqpdJuxXfxAYB3tHrA0c8iE5utQDrOlznOQNL8h+EyWg2f6VBGMh0zmCX/DlPhh5dTE88Tzhw7QZ3NVzF5tixIHWpO+IMaXpSRlMhOXOXs1V7dE8jiqnrqu7MuMvVea9Fcld096zLHkbMz98oJE5r7GJZF5dE03fAAIM199ULFlOoy9FQKZeoshR1e/7qCjkn8o/uocOLqj7yabi8ZSJvXLCOEdtg394p9BqWB0faNqxSde+qp/iaZtq6TsO1/BH4I+xj6kfKp3gQ8N7mejc3UqqFzpR9qRTGz4J4vN/aeWzPG4Ni71r2Ap3XxO3cka0bWeoGb0tTJGCuR+niAzBj7RyL5kCmuah0Op1/51AGTWEB0iVXqLbW/WPFWNK7WWSe8rrWVya72KtuvLpNZbBeu+EqTk0eTWV2lSfVWPXRonaX036K9S7r70aNfreWXM+BLtVsosKWNpbI+E7XUb/tq4cBzCdjw6zyu1MsW0jSFNZ7+W6CgeQ+QfA82BsT2svKkYd3JG84ynM2ufXX0rdzy2oF6CyEZt2k7YL469mJTPhPQy9pbyxaT8LBiHxIcG8rOIUFcOu3/Xv8h/BGNXJcN5KfKvRF8hkc0j/FiWyJWQI6GbsI4jqlvqv4Db0/8jaR4Op+RDoAiS1NZ0chkWlqkSFxB2q5uccsES6aRlGRN0xdZNnmpbhH1VzE3iOOF2ckj6k8jdix7dhLzb0mOTyNzXuGplZgJ/TR1QRO1Y+PvOCGTy0fJ1iqHufl2roxr/iGQtbe3nQK5fpippVkQHdFveyaIGr2X164f24u/0vnq5y3qbbuct2o5117Tf8lbYrp+x18pn26h28/oETeJDkjL94U7Cavqo1aEsOS3GVsRWON6quUsVFp1QGN9h2WRyMWV/i/08VccR2SzhKLyfOeOEWX2gnz9/0nSq1A96g9cCGl2DJkBv+wX6Pi5gr8MC9jgOeMnE1/Pn/b1ICJwULs6xphkAAAAAJwyv4aX+nxEAbw4kzQAAAAA4XZZf6fGm/Pp2ANqApBkAAAAAp8vlw3H+YhQ4OM6+ffu2/fPnj16rcXt7a3cDAAAAAAAAmJeXF8KDgAOCB0TawXqj/9gPCbb/hk77BPo+LmCvwwLzPACnj4tzLM8ARwUSgv0CfR8XsBcAAAwHkmZwNCAh2C/Q93EBewEAwLAgaQZHARKC/QJ9HxewFwAADA+SZnDwICHYL9D3cQF7AQDAfjiqpJnf6MOLsXfb7dJ+A2Qs6dbX3xHosS4hWN4q+S/uaWM/Kyehi9QY7eYPVdfdfXdB97tGCso+17aMUO/L2+rvffQ4b1XLMV3ipErfka4dVXI3sIdE7soyDfryyY3r0OyaonXCLJCpfvxl0nqU6aiz7R1NdK3I+nTPlOeaYNtD/3+TQ9BxjRuAkIZx1IxiTrjITCq7WB/acG6cTfrhX8/g7eHhYXvIuHeD795Z7t6lXv0y+b8Ky3dQBO/rP1S0Xf8j0J3zgcz75Avs+/nD99B77893bfnuVLz/frejVRmzr0bvXMYfh31Hf9q/7Xh8+S1t4kR/X6dv106o60ZyO2J7SORuNwfEfZXIjKtXu5bqWXmSMuft6qPllcRHDoFMovH72O+T/lGjo95sH8lYpWtFTuaGcBt1RPPNjhr/PAH02PcwvpyOne9kfReU4bjw7SWa05vg5rm8Xxhb9tlnivV2PvHmlBpcnB9J0pye/EwwVB9g/iaSyXSfHLq+HDK91QeeI0oA7CRQdicTQDsfs2XCgCodACRlFPV6N2MJ20nWcwd6vYVttouTen3ndN1Abo/IHiK5240t7ssnM67e7Br4lEPbMJCp0q5l6u1VhUAm4fgLcv4h0VFftrfjSvafsn9e5qZI7GH8MK2HvIynQd5v+iWv47T/gBRGV03n9GY4e0zV/zl7qe/YnoPabL1dN3BKF+fHsTxj80ov6r/ph0vzucQLvZ7yva0eWf9esRIppcVjY3P/hRaTOc1V9FWyuacvC3VImnuvUB3d0bOKgYcqRax/k9IWvT8vv0Vq/E6lE6tH+sU+JymjqNX78gctaEI31+V2RnfPKkofinp86/5KlZyvSU1idqfHQHGS1bVUbp+UPSRytxlbqi+P7Lj6suvmFz2qIpN3Y7vDMn6ntLaiR9dQnV37RCKTcPyOqlis19FAtq9BPH/sgdH5e/Xvin6vzWcmWmoQLG/Q39/e0/2FK1MsnynVVfWW+la3W/KzMXWC29GpJRThcpjcrfSQsP9Xu9+ntu1weUCDJUs5Qp/vQ4a96boXfRh5uO1Q7l1vbeb01nygD9MF/YiUqmRQc8YH+9GnJHcoewN9m3bGNB6n2qnmOJLmTJKjJ2R6T8HcDpJs6FUdeSYvX0pOJ50IDwqVZHycEc2/39G53ZVj+XWmDkdT+lzzCtXN/UearSY0/+Q72YTC3CKmrky93jdcQPtxsP4zXGdl4yD7Otgh4qRC12K5PZL2kMjdYmyVtq/1oe52dYTJp8qSlMQedXYdgFqZRL6vqNSjQEe92X5Ed59VBrya0ded+y3p60yVmdxQKQdoMH/sAxNHhb75gH71Mqe1GjNf4Npu1zSnGY3DuFrM6PFmbcs86xNDXXcxpSdbd33zSFesg4ZwEjdmHa2tDOs50Wxce7xI9T9TJ64+XKaybWUfPomcPtnvefyTBV01SGx83AnSdy+++pBhb7ruWR8r1faPD66tJ5qqmHG+1WZO78Llhyktgqx5+UONNXGCrPUtiYsaOrdzLGuaQ8ztgvg2wiHB8h0OqVtUmVu1f5lqvRmZnd2rb/0Jbst5t8VLvlR1i1rt101Kygj07nxZHTi9W7TVtpHeLpPECX+fplrXzeUW2MMikbu6TFVfNT7Uk11VBa+8T142iV25zdZIZBKNn6nRo0RHCTrZ3srO36XbqJO5OdxPHUZ3Cbs6eZ0+7OdQPaFfJNtL1rX63pVN67+kh4z9a30zI7u8bTuPaB+t6CeD0Ulu89rrQ4Z96rqlPmKsPIG/+/KYfnkM8mNRc8K5xh8bf2f61nK5PpP6dvI213d1O2lYL/r/o0ya7cTfnxGHwSn5oNG69APk71OlN+3cXtCXAiLABIJ0bDaQw7b9+s7v1OZcT1Imiad3N1GFE6dfJkQS5DtZauKEy6So03VTucX2kMhdU6aqr7pxMX3Y1dWJy6eSSYORWzZ5t0Iok2T8Ej0m8XUU4vpJ6GZHpkwks5KknMR0kLkClqUOI1tmy47Vye+2YhxJuTN6LfuUILHI2SeTcDhMP5n+m7Rt/+YxZ1WTwOg4ETuuPddYHzLsU9ct9RFTL4+Rv9mxqDn+XGNk2onE/VhZtFzJAefiQqDvErl20nAZ5uh+p1mv/bHr/7bh/TrQkvJ6uoPFu63q323NoW/fhrdms1zSJxVB/prNy4ctPU1XNHPrnr68o/V6ThPvVqqkTB5f7/E6MkM723SOE7Gu5XJL7CGRW1Im25dwXL3YVa8TzhOtK94HQplqx98wFmNi/+hkeyVPvH59RHfPTzSlBX3hW92dZe5KcSu/tAVj5dvHWudnY5qtTB2VzNhv85hb690x7Xi2d9uYlzvVkV4q1Qi9HIeXIBAtror+W68QUO3xyh1a/JCvA66RYa+67lsftTQ/Fum49OVXW91SHsOIrm8muyUavDRjcnOdjM+2cRHStZ2jSpp5sOPZSk+Y+1z/Bw6Dza9HFbblCUYdP1Usz2gc/Y7sklT88eJN8QEy9UAOJw+7g9uzOtjqh6TKBwZJmSpMv/3RR5xIdN1M7np7SOSWjS3fVxMf6mpXx0v4pJp9sC1aV7xHJDJVjb9ZLNbT2faZhxfVWQLp5xdVUPct8yAsb7VMPEaje/nDV33NI6adSbHGNtgy5zOWlg8cW/sV8AmP67NIGLslijWyNZBh/7oeQh8xbcdlHhQsyy499oyub2iiT2h43s4k7B3iokQP7RxN0sxnMjzY6dN+H5g5GTb3+sUPYZCZM90pJR9MPzBSgfnEVxAmvKjfPAizo+qJ+0pdVF9J5DPhyl8DUJTKSPQe/ppCiWa26StORLpuInflLyDI5BaPraKvRj4U0Niuo2u6sQlbCX1wllyxHoAOMvnjF+lROOf0Ynt7BT06GaA16ZsOamBdbL9fwsRhQ7/4J0/qSMajpK55YHNHLq71LzjkTy508qPqxa7l9Z9pu3ruVQnjd77L0RF356kPGf6qrnvSR4qcPJpmxyIx+iFkdUJz/4MWlXci28RFoG9Ny/hyHMWaZrumR50d2B3HgVKv/esQSK33MfsOTa9N9KYOeun1SpVrsFK6MOusCl3E607Nei+/TUkZmd5NPX9NVbVt4vKKlnEi1XdK12K5q+whkbvJ2Bquv4vH1Z9djSz+WsS4bZ+kXQM6zyu1MknGHxPrUaCjHm2v+0/ZqEKf2fmjARJ7GNmq7aqxY411X66fkzu0U7auL4v1B7+9WJfVfuuI6knaDseciF+x/6V0bGXw/acPGfam65b6iEnFo+3fk8e07esxMa91IvYlo4OEjVyZJnFRpW9hOym4jP7/GJLmYlCpranj7A+W79Bwzum2IH4OgiZ6CwPeIZlUQl1Ek4ILsN2WCCpJGYVI7y7A7VY1ScUTW/s44e8l5HQtkbvKHhK5m4ytqq8UyXENaNfwoOVjZJdN3p2ok0k4fp+cf1TpaBjbe9+n/NUj69MN4H7qMDqo16EmtA3Lp/cVY62Su6yD6XYe+ZQ7mbCbMoiuE7QX6bLCb33K9rb917QdzhlR34J4Dv3M31Ki9yFDucxwuq6VxfpMtYlkSbMm8MGqY1FzEidgCfm1XIkyu41lDuJCpG9ROzFcljnjhFl9oJ8/f9J0qoYCeoPXzBldgyZAb/sF+j4uYK/D4tDtwUtbxrP39NT7yylAyN/UNff99fy5Zs05aIuL86P79QwAAAAAAODgdbn0d56TeGMgaQYAAAAAOFaWX+nxxv+5RTAUWJ4xILiN2g7obb9A38cF7HVYwB4AnD4mzrf0/yJ+XHI3tadgAAAAAElFTkSuQmCC;" vertex="1" parent="1">
          <mxGeometry x="220" y="1580" width="717" height="92" as="geometry" />
        </mxCell>
        <mxCell id="ztMBHTseD3NnfuisJvm6-5" value="" style="shape=image;verticalLabelPosition=bottom;labelBackgroundColor=default;verticalAlign=top;aspect=fixed;imageAspect=0;image=data:image/png,iVBORw0KGgoAAAANSUhEUgAAAawAAABcCAYAAAAyLYEBAAAAAXNSR0IArs4c6QAAAARnQU1BAACxjwv8YQUAAAAJcEhZcwAAEnQAABJ0Ad5mH3gAABUJSURBVHhe7Z27buM6t8dXzrPYKYI8gafeRZwmldv5KrmMm3QDnF2kOMDgAE4ZI820AQ4QYCN2sev4CYIpYtf7LXZ8uHiRKV4kypYd2/r/AM3EEsXLEsmlRVJcZ//888+KBH///Tf98ccf/CcoAXLaDMitPeBZ74f5fE7n5+f61+nz8fFB/6X/pn///Vf/BcqAnDYDcmsPeNZgV+QW1uvrK11fX8uTIA7ktBmQW3vAs94P3/73P/qv9nD29PS0+vz8pNVK6i0AAABHwP98/J/+qz3kFtZff/1FWZbJkwAAAMAhcXZ2tp7DAgAAAA4ZKCwAAABHARQWAACAowAKCwAAwFEAhQVayIyGZ2dyEvfbw1KfK7J8+Cavnw1n+szmzIYinm8PZFJyfwMA0oDCAq1m/vwaVByL33P9V/NcPa5o9XZLHf0bAJAGFBZoL1lG2fw3LfTPNTN6mYhr+MoDgIMCCgu0mBu6ySb04o76zV5okolr+qdNPlRYMqQoh/xMmG8P9KHPG0JDgsV4v1FopDIlbQBOGSgs0GqubjKaOBpr9jKh7OZK/1rDCqM7IhovVnJnmNViTDTqFhQHK6O+sM6mfF0ci8EzjSb6YgQ3XhXtUNh5azjeqrQBOHWgsEC76V5Qb/JiKQceDuzRRVf/NCwf6PtoTr3xL7o1k0+dW/o17tF89FPdL8LcC+WUTR/JqLvO7RtNS4cWZ/RTxEvZjzzezu0PEmqU7o0y0vGG0/4etMYAOEWgsEC76VzToGcNC/JwYG9A1+6KiMVvEuqKBs6FzvVAnFX3L1+fZRhX2XUvevqvAMsPehf/FS26K3oUVtSb0U6lac/ptz8JB8BJAoUFWk6HrgdC5WiNxcOBvcG1t4Jv+cFqZU6j7noOSR7dkThrc0nn7s0AgEaAwgKtR1oqclhQDQe6lgzTOb8U//bWc0jO8ZgbSO/0sa8hOml5AdAeoLAA6JwLu0gomofIcCDDc11CPTy/OtpoNhSWllrVFxuiK/2mS6ZNzsKPJT18E9ab+Wg5kray+gLzbQCcKFBYANAV3WRzGo3Cw4GSzi39yMhZ5DCjYZ9XWegFEzrMpG8tSxcKjYPEuaK7cU/cdG/d85NGc2HN3WmzLZS2XgRiL9YA4NSBwgJAwMvbmcuSCSjeoUKtJjdzWH2aZFNarccDZZgpKz8Tpk80ZoVUAq8kLMTbf6fx4q2giLy01Rr3QtoAnDpw4AgAAODg4Rc1WFgAAACOAigsAAAARwEUFgAAgKPg7OnpafX5+Sm/JRkOh/o0AAAAcFhg0UVNeOKPlTuoB+TWHvCs90Pb5IxFFwAAAI4GKCwAAABHARQWAACAowAKCwAAwFFQrrDkxp5nZPbgjFF0+T2jobiH74t5Q81dfVdFnIDrbjzkfnznbCQnvcFpMK9l176Gnch1I7np37qOBY8DkptNbRkuH+ibKI+RT8r9TT2npuLxWfcP+3le7eqPZHpGrqGjRl5YLk14tG5SBju1sObPr8FMlu5evSW859rq7Ta8gSnYmMOT69oNvXcc6PPfVobHXreVYujTO++BmD+vBY1pRF294/0uaU9/1ETb0J6wD4zdKawso2z+m3xnqOxzSFzDCnoA2oPeXb4nlFXuSVnSodu3qehi5zT6vkNLBP3RSbCRwiqYncLU+9Dni9zQTWa5HjewC/JMXNM/bXLTXB8hc7Qq7ZD5WYw3/CaXknZd0uSUiB4+Wx9D0dQMjv8kTUgWhTzxEbo+fFDxyTBKXtVybUZmzP7kpoaLhrPiMFWoHCllrapnmzwPm8r7I7JKSSMlnm2e9+wne2bO6EfQF8oV3U2ntLDe/mV+3Ho4M0Okxeclq33hOYfaOPojj1jbkEPRfWKvOPNRd31e8NV1qbbC4sz0xRuJMTkXg2caRfz9sMuGomM6cf/LhLIb3yUCF0B5TNCmq/KlUChInbQNbrwqWrvTUvFWpV2XTfIahStQX8htqvPHwyi9CfUDlaUMmaf3MS10nvLhGHfsfjKi54EZtim6uTDsQmbMV8ht0u+TSDBajpS6mVLPXJKfR4QUWaWkkRJPigzisBUj/utdUMzXZOfqyh+qcuuhvnnSf6EbndepsIwmfdHp3V/oMvIzDltrbe6PPMraRueW3lZs9YpHJodvH8UrhS5vA3Vpq/LxThd8PD4+insdphl/Rr0ShVIsxque/VsjKs1KlGwlCsK/VqKgK5aECp+JMwa+1luJjKp7TEQ6XiEc9VuzGPdE+vr+pLRL8pKjzuVplaat8mrD8vDYSE6L1bhXzPsa55qM35ajiw7vJFhIL5KngowF8p5AWqG4UmXGNCc3k8f4kd9fKbdQ/XBkUlpWE3dCPRPUfh5OmJT7t03DEIqnXAZr+BkUCcu5DPWMnbhD+XDrkCD6bOT9dpx87Xj7I1/OOj1OI3LkSSe2DTdfbnmbrUvhvsPA+a9lYS1fn4VZ77vk7l6ILIToXNNAaO38pYbN75AL8sVvGe/AuaBcjqv7a6fNLD+InYgX36CuSKjm9Th6adq+u/MUNsprGdJFunj7EaZz4su3j3xrWpHy96eHEEV83dDEasmbsGQHMmPqyW39FuceuU/DRLm5b9idc3Za/04f/MKXUDeT6plLnecRIElWCWkkxZMig10QqYe+k00//0Fa0x811zZy9lKXqsu3wRzWJZU4ZXXo0PVAiEXXEDa/Qy7Ilx/8GC0vreYQdmOx+dZJ+6tpMK+ysrDJroc/tHzqKi82xdW9XRrNVaUWbzb66qFwKHJTjSe9btZn++dRLau0NMrj2V4GXZJ91vuHN0y3X9rcHzls0DaaqEvbsoHC0m+eiUjNOXmhmRzH9jUro95oe+sxTefI3wpqpr0V8k1gG5rOK6+mMjJZV7RkpTUbUn8ipJwvKVbj0o2ytcyYQ5GbelNMr5s1aeR5VMgqOY3yeLaXQYdkFMFVegqe26nqMJugvf1RiBpto6G6FCWxfLUUVsxsK/2OoXMudK4oxEPE/GakeTqn51enpHIVi1pFs3na4iEUxiycFXWRtNVbVuJQg0NaXtXbXrgRL4iDht7+FKKi/RqLNMpYkixCAbeBLun1OaWaOOxAZsxGz7gWYbm9Oy1MlUO/KSbUzaR6FmTz55Euq/I0kuJJkUEFV3cs9wndBwPrPPXGdFdfa9ejhf1RGil9yu7qUnL5ai26EKhJPWtyTIcRlS06sWgmAu2JNnnOC2NPusXiKUtbh7F+e5N58p7i5J4Xr54YLE6OKjg9j43kxOgyFs6Ze60J0UCe3XKF77HiDpRJxVG8z5WfwT3vla9EZkyTcvPKGqNSblr+gfS8ulqIx6+byfWszvPQYUyQwv3mdyDvtdIQVMYjTzlhAjIw8L0hTNq2bMVZtWCoTFYGRx6S6DM25Yv1I8ffH4XkrO5trm3kMtplXYqUz0XGU1dhMSpBc2SrMWc8z1CgIgfikXE4Ea8FoI9AAcrT1tet30wx3uJDMrhpFxvVGr7msZGcDKbBWocXJiAbrxxOPCIz8h47LlN5zMHX5Ll1XCH5MdVyjcuM4eseG8qteD10rMtTLjfdKLNMNRh9BKqdH08gUDGMX888GVY9D6eDDj2DKllVpqGpjEeQIgOGr0UxnZN9OOkwobK68pAEyqLyGVdYRibFU04YQUp5q+QWKkdVPWHctENti8+7FPMTOtbpeeULypHPa1nusC6V9R0GDgcHjjXhcXYlO1CHw5Qbf4CqtgqKruYDtUEb2Q9tkzOXd4NFFwAAAMD+gcICAABwFEBhgRZT8XEvAOCgOHt6elp9fn7KsdDhcKhPAwAAAIcFFl3UBBPKmwG5tQd+1vSn/hFg9d+oB02ARRcAALBDoKzANkBhAQD2ApQV2BYoLADAzoGyAk0AhQUA2ClQVqApoLBcpHvock+xYM3a5QAfaRuhgiOnRhtZK6uiW/v8MJu+yjgD1/VR2ENYbkJrXS/dYFjX0ZB37pR4EsKktAGzG31ZPDlb90EhWfvxFfPtHDW9me+N0r0EW4fedyzfh8xHiEz/BdSeYZasAnu0GSC3UyGtjdCfzvMO7DlXjU7L3ofOq2OBvQJtzP53zl52SfEkhElpA2bfvHy/PJMnO1BOtXwNHIeHjtvdm0/lM7TnXyidgNwPACkzKCyNqUTyKG+MQBDaiFRUb7kBb6AhQm4nwBZtRHXa1Z2wjd/J6voV3Eg1pAxN5+/ekxJPQpikNhBQhIKgPBLlawjJWcosqGgSlK1FXKZfB5cXQ4IMm+D9iXjOiwP0wHugFFxmg5NnyzYifSJlN+lOKkV699Jh4C/adCOS5cM9TXpjGoueeiektIGgW3yD5eywkT4o5APPoHZ1WSU2WOXE0vdt9eXAwioSfPOxECLTfwGXsrcyyO10qN9GlNXR6/F9xoIodykRffvXVsjaUIgMX0nrR9XFoNWREk9qWhZlbcCm2rqJy9fAefMwVlpJHg3HaGFBYTnUb4wgbyTiiHVCkNvpUL+NhIbF3KEzm1B4C8enll/ntILU54MKi6mMR5AShkloAwYlv3i4rRQWY+VFHWHFE1VYpswx+X8RXBYMCYLtuXrkliOOKV2Ouoe7wgh8EaHhqA7d/hBqaXLvraqTQ3nUo/GdP3wlV7Z1n2mw4PrGx4IGz6LOWavglg/faURj+lUylpgST0qYnNQ2MBtSd8TDo9Pdbbqc50XlJ6M5jbq8+i+0gnFCfXeFYHdEc5G/1OHDfQKFBRrkiu54/H3+TK/QWCAJf55Eznf1BnTt9ufBeS2h+N64U57QPffGIsz3EdH41624EiExnsowQeJtQC5t1/NU+1MG+mVBKNtxjxWXq2wzEnaUpeD0cYDKioHCAo1ysJO14EiY0YtQFHR57iucxW9Rs/iSe6VLF6wjRKVbvj6LMMaiUIfQEeLiiLrGwkiIJylMhFAbYGuNLStWVjuzrHjhhihv+BMvbdHaCz2OECgssBmRxrGUy5R6dNFVvwEorysZFRbQla2q616ImiW6XK/HXZA0ykSl69y+edbClPvp3pgWqzdlLSXEkxQmsQ2wZcVKM5vu2Pda55xYVU5eghpL5+uSPB18TGDRRREsukglNGmuJstDk8mQ2+lQv42E6kpxYUSOXDAQX52mFgrY13XcJfkJLbpIiac6TKhcThvQCxhCbSLGVosuYqsE9Xk7H6p81ekcCpx/WFhgQ3g8X7y9Ut+asO3T+y6HPMCREqorXfr9w7c4lBUQ5+pxRYsxWUN+XbnAYrF6pDqzLinxVIepbgNqiJJHJHmxhgljjh1sZSYXXEwpk0OgVlr9dxK66ujbJhw41oQfvlL2oA6QW3vAs94PbZMzlxcWFgAAgKMACgsAAMBRAIUFAADgKDh7enpafX5+yrHQ4XCoTwMAAACHBRZd1AQTypsBubUHftb0p/4RAB6ImwGLLgAAYIdAWYFtgMICAOwFKCuwLVBYAICdA2UFmgAKCwCwU6CsQFNAYWnk1v9n1lYm4S2PQQnSfxB8YZ0sm7SRgrKaDavvrwwzo6F9PRJO1sX8engLpGJ5UsKIo6zMcjPcgK8sJqXsFpu1pbVsvkX2fMrLE0pfb+ZbyOehtWdsfms2m7Q2hjQbSAY8bvJ5ECC26aYGcjtu6rYR+tN53jr8OnjAq3BymPjmuIy3qasXrwljxRMIU6fM4qLKa2gz2ZRy2Zh0Ktzcc5giJg/xe1W5/bS9skrMZr/l8t4XMt9QWOHKE9sx2a8kIKWhQG7HzLZtRHd8Tt1Q95vOMCVMPM0cvTt6MavOruqRHdRlZ56nX6PMRsHIw81baEd3gbwnpAiq25LBl7PJcyb+D8mIr4trXE47Pzr/rjwUkfx/AZxHDAmW+d85cmdn+0K6NO+NaSxaCzhBDqiNSG/E2U18Z/bOLb2Jvq3UYW7EOWNXembUnoJTy8zDaNqLsFBm+qTF8pWejf8sG+lva07PjlviZtrSDd1kE/LcYs1eaCJkd6N/GmbsMVOk+Su4k3uHrgc9ykT+D6ErhMKKVHDZMI7d2dk+EA32u3ZJfq5PgRNj6zaivd3OR/Qz70Rn9HPEPblxhZ8SZknsfaT3fl+YZ4nN1xiWD99pNO/R+M4uQIWT0dQy63BVbjs8z8Xa2WKBBtvS1U3mOXJkxeQr4BIPzxp2ivkoyldewv0AhRWAJybZQ2hvfFfLx077WNKDamHKkytoDbXbCPtpWozpvW8UjfIbtXq7XXeElWGUt9/55Q8eC9PHggbP3fAiAr3QQbmmt+poxLpRyqjo2t5mo35BW3Mx1q72G25LXMbJi7UAhBVTQElrS9KzAA8UKCwXUcm5glM2hSPCCuSbK8WGEsDJskEbkaveus80WDiKxlpVVx3mih75fMHs0ZbZ5N5f5SedGXI8U7pkB4pmxZuwipQx9319jygTK6MoO+4XGm9LnWsa9KxhQR4OzC3VaoqrLPnYgbPJDYDCspBLPvV4dLFRAA9r+ALqqj1s1EZEXbmXloltPbC33illNKF77glTwpQSt4xY0d3x/JKZn+IzjyuaZvO1N+H7C1oI664XGCrcql+Q1lwcadnspC2puSczLMjDgb3BtR+/HppcW3oKlo+xYoNzc18EFJaG3yjU0AFcvKegXH9bDV4c8g1VuuY+jLcx0Cwbt5HIIgfRm5Nc58CdZUqYLeicy265oNTsTlkOO8o8FOfkmuoX3t2VKXoojsu7q7bUuR7oYUE1HDgImldKviKDB7GoogooLIEZm86m1ZOnQMETsXlj18eUVzb1xrRYvWFO68TYqo1oK8PrtPWclLQyUsIIS4Q/bHWnq5a8EkPYYXI9QWmY8oUWcrWctQKxkX5BDs0FFK5Ujio/O2tL0np6p4+HsuHA0GKXA6b132FFvsmIIUSm/wIuxe9YikBuR0wDbUR9sGp/d6S/77G+F6oOE/omSJ1b5y0URn2ftA7jf2Plfu9Vt8xM9Buxuh8OC8raksGXsx+vkmmxHPKck7bKu19ec39VXvaBzEfbFZZ5UOHD/7CPz4MwZY0McjtemmojXjyBupISJu9E9RHq990wnuLRCmkdpqho6paZUfeEPtgVFD4uFkeJsmLK2pKB4ykSUISestRxB9PX9xeOSHm+AM4PHDjWhMeXlexAHSC39oBnvR/aJmcuL+awAAAAHAVQWAAAAI4CKCwAAABHwdnT09Pq8/NTjoUOh0N9GgAAADgkiP4fiqI57G9lv9EAAAAASUVORK5CYII=;" vertex="1" parent="1">
          <mxGeometry x="980" y="1580" width="428" height="92" as="geometry" />
        </mxCell>
        <mxCell id="ztMBHTseD3NnfuisJvm6-6" value="" style="shape=image;verticalLabelPosition=bottom;labelBackgroundColor=default;verticalAlign=top;aspect=fixed;imageAspect=0;image=data:image/png,iVBORw0KGgoAAAANSUhEUgAAARAAAABaCAYAAABwvgmrAAAAAXNSR0IArs4c6QAAAARnQU1BAACxjwv8YQUAAAAJcEhZcwAAEnQAABJ0Ad5mH3gAAAycSURBVHhe7Z07cts6FIaP71okF5msQN5ApDSp3LqjSqtx5zKdG7mUurSuMpOJnA1YK/CkiFxnFxldHDxIEARI8KWH+X8zuDcm8SIIHAKHxK+Lv3//7n/9+kWfPn0i8P7BvQZdwX3pP/7Hv3//5AHw/sG9Bl3BfelivV7vBfoQAADEI5cwP378oCRJ9CEAAKjm4uJCLWEAAKAJMCAAgMbAgAAAGgMDAgBoDAxIjzzPL6SjKRiuHulNxz0lZL3r1O3tka7E9cyf1Z8x6WuXEaCrfEAzYEB6J6HNfk/8qrwQXm5ppGOdEtNVu7q1TQ/OBxgQAEBjYEBOhee5s8SZk14RCJ5pLpcI6v8mztVjceL+9nhl5RET54rcKL5lgTxm5Vu2bKhML8790cdtYsqIySemDUA3wICcAuxDmK0p2ZjlzY6WkzXNnAG0ns1IrIdUnN2SaDHODQ4eOOMF0XIXH0dFsY1VER60s9cl7WTdOIj60YLGxulRgUy/zpZyu+snWqz1SU1MGTH5xLQB6BD+EnW1Wom2Bl2zSYj3CASDMBgmovg72Zs/i2z2CadJEyh2y0mWbrfcT0SciRg5Nrk43nzUMTudrPdkuZdHdL5O0d6yTZyY9G3LMPjyKW8D0BXchzED6Z2wE3U11VHGH2hCYsYhpttlD/Xki0mgGF1+FP99pT/8cN39pq3I5fpz3nU5+nwt8/7O+b79EbHdfKYkHh/0chtweY5u6SWt6xs9XqllwXixlaerePv5JOv1YawPaMYfxFA3RJQRlU9MG4BOgQE5BeQA4mULL1OytXvcCmFLv3dsG9g0bMVsPUsvg5jPxw31MJnfYUyLrTKI4qmuz8bwkS4rXsnElVGeT59tAPzAgJwMI7p9MbOTzJhUGxH1VFazkUm29ndCOtupy/OcZmuR83Kn81qJOUtd9CwpRHQZ5fn01gYgCAzISSKMybelGAp5Xp3Ro564+qksl0FbevrpjDD5dke/aRlditjCMOXm8nrJUGqp3GXBG/18inumq+WDmiXZ7H676cvLiMonpg1At8CJ2h/KiRrhvJNO1Mne9v0px585pp2fdhyZxuP8zOVTdJrm8xV4yvY5Jot5cFkRTlTzt6futcoQVOYjDzlxPG0AukG2PQxIf6jOXBayjp4NmOI5MwgmSaIGmg6+MVHIxxMpH8cuR+EagHSgmsDnbMNTYUCYfFsk+yXXoU4Zmsp8BDFtANrDbQtBobOAPyCb0etyF35bAsCBYQc1fCAAgMbAgAAAGgMDchZUfOwFwJFIVdnn87k+BAAAccCJOjDY8aUc6AC0A05UAEArYEAAAI2BAQEANAYGBADQmLAB0RJ7VbtB5TZsSzkr25YdCB6ZulPAvY5K3oMSub7HVYGv0S2Tlb9qqXw57RWDLNOpSy500QY9UPv+nHFf6mkGEhbRgRL5CTFd5e/NRr2JS1JpRRV4G3z++p7pIVJQqD3oS6cMljAAgMbUNiC5aaWY+vhUsaMpTKGhRO4rIyafmDZoQ3p9cro9I9Yy3i7Goiy+Z35NEV+b2HRaZ/SlqDJi8qlzX2oZEC68ShU7GiiRR5URk09MG3SGlF/ciIUFkVIQa6JQpq6rszqjLx2vLwX1QLQ+Qyql4Gg+GFzth7xeQzGk6WX+ZWI7fiEYpfWQF7IpV+H25aP1Nax0uesIXKuvbBMnJn3bMgy+fMrbIIPvQRD3nlvkyiy0326/nIjzTsLg9ZbWOdP/kOlFvFBIi0Nfql2GwZdPnb4UPQOJUsVOyaycG1JdSiiRD1eJvLTOrmwh+tIp96WaPpBqde1o5EXzVBNK5FAibwn60tH6Uk0DUqGuXRsokVeXMSAlcvkEbAr60jH6UrQB8U8v+Z539ZyDErlbRlQ+J6tE/kbyVvkI1Fnd2+I0uz7oS24ZvfWlaCeqQDm1LJFbHSd1wshDHKfocCkg0+YFc5WzxhzTDitPebaTp1Ank86qeD5fgadsnzOpmAeXFeH4Mn976l6rDEFlPvKQE8fTBgZOG0Tn7UmmykjLDDgO7fseuN5ce9l19rRHIc8QnvuJvnSYvlTLgDCqABOKqtj5876QVS67yOI5U3EokUfkI4hpA4bPBQncc8a9vmIH1W9irPJlHJPGaS/GrbM9mJn8dfsC+lJ0GZrKfAQxbcDwuRMWFIISeR+wU0zd+yGBvtQH3JdqOlEBACADBgQA0Bhoog6MYS5hQB/Ib0Sgyg4AaApmIAMDMxDQFXCiAgBaAQMCAGgMDAgAoDEwIACAxgzSgLDqknwFZULcvm/QirycoAweyb2ukdvcrXLcvytpoCYfQ916cJ/tRWGuJYMzIEqybUvp1udNwvu+YUR6RBls9Sm5bHMZtOTegXcMn4rieb16HFIFvx4DMyD6RiSbbE/EdKWEV9bfxVnQOeIJfqMNdn4fCut3sLbqlhY3/c9EQD8My4B4JekMXYslAeb5gdWsErr3bmKb0t1mQzvnSZypa+ngTPXl+fljKt1na1Xk0op0ruq4b+ngLmmrlgox8d16PHMaq9xCPaTmhpXGqMp7VfAVuTI4ONd1EILb+QeE2uIcoTvxDhC3XP/rEGgtCWe7eBnFrexFwWazJd2//T+7j+m2dCs/N3+VxtryrrfWp3n7ttqXxRfUrkdB6kBfcxpfyxG4ZVj5pWkCW+/7QF7T0A2IubluZ3yv8LUejrAYjZfCQFKoe+QK4zgGP5DWHWi+gevee1WeR6ujbvwU1yA49ZC6HWUPMMeABK7Vbae+4b407Ne4Ytoolattnwg4HnUUzCcfyFY+rPerAZpa6vCCiPj+eoxIyo2GkFKC1aryKS2V3rtksAZErmNna/EQ2NH+rJSHz4kxyfH7+id6bZ6t65somFerlx+GYj1KDVkDVfl27dQdgzQg3PjmVS5mHn2in7zb3+Q+zA3GISkHi5gRtlMw78gRXlcdvhC/WI9q8fEaqvKt26k7BmdAuMNy44v1I4zHAZjesTr6mr5632xo5fDJku7SEdBMwTxevdyirjp8RHx/PUoU6r34VeXzNFd675RBOVEDTrAhIW65/tfhUM49t92NCHPxjYbtdDVpbedg8Q2EQjlXrfyM0HDIeWn+LquD47CsjC9QcbL6ptdQ6kS18hSoNOaY34la1U59I8sbkgHJGtkX8jfwvcLXehRMp7eDxwioweTEcQaYawRs1OA1IfCrAU5at1/kDJ1jQJjS+JpcPUR5S6dctx7FvukzKHxcG4iIduobLheCQgOD/Q3q3oNDwn63GW3elcOe+9KwX+MC0DX6i9Kc81M7Pf1fQJ83MCAAdIneW2W/jr2Yvcrfm32PXwvAgADQMaPbF/161YQXeq8v/KDKDgBoDJyoAwNOVNAVcKICAFoBAwIAaAwMCACgMTAgAIDGDNuASLm4TCIO9IXRrPALKMut6TXl+HhTZIxKeZO8m6SJoW6+sdd4TAZsQJ5pPma9TnA4trR46MJcx6uUN1Fh70u5/b0osdsM04DIz42VUC04IElCyfrrQX/GAfTL8AwIL1u0Ehl/cgwOyRe6W1LFzzjo5Y6jpJNO/wMq5fK8R6ndt2wwIkZ2PJvqNK4Su6ozH5NpTTwnj0K+et9MFs5Eid1ieAZE60lCTOg4jG7vKdkuqPFKRt4//j0Zkg+BnBrXekFP10aly//5OBsCsXKVe1M43o4N2rjcD8aD1k6zV4kK/gke7N+/6DhcR3Gd45AuoX6QJRsTn1XI1jRjgxC4Rq7H7HVJOxlfp+Ef5wqVcQCG7UQFR2BKq01C6699PDlDvz9jMD8sdp8aF2nQgoppAjHQv4qpwGT5LTNIYoB/E7PX7eImP3vJKatN6QtbgJAerJRBTCjboKslDUM+El2P5N4+P6LP12IWfcQfRYMBAYdneiefnDehQdsUR6m9gPeHxYRBE0/z4Iy0jnL7x8tIB6ngjJXYbWBAwBEQT9v7RDzBH4725Dw60iCcpxK7DQwIOA7TFW2SkqXDqVNXud3LeSqx28CAgKPBiu20uKGvlYrldVXNA4wuiX9lYv3dHqH+tz4pdZXbG3NGSuwWMCDgeIhp/H2ypW1uDOjfkrEdg88PYsqu/92KKd3Jx7z1LYrMe0LLzPuZR9aR37BYDtO3R7pxnLG1ka9w86+QQ7+uJ9GGzP4Q7+3xpqN2aQ4MCDgq05V6XWkzXelXmtovcPH9i7PWV4bA/UYiBlYLU29hdd5SbrBcMYy/IM2lUe902wkkS+lDK08RVLamLs41ss9kI1pqPcviP13Tjo919YNaDYCg0MDgjsdraADawn0JMxAAQGNgQAAAjYEBAQA0hOh/wVL+GoOYS6EAAAAASUVORK5CYII=;" vertex="1" parent="1">
          <mxGeometry x="840" y="1720" width="272" height="90" as="geometry" />
        </mxCell>
        <mxCell id="ztMBHTseD3NnfuisJvm6-7" value="" style="shape=image;verticalLabelPosition=bottom;labelBackgroundColor=default;verticalAlign=top;aspect=fixed;imageAspect=0;image=data:image/png,iVBORw0KGgoAAAANSUhEUgAABREAAABXCAYAAACTOwLJAAAAAXNSR0IArs4c6QAAAARnQU1BAACxjwv8YQUAAAAJcEhZcwAAEnQAABJ0Ad5mH3gAACbASURBVHhe7d29kto+uIDxl3MtkCKTK2CvgE2Tatt0UC5Nun+Z4sykgXLp0u7MmclMJnAFyxXspFiocxscSZbBlmVbNjbY7PObIVnAluVXsiwLfwxWq9VBEQAAAAAAAABw/e/b/8ng379/h9+/f8t0OrUfAwAAAAAAAEBkMBjI/9i/AQAAAAAAAMCLQUQAAAAAAAAAhRhEBAAAAAAAAFCIQUQAAAAAAAAAhRhEBAAA6IWNzAYDc1Pr4+tuKXv7befsl3Kn8jjbxG/v5G7Z2dwCAACgBIOIAAAAHacH4AaDe3ld7ORwONjXThYyl9HgTro/NreRH/Ot/RsAAAB9xCAiAABAl+2X8nW+lfFiJy+PQ/uhNpTHl7VMZSvzrx0+IxEAAAA3gUFEAACADtv8mMtWpvJfagAxNpFv67XsXh4l+W105uLpsuf0ZcR7Wd5Fn21mBZdGb2apNAaDmdgrk5UojUF8rbJl0nPTedOXNd/LSv25nY9S6aSWr19dvjwbAADgnWMQEQAAoLM28kuPvo0/yij6IGM4maQGEPXA3GgustjZy553C5H5KHM/Qj2g9+tLfGn0WqbbuYxONzCUu/uVTNfx9ztZjFdyX2eQ78OjvOj01Z/6bMrD4Ukm6m+dz/vXhezcy7OdgUkAAAB0A4OIAAAAXffpQ2qgMNd+Kd9XerDupxxPXBw+ys/FWLbzr+l7J44X8k2P5hkT+aJH+V7fokHC3V9z9uOX4/f60umDHJwzHmuz+Zz+l0xvKJ8fxiKrX4kzHgEAANAVDCICAADcCjP4N5aHz+mhvuHnB/XpVv7u7Ada0cDk6KOafiX3g9PTlRs11GcnHuTJDFLaS6PVskY8fAUAAKCzGEQEAADorJF8HKv/4jMEL8UM8ulLmEVW96d7FjY5oHi6H+JI5tuprA8H2ekFAgAAoJMYRAQAAOisoXz4pP7b/pXkSYRJ8UNUCgf4zBmKVdlLmI/3RIwGFBsZSNzM5N5cdq3vkajTj+6TCAAAgO5iEBEAAKDDJt8W5tLi786DUSJ7+fO8Pd3f0FyGvJXnP+lp92+v6t+xfMx7OkupoTz+1PkoshezmGDuZdd2XQAAANBJDCICAAB02fHBKO4TlvW9BPWlwGNZ/LQPKFHT/jfVT15OPERlv5Sv+l6D0/9OD1sps5nJYHCXehDL/s+zud9iNBBpz5BMPgRl80Plxf5dxg52zn+cTmvcL7+Gzw8AAICLYxARAACg44aPL3LYLUTmI3sfQXsvQVnI7vCSGhycPOl7C+pJ7XSjuYi+bDh6ikmYyVM6DfWKkjkta/KkL3GOHr5ipvn1peCehhP5ZgdCB4OZbPQ9F9dTfX30Kf3nB9npz+RV3nwnXQIAAOCqBv/+/Tv8/v1bplPdaQMAAAAAAACAE/2jL2ciAgAAAAAAACjEICIAAAAAAACAQgwiAgAAAAAAACg0WK1WB0Vms5n9CAAAAAAAAABOeLBKi/RNJ/UALZpFXLOISfOIaRji1H2UEQAAuAb6IP1BWSGEridczgwAAAAAAACgEIOIAAAAAAAAAAoxiAgAAAAAAACgEIOIAAAAAAAAAAoxiHgNm5m5IeVsY9/n2MwGMrhbyt6+j2xkpubV859eM/Vpmjvvfnknd8t0SjfjrHhqnpi60+2XcpdYRn5a+erMc5aacTHvk7FIvlrKf1uxabze14rpqX7l5UXn08S3LOEA3vJsqdxyXWKb7IEm699VyhHAxZlt3W3/4teF24BL9x1p54D3pai9q9v2nNdu9az/6RyfXrrNVkuU5V1ejIq+u6zz9i3UCR8GEfvEHJjfy+tiZ56cFL/W05XcD+4kWT8mT+q7l0cZmncb+THfmr+QpjesbEx3spC5jJyYJqXjG6bOPNczlXWijkWvtUy3Ki4tNJztxKZ79X77/Mcbu93f9vLZr3pXf5vsnmbrX9/KEcA5LrsP9rv8PpR2DniPPO3dbiEyH9X4cb1+u9X//ifH+3nq7luoE/kYROyRza+VyHghPx/Tm8DkSXUsZSvzH+efxfSu7JfyVW1YY9UwvKRiOpTHFxvTrx3+peHiJvJtMdYjYfKHoFQ3naoDwL+ys29PNvJrpb6b2rfvGdskAORgHwzgnRg+ystadYxX96VXtTSC/idc1IlCDCJ2SOqU7rulvNnPI3t5e7V/ZkzkSY+MP03se5uW/rXanNJ6Lyv12Vb/omMufbanFzutsu9U38xp5p5fwKNR+nga/6h89XTqn8YeK46n+v7HXG3+U/nPGZSNqM76ei27nF8t0rGK4qnz6y4zuQbpeSJNxa6KsrgUGX74pP7dyt/ESFhI/srWszw2bn0oibm33kearmdaWEy/yJfpSn65naHNL1lN1Xf2bVJIXsuWXR5bf727RpzqbJOF+TT1QJ/Sn74UwTR99pLr6JWNQfH6169/qemT81jm+9kyaqPNNFHeysuxmTIC0F3uPjivvdCab8Oa6zvm5duXFu0c8E5Nvon+3WT1PbB9Oafv1XT/U6Ve2MbGUn1R/TrlOU4jpM2Vt/rrfmllbbrJb85+rbQcc+b1xaw0H9SJQgwidoQuzPvV6XTu3cOzzHWpHw3l8b+prgXVLmXRv+ToS2DUn3ok/XB4UtU+jMnT60J27um7iYqrN5bRXGSxs/k2Z58nK3tYOnqaZDrxaezuBh2qPJ767C/13/ijjKIPMoaTiXcAMY/eQH99iddRxVyXlbORJzUVuyrK41Jsb0ayx/LRBi0kfyHr6XLnyasPuTHPqfeh6VZRJaaTL1NZOaOI+gzj6ZfsVhmS1zrlGVrvLh+n6ttkaD5X97/ki11u9MO22mF+/2jrraqz4/SviW3VPxODkO15NZfnh/jSiRfx9V/aKCMA3ebugw1PexHaPlRtw0LQzgFoxlCi301OV/EUti+1+17t9T8Ljw31oOe9OgZYx9/r/uhK7msM6MiHM/udFxLcpufs1y63b6FOlPr379/h6elJpYGmqfDavxzrqflOVZDIbnEYJ99b6mD3oEr9oAr5xM57eo0PqrJmpOddH1QFOqgKZN6pBR4WY/W9s8DUPDl52i3GaplTlaIWpZtOx1lWSDp2mlP+ItE02fXLxLVWPH15L+CkmU7LxtMpK7f8ypdfI3ZWJiZazXpm3jvpG3b+Y56D8hewnkoqDzZdf32I0w2JuT+exemeNBfTRAzM9Mll6e+iOm7miRMKyWvQsgvyclQlTgHbo3bBbbIwn75p3LwpvrgWxl7luG79c1cvna5NI1VHIqm0Q9Y9wVtGADoprw2It/tkG+mdNqh9qNGGxfM4jZivbbpGOwegm4r6IHltQSz1fVD7Uqfv1UL/M24vi9pY0x/NX/djGsFtbr1+Z1L1/qLNo5ov91WxTffWicB1yatPvpgV54M6UUSXK2cidsD+z7Ns3V+WldFHVcyuyZPeuu1Ljy5vZT7Sp6KeTvVthPk15yDRFdL21NmBHmFP3Jxz/yb6N/H0WVTRpdXHeweEpLP7a9b/4XP6p4Lh5wf1afrS2RCV4tmkTx/Cz1xsKnYVVIuLflhPtLzjazSX7XR9umy+qTriKqwPzuXAVWJeJd1Aleva8LM8jBPL0pcyjx/EyVJQXmvV85DyaHh71FrZJivk89MHN8DZvBy1Vf+qbM8Fv3waLZQRgC4J2AfH3PaiSvtQpQ0LQTsHoC11josaPpYymmpjRx/V9FFb38qJgW2se55x8sy2+KXPorPfa1Xi5u4fur5veYd1gkHEzvgkmePcUvZeiGYj1YOJxZeIVqVPd9UVazAYyXwbXYa4S7UGYZpKp5qyeI7EjF+8vqlNqLuaj11oPTtddpp6Ra3OURtlG12uFQ+OJ176ACqapJa20q227Q7l84PaPdiRKH0p8/jhc2ZnEp7XOu3GtfRjm2yvnlyrLQTQP2H74C6inQPQljrtS/k8V+p/mgGdaKDN3GbH5LHZwaNbao8vuy7UiTIMInbGq7wV1VJzs9i8SmTvl1iWRhWbmdyv9A8L8T0Fwu+Hk3JOOmZUv66yWGTvs+HS90VresOtpKkySOlgHXFEN44fn+4p4bzqHkO1lW7VmJpfpVa/ZGPut5H91UoLz2uD5VnmrO1Ru9A2eWY+W6snLW0vKWeXEYCbdYn2gXYOQGPsfemmX6J2pE77EjTPNfuf+km/Uf8yPnNPDx41cux5ifa4CSFxu/i+hTpRhkHEDsg7fXb3N1Hthh9E12X3oQyx6OyZc85K8j392R3g2Muf57I82VNjUzW9JB1z6u5Wnv+kRxiidSq47DBHUDyVybeFmm4l373Xgds8jhfyrY0Wt6nYVRAal2qaqiMJOfVBN3xnXbbfQrq1Ympi8ipvy5xLmbWAvNZfdkl5NLw9aq1sky3k02ir/hkNbc9trTuA/rto+1Cj7xiKdg543/Qtf9R/6Vvw1GlfyufpRP9TDx791Pko4mtzizTUHjfh7Lhddt9CnSjGIGIXDB9Fn0i4uk8coNqR4pOJPK3NRN5Hgetr2ceLb4GjyXZ03ZwNZW1+SOpyeLsxzH+cBhv2y6/padTSvpnh8e+JfOt0xrKIR95C0rHrv51/PaWzX8pXPdH0P+9TlQoFxVNR0/1U+ddPSUo/OUkPquhTfNV6/Ew/ur05DcWuitC4hGqqjrh89UHV1JnOaJ36EGsj3VoxnciXqYrb3H8psxGS15rLLi0P37LP2R610Lyq6YK3yTbyqfnSbaL+Nbk9t7XuAPqvtfahqb5jINo54P1SfcSB6XetT1eA1GlfQudR7c3F+596HZ0fp9P3EA9oc4s02R434Zy4XWPfQp0oxtOZ26PCa/9yeJ4OqkVPFIpf08NCPynHeYJP/JSd03T6lX1KXeopPcrOPHVHTxs/ecd5mpLKjJkmuTybz+NLf2c+Sy/vlLZ+ZfNSL53sE45i+ruUs+Kp2CcVnaZVL3c652lG6fgGPCnJ815rKnb6u4yacYm+D3xCU2D+ytazPDbqlVqRsJif0jitT3G6J/q7jFox9Tzhy5OOScNJOCSvxcu23xfG1lPvFHfZwdujVrPuHYVsk1ZhPn1PIcutn+k6Xxz7mvXPxuX40tM6+fGVl1ZejhXLCEAnRe1k2D44r73QituHuvvQZvqObbRzALpJb7d5ovbO/3Kap0hA+5JptwLmOWqq/xm3lcFtbPxy81TS5jr93LPWXdHTVGPz542R/7viuGVjdBSwLq3sW955nfDR8w30IOLv379lOlWHuWiUvk4+ijOaRFyziEnziGkY4tR9lBEAALgG+iD9QVkhhK4nXM4MAAAAAAAAoBCDiAAAAAAAAAAKMYgIAAAAAAAAoNBgtVod9LXvs9nMfgQAAAAAAAAAJzxYpUXcnLQdxDWLmDSPmIYhTt1HGQEAgGugD9IflBVC6HrC5cwAAAAAAAAACjGICAAAAAAAAKAQg4gAAAAAAAAACjGICAAAAAAAAKBQ/wYR90u5G8xkY9+iOZvZQAZ3S9nb9whAfayOmFW2X96Zm9geXzOi16p3WUc3MlN162552T2ArtuVlmnKZiDX2wQC4nT1PHZL82W8l+Vdd9vBtvtSJn0VH/0Kjaubp8plkqNOOvQ1uyFdDmHtf0jZXap832Xdc9rGprbjrsZFr19p33czK50mJB0Tg+M0d1IprAF5CJqmTEHfNChWt6QgFkmV6nab5XipOnJBPRtEVDu50Vy29h0apCru/cr+jUDUx+qIWVW6YzCab2W82Jknph3WU5HV/e13EK6GOno5G/mh6jZu2fsr48mTaqdfHmVo3zdKHTh9V3216VotQ+0PXh7DlpLOU1NlUi+dVuODYHXKoTtlR9279bY1qO+rB13UwWvcHh4Oa5k604Skowea7ldTWZs09DSfZD4K/CEwIA9B05TK75u+v+OEwH56lbGNNsvxYnXksvoziKiDO7gXxrnaoDbG4K0MBvWxOmJWg+0kTteng8XJk+wWY9VB+KW+RaOoowC6bPdXHTiN5ePIvgeAmxPS993LMvpFRZ4m5gNlIk9mAO27PZMwIJ3jDzNPam5r8k2iScp62SF5sNOMF/ItMc03s4B4mhKFfdN3dpwQ3E+vMrZRoRwLp/FpM+3r6scgoj5lVVUEPcJuNgo0ar/8LivVuC1UXUUA6mN1xKye/Zu8qv+mX457lYRXeevojqWX3kEddS938V8G9cdc1pY3jbk0ZLaMLic105wu+wlL39Lxth3B7Xykpj9dlpK+rEi9Kl1mpTqOap7ZJvo/Ly/nr0dxnFyFaZpYZPNsfoA2Heb4s+wlVufFKi0krW6UcewtUX7+NMryW1QPyvKYN6/53Jm2UtxymHTNQdHWnCWTXEbQeurpC8rkUmWbiU+qjutX+SVqWlF+o++S20u0bSWnKcznGdtkaRxrrq/POTHIlIMR0P77yjOeR333Zj9PajQmV657Jo26+47C5e2jNJ0zj3wxl7fz2tbUNJcos6pC+r77P/K8FRm7v6iMPspYtZHPf9REIekMH+XlcEgM3lQQkodz6fpe1Dd9T8cJZbFIKBzbsHX3uKkF1aXAsm4z7a759+/f4enp6dAXqtIc1KZyWNv3XabCa//qsN3iMJbxYbE76LOfD2rLPKg/O61Lce1KfexFXbP6sg13OaZmW+1IDPtU90L1aT8TQpdRVGeitt4wbb8cVGfMfrA+qL6WmXYar3hmmrjupT/TopgVpe8TLTOTfmo/tDuovuJB4kzZdI95zDhvPRqJk5PH0tjY98k6F+fvFAsbh0RsSmNVQUha5bHxaaOM7fSpaWy5VMxvNE12HcLjUT5vSD6CrafptJSQbS+dp5wyuUTZKqlpMmVtp0+lkVW+zunluvkqzadNr+o2GbqtV11fn2ZjENCuKd40EjGK8uSbpumYXK/uReuTXrZ2ftln86vl5/mMGFy4zHT6TUjlPZOHWDYuLjcGrkxZ5gnNg2m3k9PZ7S0nXnmifOXnO6lsHfM0VVZtK4yFKZeo/EwcyuIcUo5161ubaV+RaTMYRGxP9zfEqNGPK2fQhtYBXYprV+pjXxp9rS/bcFdjGsWvOzuVPtW9UH3az4Qw9cVTZ6L1jDvKtlPr9GLcWHg7prYD5E+/KI5OBymnI5VKJ7ezFWtrPSrEKZnHkNj4pskcdBQsI8FdzyAhaRWuR9HBVhtl7D9gTfVhAvNbVA/KYuudV6mTj2DuIGJh+k5ej/Hyl0n1PNYoWyWVF7M+2RgWClznY6zWevpszCrX98BtsjBfddbX59wYKL46EdRuOnXbjWPl+l8rJleqe4pJw52vkbI/cxAxJAY507RdZk30E6PlJ/Jl8pBdlzgubhxjmXSSbJq537uq5MHGtVL6jlRZFihcxxJ6vj7Ij0WNsY2QcqxZ31pN+4p0fvv3dGY0Zr/8KnNZyM/AG3MDuLLNzNw8We1Qgm+oD2j6PmoPn9N1Zvj5wVwq8XdnP1DcS2KiaVaSujXQ+KOkLrqw92nzp+/MWyR1WZG9tGswiOp8RZn1+PBJ/etc2lNpPWrESasQm08f3G264N53DcYqKK0KsSnUZL4/fch/QEKV/Lr1oEoe3XldTcUtT4X6leuaZWsu11rJvZrOuYozX+g6T55kPd3K/H4u2+l/ctxlVshnpW0yJF911tfn3BjkCG7XlP2fZ5OH7BV4Y/uXElK3mojJpeperM4+sKmyzxMQg06VWRVN9X3L0lHbix4fORzW8klfJu65FLwOc/n46FkedvFDM3by8Jy+DL0x7/w4gbGNy2EQ8b3aL+XrXGTxkyfkAX1g7k9j7wVyiHqJQCfs3/Qdeex92tRBxfFV4ynXp3s1jWS+jZ6WuFskDnDO0sCgTUVNxsbVZKzajXvaJZdVVx/yqLVZv+qoHDcz8LGLHmJwf8p/0cBElXWefJma/93BsTbKNyhfNdbXp4kYNOOTZMZZq2ooJpeoe3kuWfZFwmLQnTILkdv3NQOZ+dz7y1XrQ9sHn2yfxdyyzrk/pH6Ze0SG5EEdb0fPVfmZGMQfyuPLWqayku8qndz0K3r3xwl1xzZCyrFifTtqM+0rYxDxnYp+jUrv8FS7oxrMuYw8N4oGcD26Y6h/WdQdA85ARGPMGQcl7FkJRX2Y6Cy/sSyOv7KnX8F92c3M7IdMB9jMm3haYiOK1yPXGXFqLDauJmN1TlohsUlqvYxLhOT3EnmsGrccrdUv7WJlqw+o4zyfBibyBiTC13kfPfFSWd0nzvhpqXzD81VtfX3OjkGonHbtpOaDGzJ168yYXKju5blk2ecKjkFHyixASN/31V0Z+6CR5FnEdfrQUZlGPzwOH1/sep5eyXQK82Djlj2reST6BNCtWkBZ+iE4Tjh/bCOkLoVM49Nm2tfCIOI75Wuw1vrHyvFCdoeX0kseAFyG/mVR7wSn6+qdCiCmL0Nyn/AWnT2RPkB0OzHRNCVnLphfUT1PkFMHNb6nlxZzL6Payx/92LqKmlyPs+LUaGxczcQqUpJWhdiUazLfOc7Ob0N5bDRuHk3Ur06V7VAefy5UKgUC19lc1mbOxjqd8XPSQh2sVRYB6+vTSAyyqrSbqctbE3Z/z203asZEzdF63cvTWtnvxYQqWHEMuldm+Ur7vsPP8qAWqAfhUpyB79J09BN/B9nBz6D2LyQPJp6eASLZiQ57E2eZcZwQqT22EVKOgfUto820r40Hq7RHhdf+1Q9BNx/tgC7FtSv1sU91rS/bcCdimnOD6y7pWzsXok/7mRC6jEz77nm4gO51RuwNnD3TJOtf3n4ik36c3jF9n2iaY/qZPMVlodO25WGnyU/Wsx72ptW11qNOnJw8lsbGt04mz8l59GSJepnJV/y9XlbFuhuYVnlsfNoo44AHEMTvS/LrzmNUiUdeHaqYj2CeepFJ38Y8fz2dMlHq5bFG2SqpvOTW8/RnrvJ1jt6f3urlpOtXYT7tNKnVL9smldJ81Vxfn7NiYN6qaZ06kUrPxqCo3czkwSyjZBo3/rViEuX3anUvsX6xzHrGMa2wnlEap/xG8ySWl6qXZ8QgmY8LlJlOvxK7vGTd87J5P62yE/OgdHz7Eye2RcryoGTrhl1msqwDRDF25gmNVaDKZXUl3lh4mNh7tteMgHIMmsanzbSvROeVQcQW6QD3SfCGdmVdimtX6mOf6lpftuEuxDSKldouvS9/Z+3SdF5uTZ/2MyHiMnLrU7rTGXVYpmvbcfFOU7yfyNTXgM7PaR4bb9uROr70ssxntr7bDnN+0lH+x9NpdNBjX+70Vdajcpw8eSyMjW+dkutsRWkk6mVZrBLT5MfLCklLKY6NX/NlHDaIqJXlN7ceBMQjb946+YiXF1ZO6TLR3PTLYpMpk9Rn0auVsjWT2M+jt9m8e9bPp2ids2Xg1JmyfNbdJpWifGml62vz5szmdU4M0t/Xb//NZ8d5poeFzpMzjZtPN93SmHic5rls3fPFIFZUHlr58uLBJftS85t54uU59bJODLSLlFmiHuv/q8imnXz5l3N8JWJeJZ10TMLav6OCPMQyecmpQ0WiNEram9TLrV/l9Hx94IuFj3d7TdTNlIByLJ2mzbQ7ROdvoAcRf//+LdOp2m2gUfpa/CjOaBJxzSImzSOmYYhT972vMtrIbHAvr+/4vkAufanTjw8v590fD62jnBCjLuAWxPVY3yuRfmI/0KdHCF1PuCciAADATdL3xJLu3lMHFuWEGHUBt4B6DNwyBhEBAABu0eaHPD/85GFpXUc5IUZdwC2gHgM3jcuZW8Qpwe0grlnEpHnENAxx6j7KCAAAXAN9kP6grBBC15PBarVSdeUgs9nMfgwAAAAAAAAAJ5yJ2CJG89tBXLOISfOIaRji1H2UEQAAuAb6IP1BWSGErifcExEAAAAAAABAIQYRAQAAAAAAABRiEBEAAAAAAABAIQYRAQAAAAAAABTqzSDifnlnbuJ4fM029hucYzNLxHRwJ8u9/QJh9ku5G8yE2liObbgB1LdWUUfRbxuZJeuvft0tpfJu3bQzA2ms+jvp6e3s7pKdDbv8Yx9nM1N/d6MdNX2wOmWE5lA/2lXUnphYq3VkXwuPoD5ZXIcKpglJ56zj4YA8tJu+Z9/vne4GBMQ6aBqPoDKqmXab+b4a/XTmp6enQ5ftFmP9mKDDeLGLPlhPzXuZrqP3HaXz2GXrqYqhTA/HKNq4djysHYrr+jDV9TAZwyvpel3r4zbcvZh2p74ldb3uherrfibErZQR8mXqr7E7LMa6zRgfUh+X2S0OY5VWY1U/lV7UjqXz2S7T1zELj+Nx2eWj26gfLcttT6J4E+vbV6cPEtQnyxy32n5yYpqQdM46Hg7IQ9vpR9NU3M/n0MvqrOBYlEzjEVRGNdNuM9/XovPag0FEfxCjRqFbB9MuHeDO8u7UbQeqoxU21om42o09el2/Hna6rvV0G+5UTDtW35K6XfdC9Xc/E+I2ygi57P7cfzBu6/Z4ofbwgW5sEBHAFRUMIu5oBt6F6n2QkD5ZzjGr6S/HA2oB6Zx1PByQh7bTV5rsq3a3vxgSCzuN09+J4lMwyBpURmFlkVUh35XTvh5dT7p/OfP+TV7Vf9Mvk+h9yqu89foc/ysaPsqLqgNPvrCimL40436l2qidqIbJfohcbMPnob61jzqKHtv8mMtWpvLf49B+kjSRb+u17F4eJfp2L8u77GUyhZdNupfYpC71rJDem76s8V5W6s/tfJRKJ30ZkWfejGi5+rLo1Lye+ULSdi93C7rcujAukbJ0C+OeUCt/ihubjUknzmd42fVv+bdbP/paF5KivIxkNLLpeGKOdyykT7b/I89bkfHHUfRxbPRRxmqP+PxHTRSSzjnHwyF5aDt9ZfdXTTT9ovb2NywwFkFs23xs7kLKKHT5btpB9bTBdbug7g8i5hSs2WDkk3zw9ZlRy375VebbsSy+3XQzdD5bJ1+8B2zIYBs+D/WtfdRR9NZGfulRufFHcbqfR8PJxA4g1mB/xJiuD/r0BPXayWK8kvs6B/0f9Ha2lqn6U/8ocjg8mYMePaBw/7qQnUnfLkPmMnIGNHz0YOSvL/F8Ku1ter6QtPU0o7nIYmen2S1EVLqFgyMBcdGDLZXT9aiVP8Ws+2oqa5O/g+wenuV+rtu0auqux7WXr91a/ehrXUgKiTneuQp9sk9uB234QU1h1ezbVT0eLsyDR7Pp7+XtVe1TX79HA/L2VWWb7JPiWAzl8T/Vw1Dt/I9jc7KRH7qtGz/I53jWyZNpe9x6kZRXRqVlnZN2SB2pWo+urg/3RHRFp6V2/3IYncdeMKfLSi9iqnUprk2eQn6O3tQ1qw/bcBdj2pX6ltS3uheqL/uZELdaRtD8l2vl8182Y+4HFF8ClLy0x/QPitqciunZ/B63K+9lRPrjsrbOLte5bCl/uSeptO007nYeTVNwGVFZXArTPc2Xyq9P3fx5193G7Lj88LIrW4+May8/TvuW6kfdvHjX80p1wZuXgDTQa030QaI6kqh/9tjVrUvqi8J9YiadpKrHw1Xz0Er6vmX5t+cQenmdVCXWtp2pFOtYXhlVLetYyHx1074ind/ePJ35aDOTkR5Rnq45M6cpdtRcVVb5NB9xWQHaxTaMrqOOAhFzOc1K7pOX5zQpdaaIvaRSLctsfyE+fcg/yzIk7d1f2ao1fDieohAZfn4wlxH93dkPXGVxKUx3Jb9CY1k3f3a+9NVRQ/n8oA6tqqi7HtdefuyW6kfdvHSlLLRzt3e8T031ycrSaft4uJX0J/Kk00yd+mbPyFt9r/YU6Bugz3QejJ7lIT5b+rCTh+f07VMKMSYSrFeDiPo0+oG9N1h6Y0EzJvJtoToV22fp6OX36Dm2YXQddRT9MpKPeizg9a2djq456NeXYqrjkfvogF+/mhxQNJ1+k+5I5tvoksudXmADWku7JC57fX2ZbGUe3/Mtfo30/SvbFy3/fHXX49rLD/Ue6kfXyqLN7R23J7dPZgbq87n3l6vWt0sfD5t5k3VevczlwhXzcNJ2+rGCHxf6JiQW+6V8X6m/Fz/lNEY8lMcXfRuVlXyvNKLqjInULYuQ+c4u5+vozSCi3unoXw/0xs+ZIe0ZftBX399Qo4POYBtG11FH0T9DiXbbfyVvtx0foNQf+NOd8NOv+vHASCMDiZuZqOO66MDOpB/dJ7ER56Rtzroqkx+XqC81Pt07znmd/ftESf6i5Z+v7npce/lBbqV+dLwupLS5vePmhPTJXt0n39mHqSTvL1enbxfV9+h4ePj4kqrr+pVMJyQPrrbTv1WFsbBtYTYu0Y+t24qDG8kyitUti5D5+lbOvRhE1B1gvdOZrnm4QGP0TZ89BxXRL43uZQ/AediG0XXUUfTV5NtC7bXzfmXfyx/z2L+F5N/DPboxe5ihPP7UyytSJT3NvUTS5rkRJWmbMwCyTz+s3hdy4pKTrh5EGQzuwi8xq5s/73whcXXKru56XHv5wXpUP+rmpXNl0eb2jltR2icbfhZ9RX5mYMgMJJ22h9J0zjkeDsnDVdOfivfB1H0UEgvTRnkG42Qn+lk6uWf0hZRRYH3LCJmvbtrX1vkHq+TcyLcPVHjtX13ku+lqdAPPrse6S3GNbtB7/ZtBd7qu9XQb7mJMu1LfkrrdzgXq8X4mxE2UEQpFbYNbh+OHJ6QfumAelpBsR+IbifseOGG+S88fLev0WaX03H6G/S7ZF4nXpbitC38QRFnaUf4T6+iZLyM4LslpsjdJT+U3R638KW5+8te9oOzMR87yPevhc93l32b9qJUX5aplYfNoJgmMOW6LLt9KbD0p7ZPZOnqqTk59DErnzOPhsjxcJf3os6D0HZXL6pJKY6EnUe9TbZSNT2H7ElhGAcv3CpmvbtpXovPa+UHE087F90pWku7Reey6aGM7veo0OJfWpbhG9fP6HZ8u17W+bsM6f13TlfqW1MU4VdXn/UwIvR54B+ID9OQrMQBwEneq7Ut1Us024AyuxH3X7PbhbhN107Ntme08H196PvNZ0bbn6/TbPk1ynQPTdtcxpC9UHhfPNGX5zVEnf1p6vulhYd4n9yElZWeVrUee6y3/dutHnbxo6fkuWBbO9h8ac9wOXc5VZOpY6uXUE7c+JepjlXTOOh4uyEPs0umXbZZ59LydFhCLTLk7bVichjtrUBmVLT8n7ZB8B03TETp/Az2I+Pv3b5lOp+o9mqTvQRTFGU0irlnEpHnENAxx6j7KCICmL+0bzT/J+kr3orv28nFCWeBS6IP0B2WFELqe9OrpzAAAAAAAAAAuj0FEAAAAAAAAAAVE/h97o2NSET8R9gAAAABJRU5ErkJggg==;" vertex="1" parent="1">
          <mxGeometry x="-89" y="1900" width="1297" height="87" as="geometry" />
        </mxCell>
        <mxCell id="ztMBHTseD3NnfuisJvm6-8" value="" style="shape=image;verticalLabelPosition=bottom;labelBackgroundColor=default;verticalAlign=top;aspect=fixed;imageAspect=0;image=data:image/png,iVBORw0KGgoAAAANSUhEUgAAANAAAACFCAYAAAAq53YwAAAAAXNSR0IArs4c6QAAAARnQU1BAACxjwv8YQUAAAAJcEhZcwAAEnQAABJ0Ad5mH3gAAA6LSURBVHhe7Z0xcts8E4bX/1mkFN/kBPIJJDep3KaTSqtxlzJdGrm0Jk1aV5n5xtIJ7BN4Uliqv2NEPxYASQAESZAgLUF6nxmOJYpckgCWANbcl1f//fffgQTPz890c3PDH0GPoFzPF67bq58/fx7+/v1Lh4P0IwBAC/Ie6N9//6X5fC5XAgCaubq6ov/pzwCADsCBAIgADgRABHAgACKAA7ViSwsxceTJY7EsxFqb7UKsv36gvf6+f7im64fsGzgn4EChbBfCWWb0ttrJkH+2bOZrml1dk+kf00fx28sdjeS3Lf1YvspP4PyAAwWy/b0mmqzo151yi4zp44bm9ErLH24/BC4BOFAQe3p/0x9LTOmRe6PHqf5uDOH2D3Qtei3hevS6HOvh3p4ersXvC9vh3GEfI9eZw0Xnd4aHh8U2dk+Y0d7OFYacgcCBghjR3bc5ewGNPY2vktEdvRy4h+LOi4d+j8LdwuBGP3tb0S4fLu5oReL4huNxox8viVY7tc1uRbQc23OyEDu8jWnnoAzBiULgJxF4eXwU91FQz2bOT20Yy+QgGl2JzVz8Nlkd1E+bg3Cgg3Ag+U004MNqIn6fb/R3hbXPbnWYiH2cTcTqiTjmXFhklF3bjnOsEDt6m+L8FGob//UBBbcB9EBtmD7quzgveu4z5iGPf+jUGdlzHUiNCvWQTwyrxmYwYv9OPKqcfzH7NDWcfMnmaSF2dn/EVUzo9sae241ubsXaV/qz0yuAFzhQZ/Tch4dEE3akcjg7hmLeMqbl65xEbyGGaKKvaElfdoAfOFAIMhhwRc68X6PnR6I/eO+rF9ouaCaDflnIPHzuZBFjR/ZMoAk4UAijT/RZ/Fn/9vcxexmi+0yf7FFQC3xRPndYtafnJ6NJe8/JF+FrsDP+Rw7Vnp5t71fXNKF/xuo7qABBhECyAEIeHNDo9eYkvD6IoH/PgwEC17ae2JsBAjWpt/crTfSlHeN7oB11PvX7gTKyHOFAbdCRL2spR6psB/I1Wh2Jy2yIhiq3MZ3Tjfjxb66DCArbvJTPpZudclQOlOFyQkIdAB3h4AzmQABEAAcCIAI4EAARWKo8i8VCrwYAhIAgwsDwRFMFbMC5gSACAJHAgQCIAA4EQARwIAAiaHYgKaZR9SRygXxsvpStCRWbRnT5Ni1c/tHlVPtUeR2oxyqG64GgYhOGlaQnlo2KhM43xjqxcFLcUcoJ9VjLYA4EFZvzAPVYT2cHKjIdVbf9rtcroGIzBH2Vk0n9daAem+jkQHxis7VKD+bufHf7REsurRyo2AxKRDmZNF8H6rGRxnwgnU+S51ZVKL24OTASNxfFl68isPc9LxUbvu5WuOVt0Gs5tbkO1KMXLovWPdD++UmMfMupvuN/xOm4QMXmdGlzHajHSjrOgbrk/0PF5jxAPZp0dKAGBRqo2KSLeR2ox0ZaO1BVF7f7YxwWKjYnQk0ULeQ6UI/NtA4iCOTEz5xoZZPMfAIp8K1j9Hpz8lY/+dS/55NIgWtbTwjNiaWaDNr7qXXueRvfA+2Urt+zXwbv2wp9bR5T6rg9lFNmO+g6XBsZev2l1KMPaa+LAzHq4NkyP6z4BN1C1oVYbMeLccIau+B9F5uuig3/1oqK8maiy8lxICbsOlCPPnh7JNQNDE9kVVmDc4PrtmMQAQDAwIEAiAAOBEAEUOUBIAIEEQYGQYTzBUEEACKBAwEQARwIgAjgQABEkKYDyaeE+32M/hzIH+H3Pz59dOT5tclsraAvO32QoANtaTFetnrk/CIQN5Xva1KR1PX3fhPdQCVpOZCWWBLtBDioTOE5fbn3P6YPhiEdB+Jh22xNk9UOGaIltAbb/AtNR3ckdUCenr1DnCJTUw2DtqxK4wyHmpR6OPeG17m23OO5v9vKTQprm4HtDEJjOsMJoh5BL/I6ThlRxPrTgLgpEO53jUpBKcotf5S/lIJgPPKvUyCKx/yLlITCvk53MA4Yciw3/SG3PYCdIZDnAQcaFi7koXEbmVhTatCZI9htSje0rPGVnEVhl7ezj8ZqxN5jhW1jHasvOwPBdYswduro4MFkdW/k/U/pCz+Vtf6dRyr9akoj+sT50Rm1SjVrsrKoP38Se/sJUm4KUM7py86QwIESRzWyTAG0mAOwqIbwIPpuzV/K+gVmY1R6AJlklbF0ino2ayUU85Y65Zy+7AwDHChpdPBgYipwZgvLTrnBhLKCjikGM5Ld0aRQ6nQWdZcPpUGtJ1g5py87wwAHSpntbxnSn3/L3ohgMqKbW/agJbH+u19NyVHFqVCq4UbaRkQxSLlJUq+c05edQUEQYVhEEetP/VMOHrjYwQR3e1WOxoRcoLYxhTfcgIQ/wmVN7LPvpp1M5MOZ/Jt28vMxzrEvO0MgjwEHGhYu5EHQDceNmLm4DVB914tohCun4TNFA9SL5SxhDsRYxxL1VVJuypwhW/g3uc504P7s9A0fCwl1A8OTW1XWpwlPwGe0sV5TAsLgusUc6FKQ8xhHpldPwG2hdtAGONClMH2Uod31LAv5imX2JiNu6Hy6Awe6IEZ3LzrUmy0v5Ly5EbQEqjwARIAgwsCcehABdAdBBAAigQMBEAEcCIAI4EAARJCUA7mpxqeqPvOxbGlhlgkvH5XO3JXad6+GI9MYjnytyTgQOw8nSeWPrW/mROvZRTuRuqHM6C1/lJ+XHa1oSeO+X0EPvCTiQJloxoZesv/86f+sm1mXF4W4i3/VN5S8TCQjunvZ0Jxeafn1xHuiMyANB9q/E6et+J/Z6vE16wmx/cFZonP65n2UYEr3mw3tXuw8oXrlmnC1HXso7e/p6pV9ytSfm8I9r5NQ50kxnSFDPeZ+2mkNooj1pz7ROTpO+kAd5XQDNy1Bfxd2i0yFsjiJSnUo0gR8qSXuNqXUC0cIpPncynWtjmHvF2KnT+TxU3WgrACb8mGOzaAOFNownAabYTd+3dgcp7Qbpe+4ap3rHG69WMcyzyfk3Cq2sc4t6Br7hes2zTD2dqFUV8w5EaimjXJNjdqOfyg9JXHrLeqhjbIPk7g6T3IOJMfWWqH0cpPAxiTbztt78Pi+mBsMq1zTRdkn7NxOU50nKQfiAspC2Zfd82g9t9c/5Oht5GSTeBnl/0DlmtbKPsHndprqPMk4EDcImT25MYYLF8z0fiWHRLbuW4ZWpZms6D5vRT0o14w+iX6A/3NgjsP0cCn7f1wnZZ+E1XmSCCJUTExTQBSx/tQ/aoLslksWTStHwczJf7ZvMcH2R6zcyJbaz7BdKQJirnOCD+aEP+jcPDYzIREniNBkp0+k7RQcqCgI32JX3qnB5zgoWcMxFyeSJmlUrglzIMauD3/5l+rMtGs6ENN4bgrlRNlyfHUePgYS6gaG5yGqrMG5wXWbZhgbgBMBDgRABHAgACKAKg8AESCIMDAIIpwvCCIAEAkcCIAI4EAARAAHAiCCpBzITtdNXzTDvh7PMnQ6cs/I60nonPkB5aZU8yaScSCunNla5XhwVOuw+SxzTtIX5TGuyV0cTQPQJ1qoJpI0HGj/QN9lKoOR4zG9l2+hth+tB+BjScOBrHTdCyQXIrRFFLNkuWLYFzasLQ0drWFXuDqP+3trlZyI66pX/Wm4BnncmXzD+etyLH5b5NJo9XY9pJDO4EM9Ln/aqQyMKGL9qYx6PD8gVyVPWXDzY/Qj+3KNXxTEpZye4KYxZPlEpkBHWUzEPfc8fcGw3XisjtdVqnttp8iLCrkGRwxFoI5dZ9dGnmdyDmTkfKSQYMfnWUXeWCqWvK59FanLwWjTumHVOKS2Y+7D2PuVGyxjOUOFnZBtrGN1uS7fPoLW1yC2tByo1q7/Rs3nmV4Ye/qoJ9kb+szdr2dokRbVQQR3yPq5pKpRVqqppSd1nr5VclpdVxvVnzqFIZdau+V08oz0HChnSvfiNkOvT+Sm34NqijlBrHLNcVRyuqj+DEnCDiTuDkqapvLuABx6Va45jkpOa9WfWGTPVE0yYWzf6zDU3ajlMObiiVeuOapKTifVnwAq7Da1sUTC2Dd0K3p++38+6h9hk9UvvKo9FN1Ilj+Kctw/fBXDK/0lFDG/+SZm4OuZ0WB1j5PT17Fc9LFfl18NZ9nSQmqefeveFnx2xY2b34BRZzeRIRy/suNAG5oZ4171Xpz0NeLWNMuvyV16flyJJ/Yb2fLzY4yfbmnH61q+5WL6KOpjbsxFZkQrc37T47Fc+Ni7FRnzoBmt55uWSrVqDm3+H6hkV8yrxFix1i4S6gaGK4LH5uD84LpNOogAwLGBAwEQARwIgAigygNABAgiDAyCCOcLgggARAIHAiACOBAAEcCBAIggWQeSj8onnwsUTyll2lqKVOVByst5yPej6uSU6j5NB3IfXLx4qpLyihQCfs5raJWfjzjGqZGgA+knbwE4AZJzoP3Dd1pPVrTCv6xaYQ97OirvVGyTYR1D5uc4++rFzOsKse+eY2v1nwFJy4FkfgbR6tcdfdKrQHf4Uf7fX7Lh3obmr0saG62bG+XsbUW7fEi4oxXZ21SSa1cY+3K2g/Hq/RD7chtDUHN3+0RLZwASdZ6RJORA4q6pvAcJdCV8OUVFAKESozFzfswXmarzru7c4mYlxSy/mXOaEd2ozMZm2w7bBesiTOTNT9oLsZ9tYwhqju5eSKYUZfR8nm1JxoFkNqO4r/yC93jwBRECNAjqVGs4IU7YCVLwaUIHfeabl+LmF2C/b/WfIUjDgYyhG9zn4yjmFRGqOqLurpX3lAQ/wuwfR/0nlCQcSN2JbCkjGYjjMfsZvKXhJNG9Rpyqjhp2v3IPWfaeQPvHUf8JJQkH4nFvMTRRixwHizH87mAMC0DPxKnq5POeXVWjrrd/VPWfQBIKIoAPJVZVJ+8ZKoI+IfbF/OZo6j+BwIGAnyhVHTF049CYQKneFENvtSxoG2j/mOo/ISChbmC4QnnICc4Prlv0QABEAAcCIAI4EACdIfo/5pei5o0YQloAAAAASUVORK5CYII=;" vertex="1" parent="1">
          <mxGeometry x="1130" y="1720" width="208" height="133" as="geometry" />
        </mxCell>
        <mxCell id="ztMBHTseD3NnfuisJvm6-9" value="" style="shape=image;verticalLabelPosition=bottom;labelBackgroundColor=default;verticalAlign=top;aspect=fixed;imageAspect=0;image=data:image/png,iVBORw0KGgoAAAANSUhEUgAABBMAAABbCAYAAAAhgs1PAAAAAXNSR0IArs4c6QAAAARnQU1BAACxjwv8YQUAAAAJcEhZcwAAEnQAABJ0Ad5mH3gAACbaSURBVHhe7Z29buO+l4aP91rsFPnlCpwrcNIEWCDtbCWXMbAIsMWUUywwWMApHaTYaQMsMMAg9hXEV5D/FLHruYzx8lMiKUoiadnyx/sAmokk8uicw0NSoimq9+fPnw0x3t7e6Pb2lv8JDhSUEThlrv/nP9RfAAAAAOiK9//8X/UXOCfwnAFi0PHSe3l52fz9+5c2GzGmAAAAnfDfn/+n/gIAAABAV/zXxb+rvwAAoJ58ZsKvX78oyzJxEAAAAAAAAAAAAMCl1+uJyQj/pvYBAAAAAAAAAAAAgsBgAgAAAAAAAAAAAKLAYAIAAAAAAAAAAACiwGACAAAAAAAAAAAAosBgAgAAANA5Cxr3emJBo3y7fqK1OnssrJ+u6fqpHa0X4+P0AQAAAHAuYDABAAAA6BD+AN7r3dDHdCVWRpbbiqY0oUHvmlp6Nt8DC/o+Waq/t2c0Y354f6C+2gcAAADAYYHBBAAAAKAr1k/0hT2AD6cren8wH5v79PA+p4yWNPmCX+cBAAAAcHhgMAEAAADoiMX3CS0po6/WQIJmRI/zOa2cX+flTIbidQjrtYL1E12zY+OF/drEeMHOLcZGvvKMh1q5tKana3lMvH6g0+nXEMR1b+iZ/bmcDNi5MfFLcqz0Zh6FOD9+EvJlGqmb7zWHeh0BAAAAsE8wmAAAAAB0woJ+8qfv4SUN5IES/dHIGkjgD9iDCdF0pV6HWE2J2MO7+1D9fPOT7tQrE/OM77OH72+XtNKvUAztGQ/8IT1ELh8o+Hmn0mzmlC0nNOAjFf0Heuf7LA2fZbHZzGjE/ub63nxM1XX5pl7fEKMbBs8Ter3Xr3m8k29sJdR2AAAAAOwHDCYAAAAAXXJ1EbYuwPqJvj3zh/UfxcM2e4j/MR2yh/wv1kyD4fRRPMxzRnf8EZ8o+6pnOPTp9n5ItPxNK76bv2rhk/s9n2EgGE7pUQtmVxCiPz6t2QM5St/iuhx17eefttzK2RmKCNsBAAAAsB8wmAAAAAAcA6vfxB756f7Wfuju396zo0v6LUYGJFcX7oP5kC6rpj/Uyn2mn+ZTf+jAB0fMVtjQTAw+yNck+KsJA98ijTWzMwQRtgMAAABgP2AwAQAAAOiEAV0O2X9Vv+zvifXnB/t3SZNBsRaB2AZ8PYftEOseCHkDmiwzmm82tJpyowEAAABw7GAwAQAAAOiEPl1csf/06wYe9IKD7hIDFuJX+3T6QolhsRaBs8mZBQksxnQjXk3QayHIdRRaZUvbAQAAAJAOBhMAAACAjhg9TsWrBN+8L/2v6e2VPSrrdQoGl2JK/+ubnVbOLKh5jaGJCrl8MMD31Yc43FcTlE2x7Mp2AAAAACSDwQQAAACgK/JFBN2vEvA1BvirAUOa/lALGLK0XzP+RQVjwUG1eCJlX71fQAjCJ5cWNObTCraRqwYAJt+LaRXrpy/MJrUTw65sBwAAAEAyGEwAAAAAOqT/8J5/5rBYs2BAE+KfVLQ/kzia8TUHeFKVTn4rkTbJ7yJISnJ7N/SczSPljuhRDYz0emNa8AUY5XcplcweDV7vacWP0Qd92pMMGtmV7QAAAABIo/fnz58N/+PXr1+UZbyDBwAAAAAAAAAAACjDB/X5ekiYmQAAAAAAAAAAAIAoMJgAAAAAAAAAAACAKDCYAAAAAAAAAAAAgCh6Ly8vm79//4p3HsbjsToMAAAAAAAAAAAAUObj4wMLMB4TeqELAE4RxDcAAADQLeiLzxeUPYgBCzACAAAAAAAAAAAgCQwmAAAAAAAAAAAAIAoMJgAAAAAAAAAAACAKDCYAAAAAAAAAAAAgivrBhMVYLK4wXqj9ChbjHvWun2it9gsWNGb5uYx886Y7bNZP13T91I7W1b46cFQsNG08Vlwbo/23fqJrJSsexJzL0cYcAB0i6o3blqitrbrZJodRz9H+uqD9BafCLtrE7eoa2huX3bY38LdLir/r6pHYguTJsmiyI0S/NmJmZzMTeGH1ejf0MV2JlR7ltqIpTWjQu6aWynEPLOj7ZKn+3p7RjPnh/YH6av9oGM2McmTbXH75I5sbx9g2G7k2tuu/OhBzfo425gDonIzmRvsmttWUaDKgXtpo587oup6j/fWD9hecFm22iel1De2Nn121N/C3n3R/e+qR3losv331P7sZTFg/0RdWWEMWdO8Ppgl9enifMxcuafLl+EazwAGDmAMA7IP+A73zwdTnm8TZUycI2l8Azpd9t4lob/YL/A2a+PPnz4Zvs9lsU2Ke8Y+NbrK52lewNkMcF9twupnyffb/yjqfbZxsOav5PE+rWU2HhUy2saBVZxir6WbIjmUsH2uu8jRCL6Wj3IYbMxunVi7TYjqUx1ybRCp13SJ/YZOVnm+G/RxxPmO+YfJlGqmbOO6krdexgJ87GCpig5Pb6PWf9Dmf0mBi+SUvb3FK0OQjWR6IubZjbp9wPQA4FOrbFNWOxdYrq+3gW1m+LaPcvqTX87IsjrTT2BwZnCa76n3F8qP9tdI2+ROALuEx6aO+nvvbxMp6s21dQ3uzk/aGn3eBv9v1d5M/NVKO6QPpLylP/z21fOi9ls8WnYedc5/hOaExw8+J/2MHE1wn5BfMFVHB4ShWh5RpOEwVeK58HgCegs+vU27ISgXhytV52LHCRqV/fsAsPEm5cJQcw1Fav6aCbbTdgMs7GDyxobFtdP1X9hXHyqN8oJM0+wgxx9H6mfk4bt5G2zvioOIbnD2ynlR3+O75xrqv9osq29x+yH1bh9B6HiwrqF2pay/Q/nK0fk3l0mg7AB1T1RfL2A1vE93YL9eblLqG9oaj9XPbDTdvo+0O5bKHvzlavzb8LdNU16MCWw/7WsoutuVqVl2rpF9xbelTX5qwmOF5xf9RgwlKoOFfgddAN1EVFUpaQeNL43mYlXmUk2rlakeWg5XjsyeXU+EDW66S4QkWS3aI7Qa60A6CfQ0mBPkIMcfZRcztk4OKb3D2VNUnjXU+pO6L9qNaHkvgacfc9rNaL6ueh8gKaVeC2gvftWoIkelLg/YXgL1Q1RdXxbjGOh9Ub1LqGtobzq7am3LZw9+cNv0tZVVvli7CLyzvnMs2y8xfLl69Hf1cW1Ns0HB9OVFrJqzfXmlJQ7ocqAOKwSW7dCqr30Lm/a35Hg5R//aeHV3S75U6wLi6sNMww0q65NTKfaaf5ntdVxfkSq6EvxvG/McXGmQeoadrufrmYOJZ0GN4SVXqCSJsP1t24SPEHGIOgDYJqfuDS/H3Dau73veK15/0wf7L7kRFV4xoxuq+/Z4qo6meh8gKaVfQ/ob5SYP2FwBJTL3RpORpAu3Nftsb+DvQ39ULMEpdFKMZzbMlTW4mtMy+knsrYPfxFf5QBD3DJ8ZMwgKMV1Qqf4sBCb0+PlmxdMf6k99KsQIYyMDItwErEJkkmeKzHgOaLGVArKZbDKiALUHMAQC6I6jui5uWFfFq+3xTpOlyEcd22hW0vwCAMin1pjkP2pv9An93zeguE/+7AwdpND3Dp5EwmPBBn7UR1aeLK/bf8jdVDXrJT4w03ESJ0ZF0+kKJIU1XASM/MSzGdPPMJE/151Fm1EbxWmxp+1lg+QgxtzWIOQAiWNBPVidZ7y7qYnjd56tf6+PFwEInAwrbtCtof9sF7S84euw2ManeBOVBe7M1UbbD31uzle1revrGKxa/VxizWtaAuFbNDI/GZ/gKGmyIGkyomuaw+m1fYvQ4Zeme6Zv3w6Nrentl6YdTeuQlJqZ+Lun1zU4rR6HqHNJAhVweOL2tv4nqTgFRNsWyK9uPjjUJk30E+ggxFwhiDoDtWfxkrY3xS0FS3e/Tww/ebin6F8Rvl56t+Ylq2mXsaEOwrIZ2Be2vAu0vALW4baIgpd4050F7E0hLtsPfgezA9vXTFzVbgn+Cs1wGH87IgLyWf/ZB0DN8qg1pX3MwFmFQaVggWQterMRiDe4iDmpxDGcRh5JMtQBEvrCEb9EIvSiFIUde010ww0zjLlih9HFWo7AWo1B5cjtc3Rja1tK1HZ9w3OONthvwaxwMntjQ1PqPIW02FjJxY8gp71AfIeZMGQXu8UbbO+Kg4hucPbKeGO2URrdXvjpcV/cr24/imLvvyxNazxtlxbQrDfk4Oi/aXxv3eKPtAHRMVV8sYzewTQyqN2l1jYP2xpRR4B5vtN2BX8cH/G3KKHCPN9rOkGnsePYjdc2zCh/pfMp2z7XMMmrUT9fdxJjR8RI9mMCRF9Jbtplyx3ucnCtgbr50jKLw5GYFrJJj6REQeBxXru2MkMAzZSjZ2vl642kdfVwZGt/xWtsN+LmDoSI2OI3+035X9nL/izQ6j6e8Q32k85ppfeXAqZWJmNs7XA8ADgVRb4w6Ym5O9c2pr/ue8057wrHTlM+n1/OyLJbJOK/yV7ZzRTq0v2U/pZfLYbS/AGh4TPoQsWzErbl528SAepNS13LQ3rTe3vDzlcDfrfhb5DHOlzd53bJs0z490KAHFeTmvZajn319/zN8kw0afo7T4wMJbId+/fpFWcZUAgcLfydJlh0ApwfiGwAAAOgW9MXnC8oexKDjJWEBRgAAAAAAAAAAAJwzGEwAAAAAAAAAAABAFBhMAAAAAAAAAAAAQBS9l5eXzd+/f8U7D+PxWB0GAAAAAAAAAAAAKPPx8UFYgPGIwMIo4JRBfAMAAADdgr74fEHZgxiwACMAAAAAAAAAAACSwGACAAAAAAAAAAAAosBgAgAAAAAAAAAAAKLAYAIAAAAAAAAAAACiOO3BhPUTXffGtFC758Bi3BMLYvTGfqvXT9d0/bRWe7tF6HL9RPpq7n6X7NMPKbi+akffBY1ZbHRm92IsYvOQ/R6O9GWdPbzM6uqi9kfleYNDrkucLuvToflinxya7edcFq0g7ll6pJuENuuVKJuGNsuly/J0r30SfSAQ5H2j3nx9oO4fa9KEyDHjvte7pqiiD9AhKE0Tlc8qxX3G1tcA23GGz5MxnPBgAquEgwkt1d5ZwIL92zPJr3I8f/M0mgv6PunOI6PZhjbvD9RX+93RrR9CsH11+PqeM8vXN+/N9up3XZmt6YlV1uF0RZvZSB0L53DqEgftCgDt02K90vcGc1ZXNht6fwirLV3WLfSBpwkfABiwshR9H4vFzZzfr97YD8j8Af3mOY/XzWZOmZMmRA4fSLh5zmguZPA0VzQZFIN1tQToEJSmkZpnlcVPYncJNF1p+WpLuGcA23CGz5ORnOZgghgpvGGV8LxYv72yYM/o7vGSNT9Len3D6DsAOyXLKFv+ppXaLVjQT3YTU/e13dsf4Tf1AACQzOo3uyMY0uVA7QPQCWpQKJsXfd9oRqvpkOj5JzvLkQPtPE3xzDyimRgs0D+SBcjJB9BmLLdi9EgySdPDfogOKs1wSo9GmkdxAd+PeR4anlXWnx/s3yu6wG1Cd5zp82QspzeYwKei3Mhf/ETDcjboxvWORv0H+sraPOsXUzFFR1aI5WTAKkcxXcedKmZPAWQN5rU8Zk0X80x9dM9/quMaa9qi0IePENvTuMSArqi8+lh5WtpW+ib7wUOSDVI/d+Ta8o2536a+OW+Wvr58tbK3KLvT447usmcq3ZvwXxRYXbxTuybStwMaDDy+VUTVJYVdZn7fp8aMpQ/ftq5P4e1Kk13NvvDYacUp38rTF1N9tct89XER1rZwmnzKqSxzg3p9JKn+8BGik48Qe+v1DIzX2rgKLx/6rK5XsT4Q6dk9EZMkfpU10zeVjVc3k3PtAxWxZXH2rD+JPx5nd75f1j/okztv/Uav7FZ26I58DYwfyULksPvg983GGAyIIESHbeFx3fCsImY38nt6tQ/2TEAZAcWfP382fJvNZptTgxX+htXEzVztHzusuNRfHuaZOJ9pY919wXyTsWOsYqh97aPhJj+0mm5YlTHSrDasDjmypBwyhM8znqbwtZTLjg2nTIJEpNH76jpmHinDzKOubchoR9+yH+S16+R6SLJB7dsFY/umtN+SvtoPbMsv78nXKDvJboaKySod+bnjwYgpbpenPOUplUbRHL8qT0xdYrhy5X4hgyPlxsZM+VosoxPD5fhsp56W5VTa5fqm7tpqv7hMOVZTfdVst5+QfFKnurgIa1tSfOqT3axPuh99hOjkI9jeWj0D4lXlKc67cRVQPpaMcr1K9QHLaNvHCCmb8vUcVB7Tn1KumS/BD6X9Cl9Ex5YqM7bll6+yO9o3gWVxBHD/7BPpbxVDytdlN5ZjwMWS48FtCyoJ1aF0n63iy4qLZnxtko6n4VC1q2qrj+/t2XfZHwv+MgI6XjCYcETUVfJyI6oaNas1dBrCis7X9pt7IyCxOtKKhtftbH15rGt7BkAsXdrSN8oPNR1Pig1aP8dZtb5qS18lx712uI+V7CS7GSqfc/mcuvg+PAxfCrsMO8U56StRjtrgWt/a/nd9FBIf6XW9OcZdfeyyjbmWzhNeT2vtYlh5QuwUsWqWl8OWvqq320NIPpWmPi5C2pbwWKkt8xB9au2q8aOPEJ28hNtbr2dAvDbFlZbhGOHzmUySUC5VCN0MnweWjR07HnxyzqgPTCqLI2CffbH0meFvT/xI/GWnKckxUTIrz7vE6KBiIUq+gz9ufPb6606bcBtAmVOp222j4wWfhjwF1vLdsOH00ZgONaI71hIV76F5UO9R3t/aL2T1b+/ZUWfq9tVF5SJMcq2G8vuYg0vWxDZwVXoZrOa9zpb0LVErd0m/yy/EW0TZ0AZb6utODbT8FyF773YfKv1buh8a8cdfcRjek+PCoPhNqkveKZ8jmrF2Pn+fNDVmrKmianpyrycWvqokwM6cunoaYpdLiJ1iquoz3TA7nJnWklRfxdhtEpBvmzbWIsSnAWUepE+qH32kxCGn7bpRF69NcbUtqT7w0WbZMM6uD2yzLM6ZxVj6zFz7IIUmOaMZf+Jh25yu+KsyLb2OIl5zGbzSfb5A4oruX+1XcdKR7ZS92GKfHvg7zKFrMgCwJzCYcALIGzv9PqHs1PgmXpNkHeS3ilZHLu6i3qM08vWSVi3d/SIx7eoL9k7/gkXJKQ449On2nt2KqqfFxc9nGt7flh46wuP3sBZcKt4LHtBkKVfGXk2rH2IPvp6KB4GVXIjrptBv2wfAVLsPMS7Cyny/cRobh3tnR3FlcvA+OCNQFtsh1qRQ76NbD8xiUK4adx2DSjle1AKJy1cSSy8462LwTayNEaJD/iPeDyrGL9jD/vucMnXfXSl/a+IH/ADYJRhMOHrUwovDKa1YZyZHR4tRUtlu+j9d17+4Yv96PjujtsZ22UIterND2tU3APELxRGRqq/6Jab2If/YfLFnxK9WYhYQ/4pD+VctTnj87r4u5TSV62IsBiXFjZrQ01gZu4K919MQSnbymz6tU/EAWPvg1+CrVLsPLi6CyzxRn5S2JCEOtyapzUuIq1D24YMkmw+IVP1Fvog+sIt4PCH4QAyfScD9VzUj4cNtXNQsI3MWTIgcF9neyofx/sO7Kr9iM+XU6qDioTwrZ0B8gtaSXaBJPgCnAgYTjh3xHVqi7KvvW9DyF1NaTui772amamVa1lFWrXjto2pqYf139hNoSd8SFXLlL4b7+CV9TeJSoWypr9tBynzqV8bOfXGkiFkX7OHqqeIVB05A/CbVJXFt9tBizaNXU2/1U8xW5eoOjqzpjS91XUWAnUGE2OWSZCd7APwxZWcVqb5KtTsgX3ob67QtwT6tL/MgfVL9WElkHHJ2XjfqcOLKS2Tbn+IDHzuzOZVj7ANbKoszg/9azwdisnnFg7V4bVA+jFs4Az6NcsRXQMoDeUExEqKDiBPPgAOtiDeDpS9BxFKrf0bOmzoAdAsWYDweWHGpvwrEIkW1NpqLuMi/h9NigRiZ31ywyF30JWKxJFOOXvCmakEl3wJGIo+9eJJbhu3oG+AHvaiOI8diKxuMMmvyVVv6al958kXJTrS7CV98Hy5u3Gm/eXxZSmP6qUqOkaYxPrSv3Tx2eZTkhsSMJ428FpelyzYgPkt2hrUrwXa5vqmzszJWi2NJvmI02+0nJF8pTVVcNLQtjT4NKvMYfeplBxGok4/gGKrVMyBePXL9cVVTPuq68jJOvdrCBz7dQsrGss+Hpa+i0g9u7NT4QRwy9wPaGI/+ZVS98uRL6QOTyuII4HbsBI+vvah4KNzrtIdBcnx1thxHlTTpwCjFib5mZAy49UPi018eC9I/kZ2V/ZHjLyOg4wWDCUdEqZIHNsxmg+fr8IpjavM0XvYxJdO5yZDX0Vu2mXK5VTcHSndLbMBNCKcNfUP80NhgJ9ugOxy1MQEiTZWvGK3oy3LyzjCb6xuq6ny1slPtVp1zlZ783PFQvrHQ9tmHnDQM17fueU5UXVLYcu2y0MTHDEPZlW/8uk55F3Kr49O2M7xdabKrOU/ZzpJuHrlNMqqot7uakHxNccGkNLYtHPtanlgJKHNOsz4BfvTUGy+BOvlotJdRr2dsv6I391oN5eO0rYU8Va9SfVCRpt7msn0lzrUP5ISUhUrjhM3Bw3XeBa5P7c2JT9e/hhNj5NhtVEiMGNTooCnpUldfKpAyzPpR4Oq/61ji1wBl6sronNHx0uMDCWyHfv36RVnGmldwsPDFW2TZAXB6IL4BOE/4lOXvF+/drKcBALBAX3y+oOxBDDpesGYCAAAAADqCv2tOje+5AwAAAODwwGACAAAAALph8Z1e783PqwEAAADgWMBgAgAAAAC6YTTD59IAAACAI6X38vKy+fv3r3jnYTweq8MAAAAAAAAAAAAAZT4+PggLMB4RWBgFnDKIbwAAAKBb0BefLyh7EAMWYAQAAAAAAAAAAEASGEwAAAAAAAAAAABAFBhMAAAAAAAAAAAAQBQYTAAAAAAAAAAAAEAUJzmYsH66FotC5Nt4oc6Ag2cxtsuud01Pa3VuTyzG7LrXT1R7WaVnHlrrJ7rm+lbk0zF57RpTsteQaaLSlfKfAaI8uG8q6jH37b784sZGUKzsiX36oYpD8ken6Hod0Pccckx1xT590Jm/VZ/R/u3JgsYd9xW79Gm07J35WSL04XV9S593FocdEHSP7t4bedKEyDHLJ/p+MkCHoDQVhOgf5CuwO7Yo33Pi5AYTeMUbTJY0nK7ECpObeUb0fIMAOHjW9HTNKurNB01XrNx42Ynyu6LJ4AgqcP+B3nmsLSf0xe2t2M3MFxWT5vfURSd380zZ3LQ3Y+GKBiuH+e7bM8kvzTx/89wILOg7821XjGaszN4fqPuv5HfrB83h+KNLWFvGglb0QbOROhYOfLhfH8DfIBndP6k+3OzfgZ+ge3T+AGfdG80pc9KEyOH3WDfPGc2FDJ5G3k8G3V4F6BCUpoIQ/fE80zFblO+5cWKDCeqGOpsXjfpoRqvpkFXAn+wsOFTWT19oshzSdPVOVn/Myk83oAdff5muXNXl5Ivx0MseLL5MaDmc0g/TMNZIsTZKNFLW88Yx2bsH1m+vtKSM7h4vacj+en07h99twLFz+wMPFgCcPKvfrFca0uVA7YMGQu7R5WAsT1PcG41oJu6L9A8KAXLygZ4Zy60YPZJM0nRzFaKDSsPu7R6NNI/iAr4fPkxC/IDnmW4JiQGgOa3BhPUnfbD/sru85A0+6BOFf6DoRvOrPZCg0R3ANz0FkFVyPovBedr2TRPkI7vmFKVdT/0czebs0XdJky9SDzlIktHc+uXL1wkZlOw9V3Rc3NGo/0Bf+UDN61vhEzF99YaYJ2k5GbDyHecdbH25y/jhx6wpkJ4ppu75T3VcY8Wc0If/6iGnGet8Ikz5CHd+rDzVcit9k/3gR1xj/CTrmMjH9Q2rc235w0dqXY7Ot3U5DmjAZ1OxNL5ruWVYG1MK2wa/v3bhH3nOvF55Cr1lD99M3RN9afsgsb5WpHHx+du9zoL7wdEnpP9J0cclXcab5XM7HkJsSPQ7O+/GNCfVjhDZsbGfWldMhF78FwHe3/P6btgTIn+XPmMZ7XxGn6BpwwfRhNyjr9/olXX7Q3eEZmD8oBAih88W3Tg/1oQSosM2BPkBzzOdsusYODX+/Pmz4dtsNtucKvOMNqxKbuZq/1hhxaX+OjHmmbAtqymg1XTI0gw305XY27CH7Q05GUQ5D6fsrMTOIw5s2DP6Zpgf8OPK8VKns7pONlX/l9LMN+y5uKS/SSlm1fWadD9mSvHt+tjrc+lL0y/N5a7ix5JVLhO3DKRcdsyIDStW1HXMPFKGmUddOypOQ/Qt+0FeOzH+S+nC6lwb/vCxVV2OzZeod4iOUk5ETDFcuXK/kMFJspPRrLNd7q5u7r6bXsuL9aUtV51nearjP0CXCrw21ZaRX65XTp0+yjd16qXZpHxjym4oV419PZXG0rGFdlIQYkeY7MYYdvzcHPMRiD7JkMWQOtfL36XPXHvzfBE+47rsE8sfJf015T7OxfWrS8nuKkJ1KN2TqPphlVs4TfpzQtJsw77L/mDZIg7PCR0vJz+YoBvpUyj4k63k3odEG7sTCLgRcjpHjZQT0Fg3dQYNOtfGXYVuJqVOr7JhOx3c+C53muUbWX0s92VQuZdvrji++HH97cZGY8x54sTSpS19o/xQfzNV9jsnoM65+yn+8BHkIw+pPkjRO0RHlSYqpljO7WI+0k5Gya/CdiZnztM3t0mNfgmIAdsH6fW1ZIuHZjnu9QPqQoRv3DQ5yTb5YsbNF1Kf0/3eStlEyA6udyHpY9B1Q4urla/SRdgV7TOO0KnZr3U+cPviXSKva+jjaR8k/rjWlOSYKJmV511idFD+jJLvoVZ/RUiabeHyASMxDs8NHS+n/WnIxVgsXsIKHe+vnhvqXcb7W7vc+7f37OgzNb4ytxVreuPzoxjLyffS9EIQwFq+7zicPhbvO7K/7lgrXvu+YEy5X11ULrom12oovws7uGS3DQ1cXbhSa96pbUnfErVyl/R7pQ5UMbykKpVjifKHj9S6vKUP2i7HpJjyTnUd0Yz14XmflmpnqF9HfC2YJU1uJrQ0X0WzphGrafO9nuxzHbaOAU5d/EfoUoe/jPp0caX+DKUNfbaU4U6PbqwvVWzbTibaESQ7tm2ITR9LQF3cpc8EYhr2M92w9M5bLJJd+yCGtu7Rm+SwNow/97AHQbrirwKGvi7SgHgNZfBK9/mi4Su6f7VfNQwixA94ngEHzMkOJoj3wW7SV9QGx836k9+Cq3cZWaeabwN2QyyT7IzFeCDXSeArv/JO3e24+hfE702XNU8zq99cyyvK78FFnoQb8CNF3nDpNQCK8hOvqDKffqt4v7Pdcjf8vyO6jNNj4Rh8FK7j7mMqlBi/jsQoXvkBtXinW7d5G7lAWAe0p0u5jEIGEV3a0OeQ/FtNc0yn21EvO7ZtOJy2ZHufuWse8E2seyAGIlZy3SX+ZSh1Tg8sHIoPKu/RxWBINe477HH3+mqBxOUriaUXqnwYokP+g8cPY62vPj28y/s+fo9SKd8gRP84G0ErRMbhuXOSgwm8EeYjeLziYQTvCBjdscaX/+BcNZarfukf3pMzmF5JX/yUxL8OoUeM7W1n7fFCf6WBryCsVn4tfS5yQOLe9OOzYnR8TaK/b/HX4eNCLbw4nNKqVHbyJslaiNGg3XLf/SJHe49T8avUcdG6j3bgg3Ad97hwVoOd4Tqv5YKxjOcb4xc31daJG1yRx1g1fd+0qku5jOTgbgRt6NO2f9Uv0u3fAzfE9FZ21MuObRv23t5qSnVxe5/1H94t3flW3O/yh1p9vBhY4AMKnfnAIOQe/cN1kJqlZc5ySrnXl/bLWSL1PmzQQZVpedaVvL/jPxY1yQ/RH88z3RISh+AEBxP4CB5vhLM5Ps11PPg+p6Om9vFf9RffSTxb3t9WT3PVD+CaqhVXWScdunp8NHzlchl8RYcspgjz8QTzc5GsoxefJpjQd9/4ibI3+3qm3z5f/CTmxQr7+3R7z3vqCt+1VO7mtFST6IeKJnYVpxVy5a9SbT1QOHVuV6T6aC8+UATomBRTahaTPdCq2kb9U2OqnYF+zb9Io2Za2bOC3OnSxSte+2d7XfxlFBLnvjRt+CZdhnsTLOOh7hfx+PocHtPxdgTJjm0bYtPHElAXd+kzP+x+48eUSVPs2gcNNN6j929JdPFlBzGti/asUU7+JRm1rwhq/0N0EH70PGzSinhRNv1yHfKsgueZDgmMQ6A4qQUYKxaWORVYcam/ThG12JO1YJg+xjbfIlDmIkN6gR0jnUxjygtbOMVaCKmK0uIsWlffwkfquo7MlVpMx1JH29Gg4ynC7eaUyraEWY7yb7PON5d7yOJjHjlVMab3fYtmiTymLrrcC/va0TfAD3qhKEeOiy23QMoLqHNb+sNHyZaSj/wk+WBn5ehJ0+RDhryOm8fWJclORrPOcr/Y5ddWNnuuods0N42lRqgvcx8ExH+ILhW4/pY+KfLkcmrSsAN2mlTfmCTbpMrQEw/l9qHGBvZvK+3ktmVTJ1scctJo+/X1HD83po/BE8sl+R77d+kzn04yb3GsyQf8OjvBE4delD8K8/1lWi/HF79STuP1OU06MMp+VNdsKqMQ/UN91TI7K/tjJCAGzh0dLyc1mFA0tr7NblyPEW7HyaM7Ve9mNtC60VYbq9yi/I2bDE4pJgIaAdlB+Le8YbcamUKXSvHaLkc/3WFo+ZVxqvLvu2PZJ9y+0A7U7MR9N1n15R52k8yxYyHbTJ0Ys/Io3S2xotzsMpW62Tcbbegb4oeQ+PH5QdJc59ryh496H1UT7YOdlaMkKqYUtlx/GxFtp6JO57IuTizqdk1vPK3pq0Rf2tcNrK9NulTg87c4ZsiZVvlBp2G6CRti9PH5xiXJJnnDm83Vja/ayvHQZEOg3xmWvzwxnWaHpFE2oy6GfX6uTc9R+rqHS1TY4Mr31cVd+qxkX4COpg/4/i4o62Vujo6u/YZ+MXJsP4e3i4IaHTQlXZzY9BGif5SvWoTLBwYBMXDO6Hjp8YEEtkO/fv2iLGNdDzhY+OItsuzOk8X4mj4f343FbsApce7xDQA4TPh7yzc0x+JnZwSfYv794n0vawgcGuiLzxeUPYhBx8tpfxoSnBSjGQYSAAAA7Ajx3rjznjU7Jt5bdr5kAU4Zvj4B4b1oAAAIAIMJAAAAAACjmfj8nvlJvd7Nh1j5HpMSzojFd3q9Nz/5BwAAoAq85nBEYPoROGUQ3wAAAEC3oC8+X1D2IAYdL72Xl5fN379/xc54PFanAQAAAAAAAAAAAMp8fHxgZsIx8a9//Yv++ecftQfAaYH4BgAAALoFffH5grIHMch4+Yf+HzN+FFIMvUxrAAAAAElFTkSuQmCC;" vertex="1" parent="1">
          <mxGeometry x="-89" y="2040" width="1043" height="91" as="geometry" />
        </mxCell>
        <mxCell id="ztMBHTseD3NnfuisJvm6-10" value="" style="shape=image;verticalLabelPosition=bottom;labelBackgroundColor=default;verticalAlign=top;aspect=fixed;imageAspect=0;image=data:image/png,iVBORw0KGgoAAAANSUhEUgAABREAAABXCAYAAACTOwLJAAAAAXNSR0IArs4c6QAAAARnQU1BAACxjwv8YQUAAAAJcEhZcwAAEnQAABJ0Ad5mH3gAACbASURBVHhe7d29kto+uIDxl3MtkCKTK2CvgE2Tatt0UC5Nun+Z4sykgXLp0u7MmclMJnAFyxXspFiocxscSZbBlmVbNjbY7PObIVnAluVXsiwLfwxWq9VBEQAAAAAAAABw/e/b/8ng379/h9+/f8t0OrUfAwAAAAAAAEBkMBjI/9i/AQAAAAAAAMCLQUQAAAAAAAAAhRhEBAAAAAAAAFCIQUQAAAAAAAAAhRhEBAAA6IWNzAYDc1Pr4+tuKXv7befsl3Kn8jjbxG/v5G7Z2dwCAACgBIOIAAAAHacH4AaDe3ld7ORwONjXThYyl9HgTro/NreRH/Ot/RsAAAB9xCAiAABAl+2X8nW+lfFiJy+PQ/uhNpTHl7VMZSvzrx0+IxEAAAA3gUFEAACADtv8mMtWpvJfagAxNpFv67XsXh4l+W105uLpsuf0ZcR7Wd5Fn21mBZdGb2apNAaDmdgrk5UojUF8rbJl0nPTedOXNd/LSv25nY9S6aSWr19dvjwbAADgnWMQEQAAoLM28kuPvo0/yij6IGM4maQGEPXA3GgustjZy553C5H5KHM/Qj2g9+tLfGn0WqbbuYxONzCUu/uVTNfx9ztZjFdyX2eQ78OjvOj01Z/6bMrD4Ukm6m+dz/vXhezcy7OdgUkAAAB0A4OIAAAAXffpQ2qgMNd+Kd9XerDupxxPXBw+ys/FWLbzr+l7J44X8k2P5hkT+aJH+V7fokHC3V9z9uOX4/f60umDHJwzHmuz+Zz+l0xvKJ8fxiKrX4kzHgEAANAVDCICAADcCjP4N5aHz+mhvuHnB/XpVv7u7Ada0cDk6KOafiX3g9PTlRs11GcnHuTJDFLaS6PVskY8fAUAAKCzGEQEAADorJF8HKv/4jMEL8UM8ulLmEVW96d7FjY5oHi6H+JI5tuprA8H2ekFAgAAoJMYRAQAAOisoXz4pP7b/pXkSYRJ8UNUCgf4zBmKVdlLmI/3RIwGFBsZSNzM5N5cdq3vkajTj+6TCAAAgO5iEBEAAKDDJt8W5tLi786DUSJ7+fO8Pd3f0FyGvJXnP+lp92+v6t+xfMx7OkupoTz+1PkoshezmGDuZdd2XQAAANBJDCICAAB02fHBKO4TlvW9BPWlwGNZ/LQPKFHT/jfVT15OPERlv5Sv+l6D0/9OD1sps5nJYHCXehDL/s+zud9iNBBpz5BMPgRl80Plxf5dxg52zn+cTmvcL7+Gzw8AAICLYxARAACg44aPL3LYLUTmI3sfQXsvQVnI7vCSGhycPOl7C+pJ7XSjuYi+bDh6ikmYyVM6DfWKkjkta/KkL3GOHr5ipvn1peCehhP5ZgdCB4OZbPQ9F9dTfX30Kf3nB9npz+RV3nwnXQIAAOCqBv/+/Tv8/v1bplPdaQMAAAAAAACAE/2jL2ciAgAAAAAAACjEICIAAAAAAACAQgwiAgAAAAAAACg0WK1WB0Vms5n9CAAAAAAAAABOeLBKi/RNJ/UALZpFXLOISfOIaRji1H2UEQAAuAb6IP1BWSGEridczgwAAAAAAACgEIOIAAAAAAAAAAoxiAgAAAAAAACgEIOIAAAAAAAAAAoxiHgNm5m5IeVsY9/n2MwGMrhbyt6+j2xkpubV859eM/Vpmjvvfnknd8t0SjfjrHhqnpi60+2XcpdYRn5a+erMc5aacTHvk7FIvlrKf1uxabze14rpqX7l5UXn08S3LOEA3vJsqdxyXWKb7IEm699VyhHAxZlt3W3/4teF24BL9x1p54D3pai9q9v2nNdu9az/6RyfXrrNVkuU5V1ejIq+u6zz9i3UCR8GEfvEHJjfy+tiZ56cFL/W05XcD+4kWT8mT+q7l0cZmncb+THfmr+QpjesbEx3spC5jJyYJqXjG6bOPNczlXWijkWvtUy3Ki4tNJztxKZ79X77/Mcbu93f9vLZr3pXf5vsnmbrX9/KEcA5LrsP9rv8PpR2DniPPO3dbiEyH9X4cb1+u9X//ifH+3nq7luoE/kYROyRza+VyHghPx/Tm8DkSXUsZSvzH+efxfSu7JfyVW1YY9UwvKRiOpTHFxvTrx3+peHiJvJtMdYjYfKHoFQ3naoDwL+ys29PNvJrpb6b2rfvGdskAORgHwzgnRg+ystadYxX96VXtTSC/idc1IlCDCJ2SOqU7rulvNnPI3t5e7V/ZkzkSY+MP03se5uW/rXanNJ6Lyv12Vb/omMufbanFzutsu9U38xp5p5fwKNR+nga/6h89XTqn8YeK46n+v7HXG3+U/nPGZSNqM76ei27nF8t0rGK4qnz6y4zuQbpeSJNxa6KsrgUGX74pP7dyt/ESFhI/srWszw2bn0oibm33kearmdaWEy/yJfpSn65naHNL1lN1Xf2bVJIXsuWXR5bf727RpzqbJOF+TT1QJ/Sn74UwTR99pLr6JWNQfH6169/qemT81jm+9kyaqPNNFHeysuxmTIC0F3uPjivvdCab8Oa6zvm5duXFu0c8E5Nvon+3WT1PbB9Oafv1XT/U6Ve2MbGUn1R/TrlOU4jpM2Vt/rrfmllbbrJb85+rbQcc+b1xaw0H9SJQgwidoQuzPvV6XTu3cOzzHWpHw3l8b+prgXVLmXRv+ToS2DUn3ok/XB4UtU+jMnT60J27um7iYqrN5bRXGSxs/k2Z58nK3tYOnqaZDrxaezuBh2qPJ767C/13/ijjKIPMoaTiXcAMY/eQH99iddRxVyXlbORJzUVuyrK41Jsb0ayx/LRBi0kfyHr6XLnyasPuTHPqfeh6VZRJaaTL1NZOaOI+gzj6ZfsVhmS1zrlGVrvLh+n6ttkaD5X97/ki11u9MO22mF+/2jrraqz4/SviW3VPxODkO15NZfnh/jSiRfx9V/aKCMA3ebugw1PexHaPlRtw0LQzgFoxlCi301OV/EUti+1+17t9T8Ljw31oOe9OgZYx9/r/uhK7msM6MiHM/udFxLcpufs1y63b6FOlPr379/h6elJpYGmqfDavxzrqflOVZDIbnEYJ99b6mD3oEr9oAr5xM57eo0PqrJmpOddH1QFOqgKZN6pBR4WY/W9s8DUPDl52i3GaplTlaIWpZtOx1lWSDp2mlP+ItE02fXLxLVWPH15L+CkmU7LxtMpK7f8ypdfI3ZWJiZazXpm3jvpG3b+Y56D8hewnkoqDzZdf32I0w2JuT+exemeNBfTRAzM9Mll6e+iOm7miRMKyWvQsgvyclQlTgHbo3bBbbIwn75p3LwpvrgWxl7luG79c1cvna5NI1VHIqm0Q9Y9wVtGADoprw2It/tkG+mdNqh9qNGGxfM4jZivbbpGOwegm4r6IHltQSz1fVD7Uqfv1UL/M24vi9pY0x/NX/djGsFtbr1+Z1L1/qLNo5ov91WxTffWicB1yatPvpgV54M6UUSXK2cidsD+z7Ns3V+WldFHVcyuyZPeuu1Ljy5vZT7Sp6KeTvVthPk15yDRFdL21NmBHmFP3Jxz/yb6N/H0WVTRpdXHeweEpLP7a9b/4XP6p4Lh5wf1afrS2RCV4tmkTx/Cz1xsKnYVVIuLflhPtLzjazSX7XR9umy+qTriKqwPzuXAVWJeJd1Aleva8LM8jBPL0pcyjx/EyVJQXmvV85DyaHh71FrZJivk89MHN8DZvBy1Vf+qbM8Fv3waLZQRgC4J2AfH3PaiSvtQpQ0LQTsHoC11josaPpYymmpjRx/V9FFb38qJgW2se55x8sy2+KXPorPfa1Xi5u4fur5veYd1gkHEzvgkmePcUvZeiGYj1YOJxZeIVqVPd9UVazAYyXwbXYa4S7UGYZpKp5qyeI7EjF+8vqlNqLuaj11oPTtddpp6Ra3OURtlG12uFQ+OJ176ACqapJa20q227Q7l84PaPdiRKH0p8/jhc2ZnEp7XOu3GtfRjm2yvnlyrLQTQP2H74C6inQPQljrtS/k8V+p/mgGdaKDN3GbH5LHZwaNbao8vuy7UiTIMInbGq7wV1VJzs9i8SmTvl1iWRhWbmdyv9A8L8T0Fwu+Hk3JOOmZUv66yWGTvs+HS90VresOtpKkySOlgHXFEN44fn+4p4bzqHkO1lW7VmJpfpVa/ZGPut5H91UoLz2uD5VnmrO1Ru9A2eWY+W6snLW0vKWeXEYCbdYn2gXYOQGPsfemmX6J2pE77EjTPNfuf+km/Uf8yPnNPDx41cux5ifa4CSFxu/i+hTpRhkHEDsg7fXb3N1Hthh9E12X3oQyx6OyZc85K8j392R3g2Muf57I82VNjUzW9JB1z6u5Wnv+kRxiidSq47DBHUDyVybeFmm4l373Xgds8jhfyrY0Wt6nYVRAal2qaqiMJOfVBN3xnXbbfQrq1Ympi8ipvy5xLmbWAvNZfdkl5NLw9aq1sky3k02ir/hkNbc9trTuA/rto+1Cj7xiKdg543/Qtf9R/6Vvw1GlfyufpRP9TDx791Pko4mtzizTUHjfh7Lhddt9CnSjGIGIXDB9Fn0i4uk8coNqR4pOJPK3NRN5Hgetr2ceLb4GjyXZ03ZwNZW1+SOpyeLsxzH+cBhv2y6/padTSvpnh8e+JfOt0xrKIR95C0rHrv51/PaWzX8pXPdH0P+9TlQoFxVNR0/1U+ddPSUo/OUkPquhTfNV6/Ew/ur05DcWuitC4hGqqjrh89UHV1JnOaJ36EGsj3VoxnciXqYrb3H8psxGS15rLLi0P37LP2R610Lyq6YK3yTbyqfnSbaL+Nbk9t7XuAPqvtfahqb5jINo54P1SfcSB6XetT1eA1GlfQudR7c3F+596HZ0fp9P3EA9oc4s02R434Zy4XWPfQp0oxtOZ26PCa/9yeJ4OqkVPFIpf08NCPynHeYJP/JSd03T6lX1KXeopPcrOPHVHTxs/ecd5mpLKjJkmuTybz+NLf2c+Sy/vlLZ+ZfNSL53sE45i+ruUs+Kp2CcVnaZVL3c652lG6fgGPCnJ815rKnb6u4yacYm+D3xCU2D+ytazPDbqlVqRsJif0jitT3G6J/q7jFox9Tzhy5OOScNJOCSvxcu23xfG1lPvFHfZwdujVrPuHYVsk1ZhPn1PIcutn+k6Xxz7mvXPxuX40tM6+fGVl1ZejhXLCEAnRe1k2D44r73QituHuvvQZvqObbRzALpJb7d5ovbO/3Kap0hA+5JptwLmOWqq/xm3lcFtbPxy81TS5jr93LPWXdHTVGPz542R/7viuGVjdBSwLq3sW955nfDR8w30IOLv379lOlWHuWiUvk4+ijOaRFyziEnziGkY4tR9lBEAALgG+iD9QVkhhK4nXM4MAAAAAAAAoBCDiAAAAAAAAAAKMYgIAAAAAAAAoNBgtVod9LXvs9nMfgQAAAAAAAAAJzxYpUXcnLQdxDWLmDSPmIYhTt1HGQEAgGugD9IflBVC6HrC5cwAAAAAAAAACjGICAAAAAAAAKAQg4gAAAAAAAAACjGICAAAAAAAAKBQ/wYR90u5G8xkY9+iOZvZQAZ3S9nb9whAfayOmFW2X96Zm9geXzOi16p3WUc3MlN162552T2ArtuVlmnKZiDX2wQC4nT1PHZL82W8l+Vdd9vBtvtSJn0VH/0Kjaubp8plkqNOOvQ1uyFdDmHtf0jZXap832Xdc9rGprbjrsZFr19p33czK50mJB0Tg+M0d1IprAF5CJqmTEHfNChWt6QgFkmV6nab5XipOnJBPRtEVDu50Vy29h0apCru/cr+jUDUx+qIWVW6YzCab2W82Jknph3WU5HV/e13EK6GOno5G/mh6jZu2fsr48mTaqdfHmVo3zdKHTh9V3216VotQ+0PXh7DlpLOU1NlUi+dVuODYHXKoTtlR9279bY1qO+rB13UwWvcHh4Oa5k604Skowea7ldTWZs09DSfZD4K/CEwIA9B05TK75u+v+OEwH56lbGNNsvxYnXksvoziKiDO7gXxrnaoDbG4K0MBvWxOmJWg+0kTteng8XJk+wWY9VB+KW+RaOoowC6bPdXHTiN5ePIvgeAmxPS993LMvpFRZ4m5gNlIk9mAO27PZMwIJ3jDzNPam5r8k2iScp62SF5sNOMF/ItMc03s4B4mhKFfdN3dpwQ3E+vMrZRoRwLp/FpM+3r6scgoj5lVVUEPcJuNgo0ar/8LivVuC1UXUUA6mN1xKye/Zu8qv+mX457lYRXeevojqWX3kEddS938V8G9cdc1pY3jbk0ZLaMLic105wu+wlL39Lxth3B7Xykpj9dlpK+rEi9Kl1mpTqOap7ZJvo/Ly/nr0dxnFyFaZpYZPNsfoA2Heb4s+wlVufFKi0krW6UcewtUX7+NMryW1QPyvKYN6/53Jm2UtxymHTNQdHWnCWTXEbQeurpC8rkUmWbiU+qjutX+SVqWlF+o++S20u0bSWnKcznGdtkaRxrrq/POTHIlIMR0P77yjOeR333Zj9PajQmV657Jo26+47C5e2jNJ0zj3wxl7fz2tbUNJcos6pC+r77P/K8FRm7v6iMPspYtZHPf9REIekMH+XlcEgM3lQQkodz6fpe1Dd9T8cJZbFIKBzbsHX3uKkF1aXAsm4z7a759+/f4enp6dAXqtIc1KZyWNv3XabCa//qsN3iMJbxYbE76LOfD2rLPKg/O61Lce1KfexFXbP6sg13OaZmW+1IDPtU90L1aT8TQpdRVGeitt4wbb8cVGfMfrA+qL6WmXYar3hmmrjupT/TopgVpe8TLTOTfmo/tDuovuJB4kzZdI95zDhvPRqJk5PH0tjY98k6F+fvFAsbh0RsSmNVQUha5bHxaaOM7fSpaWy5VMxvNE12HcLjUT5vSD6CrafptJSQbS+dp5wyuUTZKqlpMmVtp0+lkVW+zunluvkqzadNr+o2GbqtV11fn2ZjENCuKd40EjGK8uSbpumYXK/uReuTXrZ2ftln86vl5/mMGFy4zHT6TUjlPZOHWDYuLjcGrkxZ5gnNg2m3k9PZ7S0nXnmifOXnO6lsHfM0VVZtK4yFKZeo/EwcyuIcUo5161ubaV+RaTMYRGxP9zfEqNGPK2fQhtYBXYprV+pjXxp9rS/bcFdjGsWvOzuVPtW9UH3az4Qw9cVTZ6L1jDvKtlPr9GLcWHg7prYD5E+/KI5OBymnI5VKJ7ezFWtrPSrEKZnHkNj4pskcdBQsI8FdzyAhaRWuR9HBVhtl7D9gTfVhAvNbVA/KYuudV6mTj2DuIGJh+k5ej/Hyl0n1PNYoWyWVF7M+2RgWClznY6zWevpszCrX98BtsjBfddbX59wYKL46EdRuOnXbjWPl+l8rJleqe4pJw52vkbI/cxAxJAY507RdZk30E6PlJ/Jl8pBdlzgubhxjmXSSbJq537uq5MHGtVL6jlRZFihcxxJ6vj7Ij0WNsY2QcqxZ31pN+4p0fvv3dGY0Zr/8KnNZyM/AG3MDuLLNzNw8We1Qgm+oD2j6PmoPn9N1Zvj5wVwq8XdnP1DcS2KiaVaSujXQ+KOkLrqw92nzp+/MWyR1WZG9tGswiOp8RZn1+PBJ/etc2lNpPWrESasQm08f3G264N53DcYqKK0KsSnUZL4/fch/QEKV/Lr1oEoe3XldTcUtT4X6leuaZWsu11rJvZrOuYozX+g6T55kPd3K/H4u2+l/ctxlVshnpW0yJF911tfn3BjkCG7XlP2fZ5OH7BV4Y/uXElK3mojJpeperM4+sKmyzxMQg06VWRVN9X3L0lHbix4fORzW8klfJu65FLwOc/n46FkedvFDM3by8Jy+DL0x7/w4gbGNy2EQ8b3aL+XrXGTxkyfkAX1g7k9j7wVyiHqJQCfs3/Qdeex92tRBxfFV4ynXp3s1jWS+jZ6WuFskDnDO0sCgTUVNxsbVZKzajXvaJZdVVx/yqLVZv+qoHDcz8LGLHmJwf8p/0cBElXWefJma/93BsTbKNyhfNdbXp4kYNOOTZMZZq2ooJpeoe3kuWfZFwmLQnTILkdv3NQOZ+dz7y1XrQ9sHn2yfxdyyzrk/pH6Ze0SG5EEdb0fPVfmZGMQfyuPLWqayku8qndz0K3r3xwl1xzZCyrFifTtqM+0rYxDxnYp+jUrv8FS7oxrMuYw8N4oGcD26Y6h/WdQdA85ARGPMGQcl7FkJRX2Y6Cy/sSyOv7KnX8F92c3M7IdMB9jMm3haYiOK1yPXGXFqLDauJmN1TlohsUlqvYxLhOT3EnmsGrccrdUv7WJlqw+o4zyfBibyBiTC13kfPfFSWd0nzvhpqXzD81VtfX3OjkGonHbtpOaDGzJ168yYXKju5blk2ecKjkFHyixASN/31V0Z+6CR5FnEdfrQUZlGPzwOH1/sep5eyXQK82Djlj2reST6BNCtWkBZ+iE4Tjh/bCOkLoVM49Nm2tfCIOI75Wuw1vrHyvFCdoeX0kseAFyG/mVR7wSn6+qdCiCmL0Nyn/AWnT2RPkB0OzHRNCVnLphfUT1PkFMHNb6nlxZzL6Payx/92LqKmlyPs+LUaGxczcQqUpJWhdiUazLfOc7Ob0N5bDRuHk3Ur06V7VAefy5UKgUC19lc1mbOxjqd8XPSQh2sVRYB6+vTSAyyqrSbqctbE3Z/z203asZEzdF63cvTWtnvxYQqWHEMuldm+Ur7vsPP8qAWqAfhUpyB79J09BN/B9nBz6D2LyQPJp6eASLZiQ57E2eZcZwQqT22EVKOgfUto820r40Hq7RHhdf+1Q9BNx/tgC7FtSv1sU91rS/bcCdimnOD6y7pWzsXok/7mRC6jEz77nm4gO51RuwNnD3TJOtf3n4ik36c3jF9n2iaY/qZPMVlodO25WGnyU/Wsx72ptW11qNOnJw8lsbGt04mz8l59GSJepnJV/y9XlbFuhuYVnlsfNoo44AHEMTvS/LrzmNUiUdeHaqYj2CeepFJ38Y8fz2dMlHq5bFG2SqpvOTW8/RnrvJ1jt6f3urlpOtXYT7tNKnVL9smldJ81Vxfn7NiYN6qaZ06kUrPxqCo3czkwSyjZBo3/rViEuX3anUvsX6xzHrGMa2wnlEap/xG8ySWl6qXZ8QgmY8LlJlOvxK7vGTd87J5P62yE/OgdHz7Eye2RcryoGTrhl1msqwDRDF25gmNVaDKZXUl3lh4mNh7tteMgHIMmsanzbSvROeVQcQW6QD3SfCGdmVdimtX6mOf6lpftuEuxDSKldouvS9/Z+3SdF5uTZ/2MyHiMnLrU7rTGXVYpmvbcfFOU7yfyNTXgM7PaR4bb9uROr70ssxntr7bDnN+0lH+x9NpdNBjX+70Vdajcpw8eSyMjW+dkutsRWkk6mVZrBLT5MfLCklLKY6NX/NlHDaIqJXlN7ceBMQjb946+YiXF1ZO6TLR3PTLYpMpk9Rn0auVsjWT2M+jt9m8e9bPp2ids2Xg1JmyfNbdJpWifGml62vz5szmdU4M0t/Xb//NZ8d5poeFzpMzjZtPN93SmHic5rls3fPFIFZUHlr58uLBJftS85t54uU59bJODLSLlFmiHuv/q8imnXz5l3N8JWJeJZ10TMLav6OCPMQyecmpQ0WiNEram9TLrV/l9Hx94IuFj3d7TdTNlIByLJ2mzbQ7ROdvoAcRf//+LdOp2m2gUfpa/CjOaBJxzSImzSOmYYhT972vMtrIbHAvr+/4vkAufanTjw8v590fD62jnBCjLuAWxPVY3yuRfmI/0KdHCF1PuCciAADATdL3xJLu3lMHFuWEGHUBt4B6DNwyBhEBAABu0eaHPD/85GFpXUc5IUZdwC2gHgM3jcuZW8Qpwe0grlnEpHnENAxx6j7KCAAAXAN9kP6grBBC15PBarVSdeUgs9nMfgwAAAAAAAAAJ5yJ2CJG89tBXLOISfOIaRji1H2UEQAAuAb6IP1BWSGErifcExEAAAAAAABAIQYRAQAAAAAAABRiEBEAAAAAAABAIQYRAQAAAAAAABTqzSDifnlnbuJ4fM029hucYzNLxHRwJ8u9/QJh9ku5G8yE2liObbgB1LdWUUfRbxuZJeuvft0tpfJu3bQzA2ms+jvp6e3s7pKdDbv8Yx9nM1N/d6MdNX2wOmWE5lA/2lXUnphYq3VkXwuPoD5ZXIcKpglJ56zj4YA8tJu+Z9/vne4GBMQ6aBqPoDKqmXab+b4a/XTmp6enQ5ftFmP9mKDDeLGLPlhPzXuZrqP3HaXz2GXrqYqhTA/HKNq4djysHYrr+jDV9TAZwyvpel3r4zbcvZh2p74ldb3uherrfibErZQR8mXqr7E7LMa6zRgfUh+X2S0OY5VWY1U/lV7UjqXz2S7T1zELj+Nx2eWj26gfLcttT6J4E+vbV6cPEtQnyxy32n5yYpqQdM46Hg7IQ9vpR9NU3M/n0MvqrOBYlEzjEVRGNdNuM9/XovPag0FEfxCjRqFbB9MuHeDO8u7UbQeqoxU21om42o09el2/Hna6rvV0G+5UTDtW35K6XfdC9Xc/E+I2ygi57P7cfzBu6/Z4ofbwgW5sEBHAFRUMIu5oBt6F6n2QkD5ZzjGr6S/HA2oB6Zx1PByQh7bTV5rsq3a3vxgSCzuN09+J4lMwyBpURmFlkVUh35XTvh5dT7p/OfP+TV7Vf9Mvk+h9yqu89foc/ysaPsqLqgNPvrCimL40436l2qidqIbJfohcbMPnob61jzqKHtv8mMtWpvLf49B+kjSRb+u17F4eJfp2L8u77GUyhZdNupfYpC71rJDem76s8V5W6s/tfJRKJ30ZkWfejGi5+rLo1Lye+ULSdi93C7rcujAukbJ0C+OeUCt/ihubjUknzmd42fVv+bdbP/paF5KivIxkNLLpeGKOdyykT7b/I89bkfHHUfRxbPRRxmqP+PxHTRSSzjnHwyF5aDt9ZfdXTTT9ovb2NywwFkFs23xs7kLKKHT5btpB9bTBdbug7g8i5hSs2WDkk3zw9ZlRy375VebbsSy+3XQzdD5bJ1+8B2zIYBs+D/WtfdRR9NZGfulRufFHcbqfR8PJxA4g1mB/xJiuD/r0BPXayWK8kvs6B/0f9Ha2lqn6U/8ocjg8mYMePaBw/7qQnUnfLkPmMnIGNHz0YOSvL/F8Ku1ter6QtPU0o7nIYmen2S1EVLqFgyMBcdGDLZXT9aiVP8Ws+2oqa5O/g+wenuV+rtu0auqux7WXr91a/ehrXUgKiTneuQp9sk9uB234QU1h1ezbVT0eLsyDR7Pp7+XtVe1TX79HA/L2VWWb7JPiWAzl8T/Vw1Dt/I9jc7KRH7qtGz/I53jWyZNpe9x6kZRXRqVlnZN2SB2pWo+urg/3RHRFp6V2/3IYncdeMKfLSi9iqnUprk2eQn6O3tQ1qw/bcBdj2pX6ltS3uheqL/uZELdaRtD8l2vl8182Y+4HFF8ClLy0x/QPitqciunZ/B63K+9lRPrjsrbOLte5bCl/uSeptO007nYeTVNwGVFZXArTPc2Xyq9P3fx5193G7Lj88LIrW4+May8/TvuW6kfdvHjX80p1wZuXgDTQa030QaI6kqh/9tjVrUvqi8J9YiadpKrHw1Xz0Er6vmX5t+cQenmdVCXWtp2pFOtYXhlVLetYyHx1074ind/ePJ35aDOTkR5Rnq45M6cpdtRcVVb5NB9xWQHaxTaMrqOOAhFzOc1K7pOX5zQpdaaIvaRSLctsfyE+fcg/yzIk7d1f2ao1fDieohAZfn4wlxH93dkPXGVxKUx3Jb9CY1k3f3a+9NVRQ/n8oA6tqqi7HtdefuyW6kfdvHSlLLRzt3e8T031ycrSaft4uJX0J/Kk00yd+mbPyFt9r/YU6Bugz3QejJ7lIT5b+rCTh+f07VMKMSYSrFeDiPo0+oG9N1h6Y0EzJvJtoToV22fp6OX36Dm2YXQddRT9MpKPeizg9a2djq456NeXYqrjkfvogF+/mhxQNJ1+k+5I5tvoksudXmADWku7JC57fX2ZbGUe3/Mtfo30/SvbFy3/fHXX49rLD/Ue6kfXyqLN7R23J7dPZgbq87n3l6vWt0sfD5t5k3VevczlwhXzcNJ2+rGCHxf6JiQW+6V8X6m/Fz/lNEY8lMcXfRuVlXyvNKLqjInULYuQ+c4u5+vozSCi3unoXw/0xs+ZIe0ZftBX399Qo4POYBtG11FH0T9DiXbbfyVvtx0foNQf+NOd8NOv+vHASCMDiZuZqOO66MDOpB/dJ7ER56Rtzroqkx+XqC81Pt07znmd/ftESf6i5Z+v7npce/lBbqV+dLwupLS5vePmhPTJXt0n39mHqSTvL1enbxfV9+h4ePj4kqrr+pVMJyQPrrbTv1WFsbBtYTYu0Y+t24qDG8kyitUti5D5+lbOvRhE1B1gvdOZrnm4QGP0TZ89BxXRL43uZQ/AediG0XXUUfTV5NtC7bXzfmXfyx/z2L+F5N/DPboxe5ihPP7UyytSJT3NvUTS5rkRJWmbMwCyTz+s3hdy4pKTrh5EGQzuwi8xq5s/73whcXXKru56XHv5wXpUP+rmpXNl0eb2jltR2icbfhZ9RX5mYMgMJJ22h9J0zjkeDsnDVdOfivfB1H0UEgvTRnkG42Qn+lk6uWf0hZRRYH3LCJmvbtrX1vkHq+TcyLcPVHjtX13ku+lqdAPPrse6S3GNbtB7/ZtBd7qu9XQb7mJMu1LfkrrdzgXq8X4mxE2UEQpFbYNbh+OHJ6QfumAelpBsR+IbifseOGG+S88fLev0WaX03H6G/S7ZF4nXpbitC38QRFnaUf4T6+iZLyM4LslpsjdJT+U3R638KW5+8te9oOzMR87yPevhc93l32b9qJUX5aplYfNoJgmMOW6LLt9KbD0p7ZPZOnqqTk59DErnzOPhsjxcJf3os6D0HZXL6pJKY6EnUe9TbZSNT2H7ElhGAcv3CpmvbtpXovPa+UHE087F90pWku7Reey6aGM7veo0OJfWpbhG9fP6HZ8u17W+bsM6f13TlfqW1MU4VdXn/UwIvR54B+ID9OQrMQBwEneq7Ut1Us024AyuxH3X7PbhbhN107Ntme08H196PvNZ0bbn6/TbPk1ynQPTdtcxpC9UHhfPNGX5zVEnf1p6vulhYd4n9yElZWeVrUee6y3/dutHnbxo6fkuWBbO9h8ac9wOXc5VZOpY6uXUE7c+JepjlXTOOh4uyEPs0umXbZZ59LydFhCLTLk7bVichjtrUBmVLT8n7ZB8B03TETp/Az2I+Pv3b5lOp+o9mqTvQRTFGU0irlnEpHnENAxx6j7KCICmL+0bzT/J+kr3orv28nFCWeBS6IP0B2WFELqe9OrpzAAAAAAAAAAuj0FEAAAAAAAAAAVE/h97o2NSET8R9gAAAABJRU5ErkJggg==;" vertex="1" parent="1">
          <mxGeometry x="-89" y="2180" width="1297" height="87" as="geometry" />
        </mxCell>
      </root>
    </mxGraphModel>
  </diagram>
</mxfile>
